  0
SECTION
  2
HEADER
  9
$ACADVER
  1
AC1009
  9
$EXTMIN
 10
0.0
 20
0.0
 30
0.0
  9
$EXTMAX
 10
1000.0
 20
1000.0
 30
0.0
  9
$FILLMODE
 70
 0
  9
$SPLFRAME
 70
 1
  0
ENDSEC
  0
SECTION
  2
TABLES
  0
TABLE
  2
LAYER
 70
1
  0
LAYER
  2
0
 70
     0
 62
     7
  6
CONTINUOUS
  0
ENDTAB
  0
ENDSEC
  0
SECTION
  2
ENTITIES
  0
POLYLINE
  8
0
 62
     93
 66
     1
 10
0
 20
0
 30
0.0
 70
     1
 40
0
 41
0
  0
VERTEX
  8
0
 10
6.90028
 20
19.1185
 30
0.0
 40
0
 41
0
  0
VERTEX
  8
0
 10
6.87506
 20
19.0796
 30
0.0
 40
0
 41
0
  0
VERTEX
  8
0
 10
6.78965
 20
18.969
 30
0.0
 40
0
 41
0
  0
VERTEX
  8
0
 10
6.66439
 20
18.8314
 30
0.0
 40
0
 41
0
  0
VERTEX
  8
0
 10
6.53168
 20
18.7053
 30
0.0
 40
0
 41
0
  0
VERTEX
  8
0
 10
6.43246
 20
18.6185
 30
0.0
 40
0
 41
0
  0
VERTEX
  8
0
 10
6.39882
 20
18.5901
 30
0.0
 40
0
 41
0
  0
VERTEX
  8
0
 10
6.43257
 20
18.5956
 30
0.0
 40
0
 41
0
  0
VERTEX
  8
0
 10
6.53461
 20
18.6064
 30
0.0
 40
0
 41
0
  0
VERTEX
  8
0
 10
6.634
 20
18.6074
 30
0.0
 40
0
 41
0
  0
VERTEX
  8
0
 10
6.70053
 20
18.5944
 30
0.0
 40
0
 41
0
  0
VERTEX
  8
0
 10
6.73774
 20
18.5694
 30
0.0
 40
0
 41
0
  0
VERTEX
  8
0
 10
6.74914
 20
18.5335
 30
0.0
 40
0
 41
0
  0
VERTEX
  8
0
 10
6.73828
 20
18.4881
 30
0.0
 40
0
 41
0
  0
VERTEX
  8
0
 10
6.70871
 20
18.435
 30
0.0
 40
0
 41
0
  0
VERTEX
  8
0
 10
6.66401
 20
18.3753
 30
0.0
 40
0
 41
0
  0
VERTEX
  8
0
 10
6.60769
 20
18.3108
 30
0.0
 40
0
 41
0
  0
VERTEX
  8
0
 10
6.54329
 20
18.2428
 30
0.0
 40
0
 41
0
  0
VERTEX
  8
0
 10
6.47439
 20
18.1729
 30
0.0
 40
0
 41
0
  0
VERTEX
  8
0
 10
6.40446
 20
18.1024
 30
0.0
 40
0
 41
0
  0
VERTEX
  8
0
 10
6.33713
 20
18.0328
 30
0.0
 40
0
 41
0
  0
VERTEX
  8
0
 10
6.27588
 20
17.9658
 30
0.0
 40
0
 41
0
  0
VERTEX
  8
0
 10
6.22428
 20
17.9025
 30
0.0
 40
0
 41
0
  0
VERTEX
  8
0
 10
6.19433
 20
17.8599
 30
0.0
 40
0
 41
0
  0
VERTEX
  8
0
 10
6.18587
 20
17.8447
 30
0.0
 40
0
 41
0
  0
VERTEX
  8
0
 10
6.19353
 20
17.8382
 30
0.0
 40
0
 41
0
  0
VERTEX
  8
0
 10
6.21951
 20
17.8217
 30
0.0
 40
0
 41
0
  0
VERTEX
  8
0
 10
6.26118
 20
17.8012
 30
0.0
 40
0
 41
0
  0
VERTEX
  8
0
 10
6.30865
 20
17.7832
 30
0.0
 40
0
 41
0
  0
VERTEX
  8
0
 10
6.35975
 20
17.7667
 30
0.0
 40
0
 41
0
  0
VERTEX
  8
0
 10
6.41233
 20
17.751
 30
0.0
 40
0
 41
0
  0
VERTEX
  8
0
 10
6.46408
 20
17.7354
 30
0.0
 40
0
 41
0
  0
VERTEX
  8
0
 10
6.51292
 20
17.7196
 30
0.0
 40
0
 41
0
  0
VERTEX
  8
0
 10
6.55658
 20
17.7028
 30
0.0
 40
0
 41
0
  0
VERTEX
  8
0
 10
6.59293
 20
17.6842
 30
0.0
 40
0
 41
0
  0
VERTEX
  8
0
 10
6.61974
 20
17.6632
 30
0.0
 40
0
 41
0
  0
VERTEX
  8
0
 10
6.63488
 20
17.6393
 30
0.0
 40
0
 41
0
  0
VERTEX
  8
0
 10
6.63612
 20
17.6117
 30
0.0
 40
0
 41
0
  0
VERTEX
  8
0
 10
6.62125
 20
17.5797
 30
0.0
 40
0
 41
0
  0
VERTEX
  8
0
 10
6.58811
 20
17.5429
 30
0.0
 40
0
 41
0
  0
VERTEX
  8
0
 10
6.53444
 20
17.5004
 30
0.0
 40
0
 41
0
  0
VERTEX
  8
0
 10
6.47765
 20
17.4632
 30
0.0
 40
0
 41
0
  0
VERTEX
  8
0
 10
6.45822
 20
17.4517
 30
0.0
 40
0
 41
0
  0
VERTEX
  8
0
 10
6.45068
 20
17.4349
 30
0.0
 40
0
 41
0
  0
VERTEX
  8
0
 10
6.42003
 20
17.3878
 30
0.0
 40
0
 41
0
  0
VERTEX
  8
0
 10
6.36426
 20
17.3231
 30
0.0
 40
0
 41
0
  0
VERTEX
  8
0
 10
6.29411
 20
17.2576
 30
0.0
 40
0
 41
0
  0
VERTEX
  8
0
 10
6.21283
 20
17.1918
 30
0.0
 40
0
 41
0
  0
VERTEX
  8
0
 10
6.12369
 20
17.1256
 30
0.0
 40
0
 41
0
  0
VERTEX
  8
0
 10
6.02994
 20
17.059
 30
0.0
 40
0
 41
0
  0
VERTEX
  8
0
 10
5.93474
 20
16.9924
 30
0.0
 40
0
 41
0
  0
VERTEX
  8
0
 10
5.84142
 20
16.9257
 30
0.0
 40
0
 41
0
  0
VERTEX
  8
0
 10
5.7531
 20
16.8592
 30
0.0
 40
0
 41
0
  0
VERTEX
  8
0
 10
5.67312
 20
16.7928
 30
0.0
 40
0
 41
0
  0
VERTEX
  8
0
 10
5.60471
 20
16.7268
 30
0.0
 40
0
 41
0
  0
VERTEX
  8
0
 10
5.55106
 20
16.6612
 30
0.0
 40
0
 41
0
  0
VERTEX
  8
0
 10
5.5154
 20
16.5964
 30
0.0
 40
0
 41
0
  0
VERTEX
  8
0
 10
5.50103
 20
16.5322
 30
0.0
 40
0
 41
0
  0
VERTEX
  8
0
 10
5.51118
 20
16.4689
 30
0.0
 40
0
 41
0
  0
VERTEX
  8
0
 10
5.53733
 20
16.4201
 30
0.0
 40
0
 41
0
  0
VERTEX
  8
0
 10
5.54904
 20
16.4065
 30
0.0
 40
0
 41
0
  0
VERTEX
  8
0
 10
5.58729
 20
16.4094
 30
0.0
 40
0
 41
0
  0
VERTEX
  8
0
 10
5.7029
 20
16.41
 30
0.0
 40
0
 41
0
  0
VERTEX
  8
0
 10
5.81847
 20
16.3946
 30
0.0
 40
0
 41
0
  0
VERTEX
  8
0
 10
5.89925
 20
16.3621
 30
0.0
 40
0
 41
0
  0
VERTEX
  8
0
 10
5.94868
 20
16.3144
 30
0.0
 40
0
 41
0
  0
VERTEX
  8
0
 10
5.97021
 20
16.2536
 30
0.0
 40
0
 41
0
  0
VERTEX
  8
0
 10
5.96744
 20
16.1815
 30
0.0
 40
0
 41
0
  0
VERTEX
  8
0
 10
5.94374
 20
16.1
 30
0.0
 40
0
 41
0
  0
VERTEX
  8
0
 10
5.90267
 20
16.0113
 30
0.0
 40
0
 41
0
  0
VERTEX
  8
0
 10
5.84765
 20
15.9169
 30
0.0
 40
0
 41
0
  0
VERTEX
  8
0
 10
5.78217
 20
15.8192
 30
0.0
 40
0
 41
0
  0
VERTEX
  8
0
 10
5.70979
 20
15.7197
 30
0.0
 40
0
 41
0
  0
VERTEX
  8
0
 10
5.6339
 20
15.6207
 30
0.0
 40
0
 41
0
  0
VERTEX
  8
0
 10
5.55806
 20
15.5239
 30
0.0
 40
0
 41
0
  0
VERTEX
  8
0
 10
5.48562
 20
15.4313
 30
0.0
 40
0
 41
0
  0
VERTEX
  8
0
 10
5.42025
 20
15.3447
 30
0.0
 40
0
 41
0
  0
VERTEX
  8
0
 10
5.37842
 20
15.2864
 30
0.0
 40
0
 41
0
  0
VERTEX
  8
0
 10
5.36529
 20
15.2664
 30
0.0
 40
0
 41
0
  0
VERTEX
  8
0
 10
5.36426
 20
15.26
 30
0.0
 40
0
 41
0
  0
VERTEX
  8
0
 10
5.3711
 20
15.2396
 30
0.0
 40
0
 41
0
  0
VERTEX
  8
0
 10
5.39615
 20
15.2225
 30
0.0
 40
0
 41
0
  0
VERTEX
  8
0
 10
5.43647
 20
15.2138
 30
0.0
 40
0
 41
0
  0
VERTEX
  8
0
 10
5.48796
 20
15.2118
 30
0.0
 40
0
 41
0
  0
VERTEX
  8
0
 10
5.54671
 20
15.2147
 30
0.0
 40
0
 41
0
  0
VERTEX
  8
0
 10
5.60861
 20
15.2214
 30
0.0
 40
0
 41
0
  0
VERTEX
  8
0
 10
5.66976
 20
15.2299
 30
0.0
 40
0
 41
0
  0
VERTEX
  8
0
 10
5.72607
 20
15.2387
 30
0.0
 40
0
 41
0
  0
VERTEX
  8
0
 10
5.7736
 20
15.2465
 30
0.0
 40
0
 41
0
  0
VERTEX
  8
0
 10
5.80832
 20
15.2515
 30
0.0
 40
0
 41
0
  0
VERTEX
  8
0
 10
5.82622
 20
15.2521
 30
0.0
 40
0
 41
0
  0
VERTEX
  8
0
 10
5.82329
 20
15.2468
 30
0.0
 40
0
 41
0
  0
VERTEX
  8
0
 10
5.79563
 20
15.234
 30
0.0
 40
0
 41
0
  0
VERTEX
  8
0
 10
5.73904
 20
15.2122
 30
0.0
 40
0
 41
0
  0
VERTEX
  8
0
 10
5.64968
 20
15.1799
 30
0.0
 40
0
 41
0
  0
VERTEX
  8
0
 10
5.55507
 20
15.1463
 30
0.0
 40
0
 41
0
  0
VERTEX
  8
0
 10
5.52354
 20
15.1351
 30
0.0
 40
0
 41
0
  0
VERTEX
  8
0
 10
5.50151
 20
15.1279
 30
0.0
 40
0
 41
0
  0
VERTEX
  8
0
 10
5.43664
 20
15.1022
 30
0.0
 40
0
 41
0
  0
VERTEX
  8
0
 10
5.34526
 20
15.0603
 30
0.0
 40
0
 41
0
  0
VERTEX
  8
0
 10
5.25256
 20
15.0108
 30
0.0
 40
0
 41
0
  0
VERTEX
  8
0
 10
5.16146
 20
14.9558
 30
0.0
 40
0
 41
0
  0
VERTEX
  8
0
 10
5.07503
 20
14.8974
 30
0.0
 40
0
 41
0
  0
VERTEX
  8
0
 10
4.99631
 20
14.8371
 30
0.0
 40
0
 41
0
  0
VERTEX
  8
0
 10
4.92833
 20
14.7771
 30
0.0
 40
0
 41
0
  0
VERTEX
  8
0
 10
4.87408
 20
14.7189
 30
0.0
 40
0
 41
0
  0
VERTEX
  8
0
 10
4.83664
 20
14.6647
 30
0.0
 40
0
 41
0
  0
VERTEX
  8
0
 10
4.81907
 20
14.6163
 30
0.0
 40
0
 41
0
  0
VERTEX
  8
0
 10
4.82433
 20
14.5753
 30
0.0
 40
0
 41
0
  0
VERTEX
  8
0
 10
4.85553
 20
14.5439
 30
0.0
 40
0
 41
0
  0
VERTEX
  8
0
 10
4.91558
 20
14.5237
 30
0.0
 40
0
 41
0
  0
VERTEX
  8
0
 10
5.00765
 20
14.5169
 30
0.0
 40
0
 41
0
  0
VERTEX
  8
0
 10
5.13465
 20
14.5251
 30
0.0
 40
0
 41
0
  0
VERTEX
  8
0
 10
5.25868
 20
14.5426
 30
0.0
 40
0
 41
0
  0
VERTEX
  8
0
 10
5.29975
 20
14.5503
 30
0.0
 40
0
 41
0
  0
VERTEX
  8
0
 10
5.31282
 20
14.5583
 30
0.0
 40
0
 41
0
  0
VERTEX
  8
0
 10
5.35303
 20
14.5811
 30
0.0
 40
0
 41
0
  0
VERTEX
  8
0
 10
5.38997
 20
14.5986
 30
0.0
 40
0
 41
0
  0
VERTEX
  8
0
 10
5.41325
 20
14.6047
 30
0.0
 40
0
 41
0
  0
VERTEX
  8
0
 10
5.42535
 20
14.6013
 30
0.0
 40
0
 41
0
  0
VERTEX
  8
0
 10
5.42876
 20
14.59
 30
0.0
 40
0
 41
0
  0
VERTEX
  8
0
 10
5.42617
 20
14.5726
 30
0.0
 40
0
 41
0
  0
VERTEX
  8
0
 10
5.41997
 20
14.5512
 30
0.0
 40
0
 41
0
  0
VERTEX
  8
0
 10
5.41287
 20
14.5275
 30
0.0
 40
0
 41
0
  0
VERTEX
  8
0
 10
5.40728
 20
14.5032
 30
0.0
 40
0
 41
0
  0
VERTEX
  8
0
 10
5.40587
 20
14.4803
 30
0.0
 40
0
 41
0
  0
VERTEX
  8
0
 10
5.41118
 20
14.4606
 30
0.0
 40
0
 41
0
  0
VERTEX
  8
0
 10
5.42567
 20
14.4456
 30
0.0
 40
0
 41
0
  0
VERTEX
  8
0
 10
5.45199
 20
14.4375
 30
0.0
 40
0
 41
0
  0
VERTEX
  8
0
 10
5.49262
 20
14.4379
 30
0.0
 40
0
 41
0
  0
VERTEX
  8
0
 10
5.55013
 20
14.4489
 30
0.0
 40
0
 41
0
  0
VERTEX
  8
0
 10
5.60813
 20
14.4654
 30
0.0
 40
0
 41
0
  0
VERTEX
  8
0
 10
5.62717
 20
14.4719
 30
0.0
 40
0
 41
0
  0
VERTEX
  8
0
 10
5.57633
 20
14.441
 30
0.0
 40
0
 41
0
  0
VERTEX
  8
0
 10
5.42111
 20
14.3526
 30
0.0
 40
0
 41
0
  0
VERTEX
  8
0
 10
5.19358
 20
14.2299
 30
0.0
 40
0
 41
0
  0
VERTEX
  8
0
 10
4.95378
 20
14.1054
 30
0.0
 40
0
 41
0
  0
VERTEX
  8
0
 10
4.71104
 20
13.9811
 30
0.0
 40
0
 41
0
  0
VERTEX
  8
0
 10
4.47461
 20
13.8585
 30
0.0
 40
0
 41
0
  0
VERTEX
  8
0
 10
4.25379
 20
13.7396
 30
0.0
 40
0
 41
0
  0
VERTEX
  8
0
 10
4.05794
 20
13.6261
 30
0.0
 40
0
 41
0
  0
VERTEX
  8
0
 10
3.93549
 20
13.5481
 30
0.0
 40
0
 41
0
  0
VERTEX
  8
0
 10
3.89632
 20
13.5198
 30
0.0
 40
0
 41
0
  0
VERTEX
  8
0
 10
3.91433
 20
13.5072
 30
0.0
 40
0
 41
0
  0
VERTEX
  8
0
 10
3.97054
 20
13.4724
 30
0.0
 40
0
 41
0
  0
VERTEX
  8
0
 10
4.04949
 20
13.4287
 30
0.0
 40
0
 41
0
  0
VERTEX
  8
0
 10
4.13053
 20
13.3879
 30
0.0
 40
0
 41
0
  0
VERTEX
  8
0
 10
4.21121
 20
13.3493
 30
0.0
 40
0
 41
0
  0
VERTEX
  8
0
 10
4.28896
 20
13.3124
 30
0.0
 40
0
 41
0
  0
VERTEX
  8
0
 10
4.36128
 20
13.2765
 30
0.0
 40
0
 41
0
  0
VERTEX
  8
0
 10
4.42562
 20
13.241
 30
0.0
 40
0
 41
0
  0
VERTEX
  8
0
 10
4.47944
 20
13.2053
 30
0.0
 40
0
 41
0
  0
VERTEX
  8
0
 10
4.52018
 20
13.1687
 30
0.0
 40
0
 41
0
  0
VERTEX
  8
0
 10
4.54536
 20
13.1305
 30
0.0
 40
0
 41
0
  0
VERTEX
  8
0
 10
4.5524
 20
13.0902
 30
0.0
 40
0
 41
0
  0
VERTEX
  8
0
 10
4.53885
 20
13.0471
 30
0.0
 40
0
 41
0
  0
VERTEX
  8
0
 10
4.50206
 20
13.0005
 30
0.0
 40
0
 41
0
  0
VERTEX
  8
0
 10
4.43961
 20
12.9498
 30
0.0
 40
0
 41
0
  0
VERTEX
  8
0
 10
4.3489
 20
12.8944
 30
0.0
 40
0
 41
0
  0
VERTEX
  8
0
 10
4.25819
 20
12.8479
 30
0.0
 40
0
 41
0
  0
VERTEX
  8
0
 10
4.22743
 20
12.8337
 30
0.0
 40
0
 41
0
  0
VERTEX
  8
0
 10
4.19086
 20
12.8297
 30
0.0
 40
0
 41
0
  0
VERTEX
  8
0
 10
4.08176
 20
12.8122
 30
0.0
 40
0
 41
0
  0
VERTEX
  8
0
 10
3.95996
 20
12.7832
 30
0.0
 40
0
 41
0
  0
VERTEX
  8
0
 10
3.86035
 20
12.7479
 30
0.0
 40
0
 41
0
  0
VERTEX
  8
0
 10
3.78125
 20
12.7076
 30
0.0
 40
0
 41
0
  0
VERTEX
  8
0
 10
3.72097
 20
12.6634
 30
0.0
 40
0
 41
0
  0
VERTEX
  8
0
 10
3.6779
 20
12.6166
 30
0.0
 40
0
 41
0
  0
VERTEX
  8
0
 10
3.65039
 20
12.5684
 30
0.0
 40
0
 41
0
  0
VERTEX
  8
0
 10
3.63672
 20
12.52
 30
0.0
 40
0
 41
0
  0
VERTEX
  8
0
 10
3.63525
 20
12.4727
 30
0.0
 40
0
 41
0
  0
VERTEX
  8
0
 10
3.64437
 20
12.4275
 30
0.0
 40
0
 41
0
  0
VERTEX
  8
0
 10
3.66238
 20
12.3859
 30
0.0
 40
0
 41
0
  0
VERTEX
  8
0
 10
3.68761
 20
12.349
 30
0.0
 40
0
 41
0
  0
VERTEX
  8
0
 10
3.71837
 20
12.318
 30
0.0
 40
0
 41
0
  0
VERTEX
  8
0
 10
3.7531
 20
12.2941
 30
0.0
 40
0
 41
0
  0
VERTEX
  8
0
 10
3.79004
 20
12.2785
 30
0.0
 40
0
 41
0
  0
VERTEX
  8
0
 10
3.81819
 20
12.2728
 30
0.0
 40
0
 41
0
  0
VERTEX
  8
0
 10
3.82764
 20
12.2726
 30
0.0
 40
0
 41
0
  0
VERTEX
  8
0
 10
3.80528
 20
12.2662
 30
0.0
 40
0
 41
0
  0
VERTEX
  8
0
 10
3.73981
 20
12.242
 30
0.0
 40
0
 41
0
  0
VERTEX
  8
0
 10
3.67746
 20
12.2087
 30
0.0
 40
0
 41
0
  0
VERTEX
  8
0
 10
3.63835
 20
12.1739
 30
0.0
 40
0
 41
0
  0
VERTEX
  8
0
 10
3.62022
 20
12.1385
 30
0.0
 40
0
 41
0
  0
VERTEX
  8
0
 10
3.62082
 20
12.1037
 30
0.0
 40
0
 41
0
  0
VERTEX
  8
0
 10
3.63786
 20
12.0705
 30
0.0
 40
0
 41
0
  0
VERTEX
  8
0
 10
3.66911
 20
12.0402
 30
0.0
 40
0
 41
0
  0
VERTEX
  8
0
 10
3.71229
 20
12.0136
 30
0.0
 40
0
 41
0
  0
VERTEX
  8
0
 10
3.76514
 20
11.9919
 30
0.0
 40
0
 41
0
  0
VERTEX
  8
0
 10
3.82542
 20
11.9761
 30
0.0
 40
0
 41
0
  0
VERTEX
  8
0
 10
3.8909
 20
11.9675
 30
0.0
 40
0
 41
0
  0
VERTEX
  8
0
 10
3.95921
 20
11.967
 30
0.0
 40
0
 41
0
  0
VERTEX
  8
0
 10
4.02815
 20
11.9757
 30
0.0
 40
0
 41
0
  0
VERTEX
  8
0
 10
4.09554
 20
11.9947
 30
0.0
 40
0
 41
0
  0
VERTEX
  8
0
 10
4.15901
 20
12.0251
 30
0.0
 40
0
 41
0
  0
VERTEX
  8
0
 10
4.20329
 20
12.0559
 30
0.0
 40
0
 41
0
  0
VERTEX
  8
0
 10
4.21636
 20
12.068
 30
0.0
 40
0
 41
0
  0
VERTEX
  8
0
 10
4.21485
 20
12.0514
 30
0.0
 40
0
 41
0
  0
VERTEX
  8
0
 10
4.23112
 20
11.9997
 30
0.0
 40
0
 41
0
  0
VERTEX
  8
0
 10
4.27647
 20
11.9405
 30
0.0
 40
0
 41
0
  0
VERTEX
  8
0
 10
4.33404
 20
11.8878
 30
0.0
 40
0
 41
0
  0
VERTEX
  8
0
 10
4.38536
 20
11.839
 30
0.0
 40
0
 41
0
  0
VERTEX
  8
0
 10
4.412
 20
11.7917
 30
0.0
 40
0
 41
0
  0
VERTEX
  8
0
 10
4.39561
 20
11.7431
 30
0.0
 40
0
 41
0
  0
VERTEX
  8
0
 10
4.31776
 20
11.6908
 30
0.0
 40
0
 41
0
  0
VERTEX
  8
0
 10
4.20014
 20
11.6446
 30
0.0
 40
0
 41
0
  0
VERTEX
  8
0
 10
4.16
 20
11.6323
 30
0.0
 40
0
 41
0
  0
VERTEX
  8
0
 10
4.125
 20
11.627
 30
0.0
 40
0
 41
0
  0
VERTEX
  8
0
 10
4.021
 20
11.605
 30
0.0
 40
0
 41
0
  0
VERTEX
  8
0
 10
3.91613
 20
11.5714
 30
0.0
 40
0
 41
0
  0
VERTEX
  8
0
 10
3.84261
 20
11.5323
 30
0.0
 40
0
 41
0
  0
VERTEX
  8
0
 10
3.79769
 20
11.4887
 30
0.0
 40
0
 41
0
  0
VERTEX
  8
0
 10
3.77849
 20
11.4411
 30
0.0
 40
0
 41
0
  0
VERTEX
  8
0
 10
3.78222
 20
11.3906
 30
0.0
 40
0
 41
0
  0
VERTEX
  8
0
 10
3.80621
 20
11.3378
 30
0.0
 40
0
 41
0
  0
VERTEX
  8
0
 10
3.8476
 20
11.2836
 30
0.0
 40
0
 41
0
  0
VERTEX
  8
0
 10
3.90354
 20
11.2287
 30
0.0
 40
0
 41
0
  0
VERTEX
  8
0
 10
3.9714
 20
11.174
 30
0.0
 40
0
 41
0
  0
VERTEX
  8
0
 10
4.04824
 20
11.1204
 30
0.0
 40
0
 41
0
  0
VERTEX
  8
0
 10
4.13135
 20
11.0685
 30
0.0
 40
0
 41
0
  0
VERTEX
  8
0
 10
4.21799
 20
11.0192
 30
0.0
 40
0
 41
0
  0
VERTEX
  8
0
 10
4.30524
 20
10.9734
 30
0.0
 40
0
 41
0
  0
VERTEX
  8
0
 10
4.3904
 20
10.9316
 30
0.0
 40
0
 41
0
  0
VERTEX
  8
0
 10
4.45053
 20
10.9039
 30
0.0
 40
0
 41
0
  0
VERTEX
  8
0
 10
4.47076
 20
10.895
 30
0.0
 40
0
 41
0
  0
VERTEX
  8
0
 10
4.47987
 20
10.8912
 30
0.0
 40
0
 41
0
  0
VERTEX
  8
0
 10
4.50683
 20
10.8785
 30
0.0
 40
0
 41
0
  0
VERTEX
  8
0
 10
4.52001
 20
10.869
 30
0.0
 40
0
 41
0
  0
VERTEX
  8
0
 10
4.51303
 20
10.8649
 30
0.0
 40
0
 41
0
  0
VERTEX
  8
0
 10
4.48861
 20
10.8648
 30
0.0
 40
0
 41
0
  0
VERTEX
  8
0
 10
4.4496
 20
10.8672
 30
0.0
 40
0
 41
0
  0
VERTEX
  8
0
 10
4.39876
 20
10.8708
 30
0.0
 40
0
 41
0
  0
VERTEX
  8
0
 10
4.33882
 20
10.874
 30
0.0
 40
0
 41
0
  0
VERTEX
  8
0
 10
4.27257
 20
10.8753
 30
0.0
 40
0
 41
0
  0
VERTEX
  8
0
 10
4.20285
 20
10.8734
 30
0.0
 40
0
 41
0
  0
VERTEX
  8
0
 10
4.13232
 20
10.8668
 30
0.0
 40
0
 41
0
  0
VERTEX
  8
0
 10
4.06386
 20
10.854
 30
0.0
 40
0
 41
0
  0
VERTEX
  8
0
 10
4.00017
 20
10.8336
 30
0.0
 40
0
 41
0
  0
VERTEX
  8
0
 10
3.94407
 20
10.804
 30
0.0
 40
0
 41
0
  0
VERTEX
  8
0
 10
3.89833
 20
10.764
 30
0.0
 40
0
 41
0
  0
VERTEX
  8
0
 10
3.86567
 20
10.712
 30
0.0
 40
0
 41
0
  0
VERTEX
  8
0
 10
3.85075
 20
10.6631
 30
0.0
 40
0
 41
0
  0
VERTEX
  8
0
 10
3.84896
 20
10.6465
 30
0.0
 40
0
 41
0
  0
VERTEX
  8
0
 10
3.74875
 20
10.5748
 30
0.0
 40
0
 41
0
  0
VERTEX
  8
0
 10
3.42622
 20
10.3902
 30
0.0
 40
0
 41
0
  0
VERTEX
  8
0
 10
2.97179
 20
10.1952
 30
0.0
 40
0
 41
0
  0
VERTEX
  8
0
 10
2.49625
 20
10.0558
 30
0.0
 40
0
 41
0
  0
VERTEX
  8
0
 10
2.13254
 20
9.98292
 30
0.0
 40
0
 41
0
  0
VERTEX
  8
0
 10
2.01031
 20
9.96625
 30
0.0
 40
0
 41
0
  0
VERTEX
  8
0
 10
2.01101
 20
9.94792
 30
0.0
 40
0
 41
0
  0
VERTEX
  8
0
 10
2.02485
 20
9.89318
 30
0.0
 40
0
 41
0
  0
VERTEX
  8
0
 10
2.0599
 20
9.8304
 30
0.0
 40
0
 41
0
  0
VERTEX
  8
0
 10
2.11187
 20
9.77669
 30
0.0
 40
0
 41
0
  0
VERTEX
  8
0
 10
2.17725
 20
9.73096
 30
0.0
 40
0
 41
0
  0
VERTEX
  8
0
 10
2.2525
 20
9.69194
 30
0.0
 40
0
 41
0
  0
VERTEX
  8
0
 10
2.33415
 20
9.65864
 30
0.0
 40
0
 41
0
  0
VERTEX
  8
0
 10
2.41857
 20
9.62972
 30
0.0
 40
0
 41
0
  0
VERTEX
  8
0
 10
2.50228
 20
9.60406
 30
0.0
 40
0
 41
0
  0
VERTEX
  8
0
 10
2.58171
 20
9.58057
 30
0.0
 40
0
 41
0
  0
VERTEX
  8
0
 10
2.65343
 20
9.558
 30
0.0
 40
0
 41
0
  0
VERTEX
  8
0
 10
2.71382
 20
9.53521
 30
0.0
 40
0
 41
0
  0
VERTEX
  8
0
 10
2.75933
 20
9.51101
 30
0.0
 40
0
 41
0
  0
VERTEX
  8
0
 10
2.78651
 20
9.48432
 30
0.0
 40
0
 41
0
  0
VERTEX
  8
0
 10
2.79183
 20
9.45383
 30
0.0
 40
0
 41
0
  0
VERTEX
  8
0
 10
2.77165
 20
9.41851
 30
0.0
 40
0
 41
0
  0
VERTEX
  8
0
 10
2.73574
 20
9.38618
 30
0.0
 40
0
 41
0
  0
VERTEX
  8
0
 10
2.7226
 20
9.37706
 30
0.0
 40
0
 41
0
  0
VERTEX
  8
0
 10
2.73676
 20
9.3596
 30
0.0
 40
0
 41
0
  0
VERTEX
  8
0
 10
2.78851
 20
9.31456
 30
0.0
 40
0
 41
0
  0
VERTEX
  8
0
 10
2.86025
 20
9.27735
 30
0.0
 40
0
 41
0
  0
VERTEX
  8
0
 10
2.93576
 20
9.26118
 30
0.0
 40
0
 41
0
  0
VERTEX
  8
0
 10
3.01281
 20
9.26187
 30
0.0
 40
0
 41
0
  0
VERTEX
  8
0
 10
3.08936
 20
9.27518
 30
0.0
 40
0
 41
0
  0
VERTEX
  8
0
 10
3.16331
 20
9.29693
 30
0.0
 40
0
 41
0
  0
VERTEX
  8
0
 10
3.23253
 20
9.32281
 30
0.0
 40
0
 41
0
  0
VERTEX
  8
0
 10
3.29486
 20
9.34868
 30
0.0
 40
0
 41
0
  0
VERTEX
  8
0
 10
3.34819
 20
9.37028
 30
0.0
 40
0
 41
0
  0
VERTEX
  8
0
 10
3.39046
 20
9.38336
 30
0.0
 40
0
 41
0
  0
VERTEX
  8
0
 10
3.41954
 20
9.38368
 30
0.0
 40
0
 41
0
  0
VERTEX
  8
0
 10
3.43326
 20
9.36714
 30
0.0
 40
0
 41
0
  0
VERTEX
  8
0
 10
3.42958
 20
9.32938
 30
0.0
 40
0
 41
0
  0
VERTEX
  8
0
 10
3.40631
 20
9.26622
 30
0.0
 40
0
 41
0
  0
VERTEX
  8
0
 10
3.36143
 20
9.17339
 30
0.0
 40
0
 41
0
  0
VERTEX
  8
0
 10
3.31033
 20
9.07818
 30
0.0
 40
0
 41
0
  0
VERTEX
  8
0
 10
3.29275
 20
9.04676
 30
0.0
 40
0
 41
0
  0
VERTEX
  8
0
 10
3.27599
 20
9.01606
 30
0.0
 40
0
 41
0
  0
VERTEX
  8
0
 10
3.21912
 20
8.92736
 30
0.0
 40
0
 41
0
  0
VERTEX
  8
0
 10
3.14632
 20
8.82508
 30
0.0
 40
0
 41
0
  0
VERTEX
  8
0
 10
3.08556
 20
8.73703
 30
0.0
 40
0
 41
0
  0
VERTEX
  8
0
 10
3.0479
 20
8.66032
 30
0.0
 40
0
 41
0
  0
VERTEX
  8
0
 10
3.04471
 20
8.59196
 30
0.0
 40
0
 41
0
  0
VERTEX
  8
0
 10
3.08708
 20
8.52914
 30
0.0
 40
0
 41
0
  0
VERTEX
  8
0
 10
3.18625
 20
8.46886
 30
0.0
 40
0
 41
0
  0
VERTEX
  8
0
 10
3.31087
 20
8.42101
 30
0.0
 40
0
 41
0
  0
VERTEX
  8
0
 10
3.3534
 20
8.40815
 30
0.0
 40
0
 41
0
  0
VERTEX
  8
0
 10
3.38151
 20
8.39367
 30
0.0
 40
0
 41
0
  0
VERTEX
  8
0
 10
3.46143
 20
8.34131
 30
0.0
 40
0
 41
0
  0
VERTEX
  8
0
 10
3.52974
 20
8.27453
 30
0.0
 40
0
 41
0
  0
VERTEX
  8
0
 10
3.56239
 20
8.20806
 30
0.0
 40
0
 41
0
  0
VERTEX
  8
0
 10
3.56353
 20
8.14204
 30
0.0
 40
0
 41
0
  0
VERTEX
  8
0
 10
3.53728
 20
8.07682
 30
0.0
 40
0
 41
0
  0
VERTEX
  8
0
 10
3.48779
 20
8.01253
 30
0.0
 40
0
 41
0
  0
VERTEX
  8
0
 10
3.41928
 20
7.94937
 30
0.0
 40
0
 41
0
  0
VERTEX
  8
0
 10
3.33578
 20
7.88764
 30
0.0
 40
0
 41
0
  0
VERTEX
  8
0
 10
3.24143
 20
7.82753
 30
0.0
 40
0
 41
0
  0
VERTEX
  8
0
 10
3.1404
 20
7.76921
 30
0.0
 40
0
 41
0
  0
VERTEX
  8
0
 10
3.03689
 20
7.713
 30
0.0
 40
0
 41
0
  0
VERTEX
  8
0
 10
2.9349
 20
7.65901
 30
0.0
 40
0
 41
0
  0
VERTEX
  8
0
 10
2.83871
 20
7.60753
 30
0.0
 40
0
 41
0
  0
VERTEX
  8
0
 10
2.75233
 20
7.55875
 30
0.0
 40
0
 41
0
  0
VERTEX
  8
0
 10
2.68001
 20
7.51292
 30
0.0
 40
0
 41
0
  0
VERTEX
  8
0
 10
2.63835
 20
7.48193
 30
0.0
 40
0
 41
0
  0
VERTEX
  8
0
 10
2.62582
 20
7.47017
 30
0.0
 40
0
 41
0
  0
VERTEX
  8
0
 10
2.61757
 20
7.45688
 30
0.0
 40
0
 41
0
  0
VERTEX
  8
0
 10
2.58371
 20
7.42264
 30
0.0
 40
0
 41
0
  0
VERTEX
  8
0
 10
2.52403
 20
7.38374
 30
0.0
 40
0
 41
0
  0
VERTEX
  8
0
 10
2.44982
 20
7.35249
 30
0.0
 40
0
 41
0
  0
VERTEX
  8
0
 10
2.36399
 20
7.32781
 30
0.0
 40
0
 41
0
  0
VERTEX
  8
0
 10
2.26964
 20
7.30854
 30
0.0
 40
0
 41
0
  0
VERTEX
  8
0
 10
2.16976
 20
7.29368
 30
0.0
 40
0
 41
0
  0
VERTEX
  8
0
 10
2.06733
 20
7.28207
 30
0.0
 40
0
 41
0
  0
VERTEX
  8
0
 10
1.96539
 20
7.27274
 30
0.0
 40
0
 41
0
  0
VERTEX
  8
0
 10
1.86692
 20
7.26454
 30
0.0
 40
0
 41
0
  0
VERTEX
  8
0
 10
1.77496
 20
7.2564
 30
0.0
 40
0
 41
0
  0
VERTEX
  8
0
 10
1.69249
 20
7.24724
 30
0.0
 40
0
 41
0
  0
VERTEX
  8
0
 10
1.62256
 20
7.236
 30
0.0
 40
0
 41
0
  0
VERTEX
  8
0
 10
1.56814
 20
7.22157
 30
0.0
 40
0
 41
0
  0
VERTEX
  8
0
 10
1.53222
 20
7.20296
 30
0.0
 40
0
 41
0
  0
VERTEX
  8
0
 10
1.51785
 20
7.17899
 30
0.0
 40
0
 41
0
  0
VERTEX
  8
0
 10
1.52371
 20
7.15489
 30
0.0
 40
0
 41
0
  0
VERTEX
  8
0
 10
1.5281
 20
7.14854
 30
0.0
 40
0
 41
0
  0
VERTEX
  8
0
 10
1.58208
 20
7.13633
 30
0.0
 40
0
 41
0
  0
VERTEX
  8
0
 10
1.74121
 20
7.08703
 30
0.0
 40
0
 41
0
  0
VERTEX
  8
0
 10
1.89285
 20
7.01465
 30
0.0
 40
0
 41
0
  0
VERTEX
  8
0
 10
1.99132
 20
6.93207
 30
0.0
 40
0
 41
0
  0
VERTEX
  8
0
 10
2.04486
 20
6.8399
 30
0.0
 40
0
 41
0
  0
VERTEX
  8
0
 10
2.0619
 20
6.73876
 30
0.0
 40
0
 41
0
  0
VERTEX
  8
0
 10
2.05063
 20
6.62929
 30
0.0
 40
0
 41
0
  0
VERTEX
  8
0
 10
2.01947
 20
6.51204
 30
0.0
 40
0
 41
0
  0
VERTEX
  8
0
 10
1.98774
 20
6.41862
 30
0.0
 40
0
 41
0
  0
VERTEX
  8
0
 10
1.97667
 20
6.38764
 30
0.0
 40
0
 41
0
  0
VERTEX
  8
0
 10
1.98742
 20
6.37711
 30
0.0
 40
0
 41
0
  0
VERTEX
  8
0
 10
2.02621
 20
6.35206
 30
0.0
 40
0
 41
0
  0
VERTEX
  8
0
 10
2.08529
 20
6.32975
 30
0.0
 40
0
 41
0
  0
VERTEX
  8
0
 10
2.15126
 20
6.31858
 30
0.0
 40
0
 41
0
  0
VERTEX
  8
0
 10
2.22136
 20
6.31625
 30
0.0
 40
0
 41
0
  0
VERTEX
  8
0
 10
2.29292
 20
6.32053
 30
0.0
 40
0
 41
0
  0
VERTEX
  8
0
 10
2.36322
 20
6.32915
 30
0.0
 40
0
 41
0
  0
VERTEX
  8
0
 10
2.42964
 20
6.3399
 30
0.0
 40
0
 41
0
  0
VERTEX
  8
0
 10
2.48936
 20
6.35047
 30
0.0
 40
0
 41
0
  0
VERTEX
  8
0
 10
2.53976
 20
6.35867
 30
0.0
 40
0
 41
0
  0
VERTEX
  8
0
 10
2.57813
 20
6.36225
 30
0.0
 40
0
 41
0
  0
VERTEX
  8
0
 10
2.60178
 20
6.35889
 30
0.0
 40
0
 41
0
  0
VERTEX
  8
0
 10
2.60801
 20
6.3464
 30
0.0
 40
0
 41
0
  0
VERTEX
  8
0
 10
2.59407
 20
6.32249
 30
0.0
 40
0
 41
0
  0
VERTEX
  8
0
 10
2.55735
 20
6.28494
 30
0.0
 40
0
 41
0
  0
VERTEX
  8
0
 10
2.49511
 20
6.2315
 30
0.0
 40
0
 41
0
  0
VERTEX
  8
0
 10
2.42746
 20
6.17751
 30
0.0
 40
0
 41
0
  0
VERTEX
  8
0
 10
2.40468
 20
6.15989
 30
0.0
 40
0
 41
0
  0
VERTEX
  8
0
 10
2.39122
 20
6.14779
 30
0.0
 40
0
 41
0
  0
VERTEX
  8
0
 10
2.34776
 20
6.1149
 30
0.0
 40
0
 41
0
  0
VERTEX
  8
0
 10
2.28108
 20
6.07129
 30
0.0
 40
0
 41
0
  0
VERTEX
  8
0
 10
2.20774
 20
6.02865
 30
0.0
 40
0
 41
0
  0
VERTEX
  8
0
 10
2.13064
 20
5.98654
 30
0.0
 40
0
 41
0
  0
VERTEX
  8
0
 10
2.0529
 20
5.94467
 30
0.0
 40
0
 41
0
  0
VERTEX
  8
0
 10
1.9776
 20
5.90256
 30
0.0
 40
0
 41
0
  0
VERTEX
  8
0
 10
1.90767
 20
5.85981
 30
0.0
 40
0
 41
0
  0
VERTEX
  8
0
 10
1.84631
 20
5.81608
 30
0.0
 40
0
 41
0
  0
VERTEX
  8
0
 10
1.79639
 20
5.77089
 30
0.0
 40
0
 41
0
  0
VERTEX
  8
0
 10
1.76107
 20
5.72385
 30
0.0
 40
0
 41
0
  0
VERTEX
  8
0
 10
1.74338
 20
5.67458
 30
0.0
 40
0
 41
0
  0
VERTEX
  8
0
 10
1.74636
 20
5.62272
 30
0.0
 40
0
 41
0
  0
VERTEX
  8
0
 10
1.773
 20
5.56782
 30
0.0
 40
0
 41
0
  0
VERTEX
  8
0
 10
1.82644
 20
5.5095
 30
0.0
 40
0
 41
0
  0
VERTEX
  8
0
 10
1.90967
 20
5.44732
 30
0.0
 40
0
 41
0
  0
VERTEX
  8
0
 10
1.99599
 20
5.39621
 30
0.0
 40
0
 41
0
  0
VERTEX
  8
0
 10
2.02572
 20
5.38092
 30
0.0
 40
0
 41
0
  0
VERTEX
  8
0
 10
2.04324
 20
5.38118
 30
0.0
 40
0
 41
0
  0
VERTEX
  8
0
 10
2.09597
 20
5.38271
 30
0.0
 40
0
 41
0
  0
VERTEX
  8
0
 10
2.16433
 20
5.38569
 30
0.0
 40
0
 41
0
  0
VERTEX
  8
0
 10
2.22949
 20
5.38938
 30
0.0
 40
0
 41
0
  0
VERTEX
  8
0
 10
2.29015
 20
5.39339
 30
0.0
 40
0
 41
0
  0
VERTEX
  8
0
 10
2.34494
 20
5.39719
 30
0.0
 40
0
 41
0
  0
VERTEX
  8
0
 10
2.39258
 20
5.40033
 30
0.0
 40
0
 41
0
  0
VERTEX
  8
0
 10
2.43175
 20
5.40229
 30
0.0
 40
0
 41
0
  0
VERTEX
  8
0
 10
2.46115
 20
5.40267
 30
0.0
 40
0
 41
0
  0
VERTEX
  8
0
 10
2.47944
 20
5.40093
 30
0.0
 40
0
 41
0
  0
VERTEX
  8
0
 10
2.48535
 20
5.39665
 30
0.0
 40
0
 41
0
  0
VERTEX
  8
0
 10
2.4776
 20
5.38938
 30
0.0
 40
0
 41
0
  0
VERTEX
  8
0
 10
2.45475
 20
5.37853
 30
0.0
 40
0
 41
0
  0
VERTEX
  8
0
 10
2.41564
 20
5.36376
 30
0.0
 40
0
 41
0
  0
VERTEX
  8
0
 10
2.35883
 20
5.34451
 30
0.0
 40
0
 41
0
  0
VERTEX
  8
0
 10
2.28304
 20
5.32032
 30
0.0
 40
0
 41
0
  0
VERTEX
  8
0
 10
2.21104
 20
5.29807
 30
0.0
 40
0
 41
0
  0
VERTEX
  8
0
 10
2.18707
 20
5.29075
 30
0.0
 40
0
 41
0
  0
VERTEX
  8
0
 10
2.13917
 20
5.28743
 30
0.0
 40
0
 41
0
  0
VERTEX
  8
0
 10
1.99729
 20
5.25315
 30
0.0
 40
0
 41
0
  0
VERTEX
  8
0
 10
1.81733
 20
5.1766
 30
0.0
 40
0
 41
0
  0
VERTEX
  8
0
 10
1.64426
 20
5.07454
 30
0.0
 40
0
 41
0
  0
VERTEX
  8
0
 10
1.4751
 20
4.96056
 30
0.0
 40
0
 41
0
  0
VERTEX
  8
0
 10
1.30697
 20
4.84814
 30
0.0
 40
0
 41
0
  0
VERTEX
  8
0
 10
1.13699
 20
4.75076
 30
0.0
 40
0
 41
0
  0
VERTEX
  8
0
 10
0.96224
 20
4.68197
 30
0.0
 40
0
 41
0
  0
VERTEX
  8
0
 10
0.825412
 20
4.65554
 30
0.0
 40
0
 41
0
  0
VERTEX
  8
0
 10
0.779785
 20
4.65528
 30
0.0
 40
0
 41
0
  0
VERTEX
  8
0
 10
0.743869
 20
4.6595
 30
0.0
 40
0
 41
0
  0
VERTEX
  8
0
 10
0.635742
 20
4.66749
 30
0.0
 40
0
 41
0
  0
VERTEX
  8
0
 10
0.529839
 20
4.66667
 30
0.0
 40
0
 41
0
  0
VERTEX
  8
0
 10
0.458387
 20
4.65446
 30
0.0
 40
0
 41
0
  0
VERTEX
  8
0
 10
0.417751
 20
4.63238
 30
0.0
 40
0
 41
0
  0
VERTEX
  8
0
 10
0.404406
 20
4.60211
 30
0.0
 40
0
 41
0
  0
VERTEX
  8
0
 10
0.414714
 20
4.56511
 30
0.0
 40
0
 41
0
  0
VERTEX
  8
0
 10
0.445042
 20
4.523
 30
0.0
 40
0
 41
0
  0
VERTEX
  8
0
 10
0.491808
 20
4.47743
 30
0.0
 40
0
 41
0
  0
VERTEX
  8
0
 10
0.551378
 20
4.42985
 30
0.0
 40
0
 41
0
  0
VERTEX
  8
0
 10
0.620226
 20
4.38189
 30
0.0
 40
0
 41
0
  0
VERTEX
  8
0
 10
0.694607
 20
4.33518
 30
0.0
 40
0
 41
0
  0
VERTEX
  8
0
 10
0.77105
 20
4.29124
 30
0.0
 40
0
 41
0
  0
VERTEX
  8
0
 10
0.845921
 20
4.25157
 30
0.0
 40
0
 41
0
  0
VERTEX
  8
0
 10
0.915528
 20
4.21789
 30
0.0
 40
0
 41
0
  0
VERTEX
  8
0
 10
0.976346
 20
4.19174
 30
0.0
 40
0
 41
0
  0
VERTEX
  8
0
 10
1.01248
 20
4.17822
 30
0.0
 40
0
 41
0
  0
VERTEX
  8
0
 10
1.02479
 20
4.17458
 30
0.0
 40
0
 41
0
  0
VERTEX
  8
0
 10
1.00092
 20
4.14524
 30
0.0
 40
0
 41
0
  0
VERTEX
  8
0
 10
0.936632
 20
4.05117
 30
0.0
 40
0
 41
0
  0
VERTEX
  8
0
 10
0.886122
 20
3.94667
 30
0.0
 40
0
 41
0
  0
VERTEX
  8
0
 10
0.869358
 20
3.86003
 30
0.0
 40
0
 41
0
  0
VERTEX
  8
0
 10
0.882379
 20
3.79031
 30
0.0
 40
0
 41
0
  0
VERTEX
  8
0
 10
0.921332
 20
3.73639
 30
0.0
 40
0
 41
0
  0
VERTEX
  8
0
 10
0.982314
 20
3.69726
 30
0.0
 40
0
 41
0
  0
VERTEX
  8
0
 10
1.06142
 20
3.67193
 30
0.0
 40
0
 41
0
  0
VERTEX
  8
0
 10
1.15478
 20
3.6594
 30
0.0
 40
0
 41
0
  0
VERTEX
  8
0
 10
1.25852
 20
3.65853
 30
0.0
 40
0
 41
0
  0
VERTEX
  8
0
 10
1.36876
 20
3.6684
 30
0.0
 40
0
 41
0
  0
VERTEX
  8
0
 10
1.4815
 20
3.68793
 30
0.0
 40
0
 41
0
  0
VERTEX
  8
0
 10
1.59299
 20
3.7161
 30
0.0
 40
0
 41
0
  0
VERTEX
  8
0
 10
1.69922
 20
3.75185
 30
0.0
 40
0
 41
0
  0
VERTEX
  8
0
 10
1.79633
 20
3.79417
 30
0.0
 40
0
 41
0
  0
VERTEX
  8
0
 10
1.88049
 20
3.84207
 30
0.0
 40
0
 41
0
  0
VERTEX
  8
0
 10
1.93235
 20
3.87989
 30
0.0
 40
0
 41
0
  0
VERTEX
  8
0
 10
1.94775
 20
3.89442
 30
0.0
 40
0
 41
0
  0
VERTEX
  8
0
 10
1.94222
 20
3.88456
 30
0.0
 40
0
 41
0
  0
VERTEX
  8
0
 10
1.919
 20
3.85851
 30
0.0
 40
0
 41
0
  0
VERTEX
  8
0
 10
1.86893
 20
3.81282
 30
0.0
 40
0
 41
0
  0
VERTEX
  8
0
 10
1.80231
 20
3.76112
 30
0.0
 40
0
 41
0
  0
VERTEX
  8
0
 10
1.72385
 20
3.70714
 30
0.0
 40
0
 41
0
  0
VERTEX
  8
0
 10
1.63813
 20
3.65462
 30
0.0
 40
0
 41
0
  0
VERTEX
  8
0
 10
1.55003
 20
3.60732
 30
0.0
 40
0
 41
0
  0
VERTEX
  8
0
 10
1.46408
 20
3.5689
 30
0.0
 40
0
 41
0
  0
VERTEX
  8
0
 10
1.40517
 20
3.54812
 30
0.0
 40
0
 41
0
  0
VERTEX
  8
0
 10
1.38509
 20
3.54318
 30
0.0
 40
0
 41
0
  0
VERTEX
  8
0
 10
1.37137
 20
3.52615
 30
0.0
 40
0
 41
0
  0
VERTEX
  8
0
 10
1.32216
 20
3.48144
 30
0.0
 40
0
 41
0
  0
VERTEX
  8
0
 10
1.24213
 20
3.42811
 30
0.0
 40
0
 41
0
  0
VERTEX
  8
0
 10
1.14789
 20
3.38183
 30
0.0
 40
0
 41
0
  0
VERTEX
  8
0
 10
1.04253
 20
3.34136
 30
0.0
 40
0
 41
0
  0
VERTEX
  8
0
 10
0.928982
 20
3.30528
 30
0.0
 40
0
 41
0
  0
VERTEX
  8
0
 10
0.810275
 20
3.2724
 30
0.0
 40
0
 41
0
  0
VERTEX
  8
0
 10
0.689453
 20
3.24132
 30
0.0
 40
0
 41
0
  0
VERTEX
  8
0
 10
0.569444
 20
3.21078
 30
0.0
 40
0
 41
0
  0
VERTEX
  8
0
 10
0.453342
 20
3.17942
 30
0.0
 40
0
 41
0
  0
VERTEX
  8
0
 10
0.344129
 20
3.14594
 30
0.0
 40
0
 41
0
  0
VERTEX
  8
0
 10
0.244737
 20
3.10906
 30
0.0
 40
0
 41
0
  0
VERTEX
  8
0
 10
0.158257
 20
3.06743
 30
0.0
 40
0
 41
0
  0
VERTEX
  8
0
 10
0.0876736
 20
3.01975
 30
0.0
 40
0
 41
0
  0
VERTEX
  8
0
 10
0.0360243
 20
2.96474
 30
0.0
 40
0
 41
0
  0
VERTEX
  8
0
 10
0.0061849
 20
2.90104
 30
0.0
 40
0
 41
0
  0
VERTEX
  8
0
 10
-0.000596789
 20
2.84543
 30
0.0
 40
0
 41
0
  0
VERTEX
  8
0
 10
0.00135634
 20
2.82731
 30
0.0
 40
0
 41
0
  0
VERTEX
  8
0
 10
0.0114475
 20
2.80794
 30
0.0
 40
0
 41
0
  0
VERTEX
  8
0
 10
0.0486111
 20
2.75319
 30
0.0
 40
0
 41
0
  0
VERTEX
  8
0
 10
0.103841
 20
2.69467
 30
0.0
 40
0
 41
0
  0
VERTEX
  8
0
 10
0.165744
 20
2.65061
 30
0.0
 40
0
 41
0
  0
VERTEX
  8
0
 10
0.233018
 20
2.61985
 30
0.0
 40
0
 41
0
  0
VERTEX
  8
0
 10
0.304417
 20
2.60135
 30
0.0
 40
0
 41
0
  0
VERTEX
  8
0
 10
0.378635
 20
2.59381
 30
0.0
 40
0
 41
0
  0
VERTEX
  8
0
 10
0.454428
 20
2.59625
 30
0.0
 40
0
 41
0
  0
VERTEX
  8
0
 10
0.530544
 20
2.60747
 30
0.0
 40
0
 41
0
  0
VERTEX
  8
0
 10
0.605578
 20
2.62631
 30
0.0
 40
0
 41
0
  0
VERTEX
  8
0
 10
0.678386
 20
2.65169
 30
0.0
 40
0
 41
0
  0
VERTEX
  8
0
 10
0.747612
 20
2.68246
 30
0.0
 40
0
 41
0
  0
VERTEX
  8
0
 10
0.812011
 20
2.71744
 30
0.0
 40
0
 41
0
  0
VERTEX
  8
0
 10
0.870335
 20
2.75553
 30
0.0
 40
0
 41
0
  0
VERTEX
  8
0
 10
0.921224
 20
2.79557
 30
0.0
 40
0
 41
0
  0
VERTEX
  8
0
 10
0.963433
 20
2.83649
 30
0.0
 40
0
 41
0
  0
VERTEX
  8
0
 10
0.988553
 20
2.86637
 30
0.0
 40
0
 41
0
  0
VERTEX
  8
0
 10
0.995768
 20
2.87706
 30
0.0
 40
0
 41
0
  0
VERTEX
  8
0
 10
0.977647
 20
2.83811
 30
0.0
 40
0
 41
0
  0
VERTEX
  8
0
 10
0.9273
 20
2.71935
 30
0.0
 40
0
 41
0
  0
VERTEX
  8
0
 10
0.881836
 20
2.5849
 30
0.0
 40
0
 41
0
  0
VERTEX
  8
0
 10
0.864692
 20
2.47715
 30
0.0
 40
0
 41
0
  0
VERTEX
  8
0
 10
0.881239
 20
2.39958
 30
0.0
 40
0
 41
0
  0
VERTEX
  8
0
 10
0.936794
 20
2.35558
 30
0.0
 40
0
 41
0
  0
VERTEX
  8
0
 10
1.03673
 20
2.34864
 30
0.0
 40
0
 41
0
  0
VERTEX
  8
0
 10
1.18636
 20
2.38226
 30
0.0
 40
0
 41
0
  0
VERTEX
  8
0
 10
1.34087
 20
2.43821
 30
0.0
 40
0
 41
0
  0
VERTEX
  8
0
 10
1.39111
 20
2.45979
 30
0.0
 40
0
 41
0
  0
VERTEX
  8
0
 10
1.40679
 20
2.46778
 30
0.0
 40
0
 41
0
  0
VERTEX
  8
0
 10
1.45096
 20
2.49761
 30
0.0
 40
0
 41
0
  0
VERTEX
  8
0
 10
1.50662
 20
2.54606
 30
0.0
 40
0
 41
0
  0
VERTEX
  8
0
 10
1.55826
 20
2.60221
 30
0.0
 40
0
 41
0
  0
VERTEX
  8
0
 10
1.60601
 20
2.66297
 30
0.0
 40
0
 41
0
  0
VERTEX
  8
0
 10
1.65001
 20
2.72547
 30
0.0
 40
0
 41
0
  0
VERTEX
  8
0
 10
1.69043
 20
2.78657
 30
0.0
 40
0
 41
0
  0
VERTEX
  8
0
 10
1.72743
 20
2.84326
 30
0.0
 40
0
 41
0
  0
VERTEX
  8
0
 10
1.76124
 20
2.89264
 30
0.0
 40
0
 41
0
  0
VERTEX
  8
0
 10
1.79194
 20
2.93153
 30
0.0
 40
0
 41
0
  0
VERTEX
  8
0
 10
1.81972
 20
2.95708
 30
0.0
 40
0
 41
0
  0
VERTEX
  8
0
 10
1.84472
 20
2.96619
 30
0.0
 40
0
 41
0
  0
VERTEX
  8
0
 10
1.86719
 20
2.95589
 30
0.0
 40
0
 41
0
  0
VERTEX
  8
0
 10
1.88715
 20
2.92312
 30
0.0
 40
0
 41
0
  0
VERTEX
  8
0
 10
1.90483
 20
2.8649
 30
0.0
 40
0
 41
0
  0
VERTEX
  8
0
 10
1.92046
 20
2.77821
 30
0.0
 40
0
 41
0
  0
VERTEX
  8
0
 10
1.93132
 20
2.68967
 30
0.0
 40
0
 41
0
  0
VERTEX
  8
0
 10
1.93414
 20
2.66004
 30
0.0
 40
0
 41
0
  0
VERTEX
  8
0
 10
1.926
 20
2.64453
 30
0.0
 40
0
 41
0
  0
VERTEX
  8
0
 10
1.89729
 20
2.6001
 30
0.0
 40
0
 41
0
  0
VERTEX
  8
0
 10
1.85053
 20
2.53868
 30
0.0
 40
0
 41
0
  0
VERTEX
  8
0
 10
1.79699
 20
2.47678
 30
0.0
 40
0
 41
0
  0
VERTEX
  8
0
 10
1.73947
 20
2.41515
 30
0.0
 40
0
 41
0
  0
VERTEX
  8
0
 10
1.68115
 20
2.35482
 30
0.0
 40
0
 41
0
  0
VERTEX
  8
0
 10
1.62494
 20
2.2965
 30
0.0
 40
0
 41
0
  0
VERTEX
  8
0
 10
1.57383
 20
2.24115
 30
0.0
 40
0
 41
0
  0
VERTEX
  8
0
 10
1.53088
 20
2.18961
 30
0.0
 40
0
 41
0
  0
VERTEX
  8
0
 10
1.49908
 20
2.14279
 30
0.0
 40
0
 41
0
  0
VERTEX
  8
0
 10
1.48139
 20
2.10151
 30
0.0
 40
0
 41
0
  0
VERTEX
  8
0
 10
1.48085
 20
2.06668
 30
0.0
 40
0
 41
0
  0
VERTEX
  8
0
 10
1.50043
 20
2.03917
 30
0.0
 40
0
 41
0
  0
VERTEX
  8
0
 10
1.54313
 20
2.01981
 30
0.0
 40
0
 41
0
  0
VERTEX
  8
0
 10
1.61203
 20
2.0095
 30
0.0
 40
0
 41
0
  0
VERTEX
  8
0
 10
1.71007
 20
2.00911
 30
0.0
 40
0
 41
0
  0
VERTEX
  8
0
 10
1.80783
 20
2.01594
 30
0.0
 40
0
 41
0
  0
VERTEX
  8
0
 10
1.84028
 20
2.01947
 30
0.0
 40
0
 41
0
  0
VERTEX
  8
0
 10
1.87511
 20
2.0421
 30
0.0
 40
0
 41
0
  0
VERTEX
  8
0
 10
1.97738
 20
2.11356
 30
0.0
 40
0
 41
0
  0
VERTEX
  8
0
 10
2.06526
 20
2.1799
 30
0.0
 40
0
 41
0
  0
VERTEX
  8
0
 10
2.11361
 20
2.21631
 30
0.0
 40
0
 41
0
  0
VERTEX
  8
0
 10
2.13206
 20
2.22038
 30
0.0
 40
0
 41
0
  0
VERTEX
  8
0
 10
2.1301
 20
2.18983
 30
0.0
 40
0
 41
0
  0
VERTEX
  8
0
 10
2.11746
 20
2.12235
 30
0.0
 40
0
 41
0
  0
VERTEX
  8
0
 10
2.10374
 20
2.01568
 30
0.0
 40
0
 41
0
  0
VERTEX
  8
0
 10
2.09804
 20
1.90446
 30
0.0
 40
0
 41
0
  0
VERTEX
  8
0
 10
2.09853
 20
1.8674
 30
0.0
 40
0
 41
0
  0
VERTEX
  8
0
 10
2.10807
 20
1.85585
 30
0.0
 40
0
 41
0
  0
VERTEX
  8
0
 10
2.15272
 20
1.83431
 30
0.0
 40
0
 41
0
  0
VERTEX
  8
0
 10
2.21739
 20
1.84674
 30
0.0
 40
0
 41
0
  0
VERTEX
  8
0
 10
2.28988
 20
1.89703
 30
0.0
 40
0
 41
0
  0
VERTEX
  8
0
 10
2.36768
 20
1.97765
 30
0.0
 40
0
 41
0
  0
VERTEX
  8
0
 10
2.44824
 20
2.08106
 30
0.0
 40
0
 41
0
  0
VERTEX
  8
0
 10
2.52908
 20
2.1996
 30
0.0
 40
0
 41
0
  0
VERTEX
  8
0
 10
2.60764
 20
2.32574
 30
0.0
 40
0
 41
0
  0
VERTEX
  8
0
 10
2.68143
 20
2.45182
 30
0.0
 40
0
 41
0
  0
VERTEX
  8
0
 10
2.74783
 20
2.57032
 30
0.0
 40
0
 41
0
  0
VERTEX
  8
0
 10
2.80436
 20
2.67361
 30
0.0
 40
0
 41
0
  0
VERTEX
  8
0
 10
2.84847
 20
2.75412
 30
0.0
 40
0
 41
0
  0
VERTEX
  8
0
 10
2.87765
 20
2.80425
 30
0.0
 40
0
 41
0
  0
VERTEX
  8
0
 10
2.88932
 20
2.8164
 30
0.0
 40
0
 41
0
  0
VERTEX
  8
0
 10
2.88103
 20
2.78299
 30
0.0
 40
0
 41
0
  0
VERTEX
  8
0
 10
2.85015
 20
2.6965
 30
0.0
 40
0
 41
0
  0
VERTEX
  8
0
 10
2.80838
 20
2.58599
 30
0.0
 40
0
 41
0
  0
VERTEX
  8
0
 10
2.79428
 20
2.54921
 30
0.0
 40
0
 41
0
  0
VERTEX
  8
0
 10
2.77468
 20
2.52175
 30
0.0
 40
0
 41
0
  0
VERTEX
  8
0
 10
2.72467
 20
2.43306
 30
0.0
 40
0
 41
0
  0
VERTEX
  8
0
 10
2.68978
 20
2.33274
 30
0.0
 40
0
 41
0
  0
VERTEX
  8
0
 10
2.68554
 20
2.24832
 30
0.0
 40
0
 41
0
  0
VERTEX
  8
0
 10
2.70774
 20
2.17996
 30
0.0
 40
0
 41
0
  0
VERTEX
  8
0
 10
2.75233
 20
2.12765
 30
0.0
 40
0
 41
0
  0
VERTEX
  8
0
 10
2.81511
 20
2.09158
 30
0.0
 40
0
 41
0
  0
VERTEX
  8
0
 10
2.89204
 20
2.07178
 30
0.0
 40
0
 41
0
  0
VERTEX
  8
0
 10
2.97894
 20
2.06836
 30
0.0
 40
0
 41
0
  0
VERTEX
  8
0
 10
3.07172
 20
2.08137
 30
0.0
 40
0
 41
0
  0
VERTEX
  8
0
 10
3.16624
 20
2.11094
 30
0.0
 40
0
 41
0
  0
VERTEX
  8
0
 10
3.2584
 20
2.15713
 30
0.0
 40
0
 41
0
  0
VERTEX
  8
0
 10
3.34407
 20
2.22006
 30
0.0
 40
0
 41
0
  0
VERTEX
  8
0
 10
3.41917
 20
2.29975
 30
0.0
 40
0
 41
0
  0
VERTEX
  8
0
 10
3.47944
 20
2.39638
 30
0.0
 40
0
 41
0
  0
VERTEX
  8
0
 10
3.52094
 20
2.50993
 30
0.0
 40
0
 41
0
  0
VERTEX
  8
0
 10
3.53808
 20
2.60781
 30
0.0
 40
0
 41
0
  0
VERTEX
  8
0
 10
3.53944
 20
2.64057
 30
0.0
 40
0
 41
0
  0
VERTEX
  8
0
 10
3.54639
 20
2.65782
 30
0.0
 40
0
 41
0
  0
VERTEX
  8
0
 10
3.56939
 20
2.70876
 30
0.0
 40
0
 41
0
  0
VERTEX
  8
0
 10
3.6091
 20
2.78982
 30
0.0
 40
0
 41
0
  0
VERTEX
  8
0
 10
3.65608
 20
2.87989
 30
0.0
 40
0
 41
0
  0
VERTEX
  8
0
 10
3.7079
 20
2.97504
 30
0.0
 40
0
 41
0
  0
VERTEX
  8
0
 10
3.76221
 20
3.0715
 30
0.0
 40
0
 41
0
  0
VERTEX
  8
0
 10
3.81657
 20
3.16531
 30
0.0
 40
0
 41
0
  0
VERTEX
  8
0
 10
3.8686
 20
3.25256
 30
0.0
 40
0
 41
0
  0
VERTEX
  8
0
 10
3.91585
 20
3.32943
 30
0.0
 40
0
 41
0
  0
VERTEX
  8
0
 10
3.95589
 20
3.39204
 30
0.0
 40
0
 41
0
  0
VERTEX
  8
0
 10
3.98633
 20
3.43653
 30
0.0
 40
0
 41
0
  0
VERTEX
  8
0
 10
4.00483
 20
3.45893
 30
0.0
 40
0
 41
0
  0
VERTEX
  8
0
 10
4.00885
 20
3.4554
 30
0.0
 40
0
 41
0
  0
VERTEX
  8
0
 10
3.99604
 20
3.4221
 30
0.0
 40
0
 41
0
  0
VERTEX
  8
0
 10
3.96397
 20
3.35514
 30
0.0
 40
0
 41
0
  0
VERTEX
  8
0
 10
3.91032
 20
3.25054
 30
0.0
 40
0
 41
0
  0
VERTEX
  8
0
 10
3.85215
 20
3.14094
 30
0.0
 40
0
 41
0
  0
VERTEX
  8
0
 10
3.83257
 20
3.10454
 30
0.0
 40
0
 41
0
  0
VERTEX
  8
0
 10
3.8215
 20
3.08035
 30
0.0
 40
0
 41
0
  0
VERTEX
  8
0
 10
3.78678
 20
3.00836
 30
0.0
 40
0
 41
0
  0
VERTEX
  8
0
 10
3.73313
 20
2.89572
 30
0.0
 40
0
 41
0
  0
VERTEX
  8
0
 10
3.67958
 20
2.77344
 30
0.0
 40
0
 41
0
  0
VERTEX
  8
0
 10
3.634
 20
2.64822
 30
0.0
 40
0
 41
0
  0
VERTEX
  8
0
 10
3.60433
 20
2.52692
 30
0.0
 40
0
 41
0
  0
VERTEX
  8
0
 10
3.59853
 20
2.41612
 30
0.0
 40
0
 41
0
  0
VERTEX
  8
0
 10
3.6244
 20
2.32269
 30
0.0
 40
0
 41
0
  0
VERTEX
  8
0
 10
3.67036
 20
2.26563
 30
0.0
 40
0
 41
0
  0
VERTEX
  8
0
 10
3.68994
 20
2.25336
 30
0.0
 40
0
 41
0
  0
VERTEX
  8
0
 10
3.73188
 20
2.2775
 30
0.0
 40
0
 41
0
  0
VERTEX
  8
0
 10
3.86247
 20
2.34169
 30
0.0
 40
0
 41
0
  0
VERTEX
  8
0
 10
3.98768
 20
2.38232
 30
0.0
 40
0
 41
0
  0
VERTEX
  8
0
 10
4.06988
 20
2.38049
 30
0.0
 40
0
 41
0
  0
VERTEX
  8
0
 10
4.11356
 20
2.34125
 30
0.0
 40
0
 41
0
  0
VERTEX
  8
0
 10
4.12304
 20
2.26975
 30
0.0
 40
0
 41
0
  0
VERTEX
  8
0
 10
4.10281
 20
2.17106
 30
0.0
 40
0
 41
0
  0
VERTEX
  8
0
 10
4.05724
 20
2.05046
 30
0.0
 40
0
 41
0
  0
VERTEX
  8
0
 10
4.00846
 20
1.94672
 30
0.0
 40
0
 41
0
  0
VERTEX
  8
0
 10
3.99078
 20
1.91288
 30
0.0
 40
0
 41
0
  0
VERTEX
  8
0
 10
4.01975
 20
1.89324
 30
0.0
 40
0
 41
0
  0
VERTEX
  8
0
 10
4.11664
 20
1.84879
 30
0.0
 40
0
 41
0
  0
VERTEX
  8
0
 10
4.23172
 20
1.83057
 30
0.0
 40
0
 41
0
  0
VERTEX
  8
0
 10
4.33653
 20
1.852
 30
0.0
 40
0
 41
0
  0
VERTEX
  8
0
 10
4.43175
 20
1.90701
 30
0.0
 40
0
 41
0
  0
VERTEX
  8
0
 10
4.51796
 20
1.98931
 30
0.0
 40
0
 41
0
  0
VERTEX
  8
0
 10
4.59571
 20
2.09272
 30
0.0
 40
0
 41
0
  0
VERTEX
  8
0
 10
4.66569
 20
2.21115
 30
0.0
 40
0
 41
0
  0
VERTEX
  8
0
 10
4.72846
 20
2.33826
 30
0.0
 40
0
 41
0
  0
VERTEX
  8
0
 10
4.78467
 20
2.46804
 30
0.0
 40
0
 41
0
  0
VERTEX
  8
0
 10
4.83485
 20
2.59418
 30
0.0
 40
0
 41
0
  0
VERTEX
  8
0
 10
4.87967
 20
2.71056
 30
0.0
 40
0
 41
0
  0
VERTEX
  8
0
 10
4.91971
 20
2.81093
 30
0.0
 40
0
 41
0
  0
VERTEX
  8
0
 10
4.95557
 20
2.88911
 30
0.0
 40
0
 41
0
  0
VERTEX
  8
0
 10
4.9879
 20
2.93896
 30
0.0
 40
0
 41
0
  0
VERTEX
  8
0
 10
5.01725
 20
2.95432
 30
0.0
 40
0
 41
0
  0
VERTEX
  8
0
 10
5.0401
 20
2.93664
 30
0.0
 40
0
 41
0
  0
VERTEX
  8
0
 10
5.04432
 20
2.92887
 30
0.0
 40
0
 41
0
  0
VERTEX
  8
0
 10
5.04725
 20
2.91271
 30
0.0
 40
0
 41
0
  0
VERTEX
  8
0
 10
5.04878
 20
2.86285
 30
0.0
 40
0
 41
0
  0
VERTEX
  8
0
 10
5.0434
 20
2.77826
 30
0.0
 40
0
 41
0
  0
VERTEX
  8
0
 10
5.03039
 20
2.67969
 30
0.0
 40
0
 41
0
  0
VERTEX
  8
0
 10
5.01178
 20
2.57167
 30
0.0
 40
0
 41
0
  0
VERTEX
  8
0
 10
4.98969
 20
2.45893
 30
0.0
 40
0
 41
0
  0
VERTEX
  8
0
 10
4.96619
 20
2.34592
 30
0.0
 40
0
 41
0
  0
VERTEX
  8
0
 10
4.94353
 20
2.23736
 30
0.0
 40
0
 41
0
  0
VERTEX
  8
0
 10
4.92367
 20
2.13769
 30
0.0
 40
0
 41
0
  0
VERTEX
  8
0
 10
4.90881
 20
2.0516
 30
0.0
 40
0
 41
0
  0
VERTEX
  8
0
 10
4.90104
 20
1.98367
 30
0.0
 40
0
 41
0
  0
VERTEX
  8
0
 10
4.90246
 20
1.93842
 30
0.0
 40
0
 41
0
  0
VERTEX
  8
0
 10
4.91521
 20
1.92051
 30
0.0
 40
0
 41
0
  0
VERTEX
  8
0
 10
4.94135
 20
1.93446
 30
0.0
 40
0
 41
0
  0
VERTEX
  8
0
 10
4.98307
 20
1.98492
 30
0.0
 40
0
 41
0
  0
VERTEX
  8
0
 10
5.04243
 20
2.0765
 30
0.0
 40
0
 41
0
  0
VERTEX
  8
0
 10
5.10232
 20
2.1791
 30
0.0
 40
0
 41
0
  0
VERTEX
  8
0
 10
5.12153
 20
2.21365
 30
0.0
 40
0
 41
0
  0
VERTEX
  8
0
 10
5.13118
 20
2.25265
 30
0.0
 40
0
 41
0
  0
VERTEX
  8
0
 10
5.16401
 20
2.3686
 30
0.0
 40
0
 41
0
  0
VERTEX
  8
0
 10
5.20285
 20
2.47803
 30
0.0
 40
0
 41
0
  0
VERTEX
  8
0
 10
5.23844
 20
2.54644
 30
0.0
 40
0
 41
0
  0
VERTEX
  8
0
 10
5.27132
 20
2.57829
 30
0.0
 40
0
 41
0
  0
VERTEX
  8
0
 10
5.30192
 20
2.57807
 30
0.0
 40
0
 41
0
  0
VERTEX
  8
0
 10
5.33078
 20
2.55018
 30
0.0
 40
0
 41
0
  0
VERTEX
  8
0
 10
5.3584
 20
2.49908
 30
0.0
 40
0
 41
0
  0
VERTEX
  8
0
 10
5.38525
 20
2.42931
 30
0.0
 40
0
 41
0
  0
VERTEX
  8
0
 10
5.41183
 20
2.34521
 30
0.0
 40
0
 41
0
  0
VERTEX
  8
0
 10
5.43864
 20
2.25131
 30
0.0
 40
0
 41
0
  0
VERTEX
  8
0
 10
5.4661
 20
2.15207
 30
0.0
 40
0
 41
0
  0
VERTEX
  8
0
 10
5.49479
 20
2.05192
 30
0.0
 40
0
 41
0
  0
VERTEX
  8
0
 10
5.52512
 20
1.95535
 30
0.0
 40
0
 41
0
  0
VERTEX
  8
0
 10
5.55767
 20
1.86681
 30
0.0
 40
0
 41
0
  0
VERTEX
  8
0
 10
5.59289
 20
1.79069
 30
0.0
 40
0
 41
0
  0
VERTEX
  8
0
 10
5.62017
 20
1.74511
 30
0.0
 40
0
 41
0
  0
VERTEX
  8
0
 10
5.63124
 20
1.7315
 30
0.0
 40
0
 41
0
  0
VERTEX
  8
0
 10
5.63015
 20
1.71337
 30
0.0
 40
0
 41
0
  0
VERTEX
  8
0
 10
5.62935
 20
1.65881
 30
0.0
 40
0
 41
0
  0
VERTEX
  8
0
 10
5.63189
 20
1.57937
 30
0.0
 40
0
 41
0
  0
VERTEX
  8
0
 10
5.63867
 20
1.4961
 30
0.0
 40
0
 41
0
  0
VERTEX
  8
0
 10
5.64958
 20
1.41174
 30
0.0
 40
0
 41
0
  0
VERTEX
  8
0
 10
5.6645
 20
1.32916
 30
0.0
 40
0
 41
0
  0
VERTEX
  8
0
 10
5.68321
 20
1.25114
 30
0.0
 40
0
 41
0
  0
VERTEX
  8
0
 10
5.70562
 20
1.18045
 30
0.0
 40
0
 41
0
  0
VERTEX
  8
0
 10
5.73161
 20
1.11995
 30
0.0
 40
0
 41
0
  0
VERTEX
  8
0
 10
5.76107
 20
1.07243
 30
0.0
 40
0
 41
0
  0
VERTEX
  8
0
 10
5.79378
 20
1.04074
 30
0.0
 40
0
 41
0
  0
VERTEX
  8
0
 10
5.82964
 20
1.02756
 30
0.0
 40
0
 41
0
  0
VERTEX
  8
0
 10
5.86849
 20
1.03586
 30
0.0
 40
0
 41
0
  0
VERTEX
  8
0
 10
5.91026
 20
1.06831
 30
0.0
 40
0
 41
0
  0
VERTEX
  8
0
 10
5.95475
 20
1.12782
 30
0.0
 40
0
 41
0
  0
VERTEX
  8
0
 10
6.00185
 20
1.21712
 30
0.0
 40
0
 41
0
  0
VERTEX
  8
0
 10
6.04015
 20
1.30816
 30
0.0
 40
0
 41
0
  0
VERTEX
  8
0
 10
6.05143
 20
1.33903
 30
0.0
 40
0
 41
0
  0
VERTEX
  8
0
 10
6.0561
 20
1.35362
 30
0.0
 40
0
 41
0
  0
VERTEX
  8
0
 10
6.06733
 20
1.39828
 30
0.0
 40
0
 41
0
  0
VERTEX
  8
0
 10
6.07964
 20
1.46251
 30
0.0
 40
0
 41
0
  0
VERTEX
  8
0
 10
6.08897
 20
1.52951
 30
0.0
 40
0
 41
0
  0
VERTEX
  8
0
 10
6.09614
 20
1.59717
 30
0.0
 40
0
 41
0
  0
VERTEX
  8
0
 10
6.10194
 20
1.66314
 30
0.0
 40
0
 41
0
  0
VERTEX
  8
0
 10
6.10715
 20
1.72521
 30
0.0
 40
0
 41
0
  0
VERTEX
  8
0
 10
6.11242
 20
1.78119
 30
0.0
 40
0
 41
0
  0
VERTEX
  8
0
 10
6.1186
 20
1.82883
 30
0.0
 40
0
 41
0
  0
VERTEX
  8
0
 10
6.12642
 20
1.86589
 30
0.0
 40
0
 41
0
  0
VERTEX
  8
0
 10
6.13661
 20
1.89019
 30
0.0
 40
0
 41
0
  0
VERTEX
  8
0
 10
6.15001
 20
1.89942
 30
0.0
 40
0
 41
0
  0
VERTEX
  8
0
 10
6.16726
 20
1.89144
 30
0.0
 40
0
 41
0
  0
VERTEX
  8
0
 10
6.18929
 20
1.86393
 30
0.0
 40
0
 41
0
  0
VERTEX
  8
0
 10
6.21669
 20
1.81472
 30
0.0
 40
0
 41
0
  0
VERTEX
  8
0
 10
6.25032
 20
1.74154
 30
0.0
 40
0
 41
0
  0
VERTEX
  8
0
 10
6.28114
 20
1.66721
 30
0.0
 40
0
 41
0
  0
VERTEX
  8
0
 10
6.29096
 20
1.64219
 30
0.0
 40
0
 41
0
  0
VERTEX
  8
0
 10
6.30333
 20
1.60519
 30
0.0
 40
0
 41
0
  0
VERTEX
  8
0
 10
6.34636
 20
1.49599
 30
0.0
 40
0
 41
0
  0
VERTEX
  8
0
 10
6.39714
 20
1.39958
 30
0.0
 40
0
 41
0
  0
VERTEX
  8
0
 10
6.44353
 20
1.34766
 30
0.0
 40
0
 41
0
  0
VERTEX
  8
0
 10
6.47575
 20
1.33355
 30
0.0
 40
0
 41
0
  0
VERTEX
  8
0
 10
6.48583
 20
1.33474
 30
0.0
 40
0
 41
0
  0
VERTEX
  8
0
 10
6.48583
 20
0.105794
 30
0.0
 40
0
 41
0
  0
VERTEX
  8
0
 10
6.48583
 20
0.0971137
 30
0.0
 40
0
 41
0
  0
VERTEX
  8
0
 10
6.48876
 20
0.0710721
 30
0.0
 40
0
 41
0
  0
VERTEX
  8
0
 10
6.50146
 20
0.0442165
 30
0.0
 40
0
 41
0
  0
VERTEX
  8
0
 10
6.52968
 20
0.0247939
 30
0.0
 40
0
 41
0
  0
VERTEX
  8
0
 10
6.56674
 20
0.0142144
 30
0.0
 40
0
 41
0
  0
VERTEX
  8
0
 10
6.57932
 20
0.0123698
 30
0.0
 40
0
 41
0
  0
VERTEX
  8
0
 10
6.5925
 20
0.0104709
 30
0.0
 40
0
 41
0
  0
VERTEX
  8
0
 10
6.63276
 20
0.00808376
 30
0.0
 40
0
 41
0
  0
VERTEX
  8
0
 10
6.72282
 20
0.00444879
 30
0.0
 40
0
 41
0
  0
VERTEX
  8
0
 10
6.83746
 20
0.00173611
 30
0.0
 40
0
 41
0
  0
VERTEX
  8
0
 10
6.96463
 20
0.000217014
 30
0.0
 40
0
 41
0
  0
VERTEX
  8
0
 10
7.09224
 20
0.000271268
 30
0.0
 40
0
 41
0
  0
VERTEX
  8
0
 10
7.20822
 20
0.00211589
 30
0.0
 40
0
 41
0
  0
VERTEX
  8
0
 10
7.30051
 20
0.00607639
 30
0.0
 40
0
 41
0
  0
VERTEX
  8
0
 10
7.34321
 20
0.0093316
 30
0.0
 40
0
 41
0
  0
VERTEX
  8
0
 10
7.35704
 20
0.0123698
 30
0.0
 40
0
 41
0
  0
VERTEX
  8
0
 10
7.37061
 20
0.0153537
 30
0.0
 40
0
 41
0
  0
VERTEX
  8
0
 10
7.4106
 20
0.0283203
 30
0.0
 40
0
 41
0
  0
VERTEX
  8
0
 10
7.43842
 20
0.047309
 30
0.0
 40
0
 41
0
  0
VERTEX
  8
0
 10
7.44889
 20
0.0722657
 30
0.0
 40
0
 41
0
  0
VERTEX
  8
0
 10
7.45053
 20
0.0974393
 30
0.0
 40
0
 41
0
  0
VERTEX
  8
0
 10
7.45053
 20
0.105794
 30
0.0
 40
0
 41
0
  0
VERTEX
  8
0
 10
7.45053
 20
1.85379
 30
0.0
 40
0
 41
0
  0
VERTEX
  8
0
 10
7.45628
 20
1.84104
 30
0.0
 40
0
 41
0
  0
VERTEX
  8
0
 10
7.47211
 20
1.80214
 30
0.0
 40
0
 41
0
  0
VERTEX
  8
0
 10
7.49462
 20
1.74278
 30
0.0
 40
0
 41
0
  0
VERTEX
  8
0
 10
7.51807
 20
1.67844
 30
0.0
 40
0
 41
0
  0
VERTEX
  8
0
 10
7.54238
 20
1.61171
 30
0.0
 40
0
 41
0
  0
VERTEX
  8
0
 10
7.5676
 20
1.54542
 30
0.0
 40
0
 41
0
  0
VERTEX
  8
0
 10
7.59375
 20
1.48215
 30
0.0
 40
0
 41
0
  0
VERTEX
  8
0
 10
7.62076
 20
1.42464
 30
0.0
 40
0
 41
0
  0
VERTEX
  8
0
 10
7.64871
 20
1.37565
 30
0.0
 40
0
 41
0
  0
VERTEX
  8
0
 10
7.67763
 20
1.33773
 30
0.0
 40
0
 41
0
  0
VERTEX
  8
0
 10
7.70742
 20
1.31375
 30
0.0
 40
0
 41
0
  0
VERTEX
  8
0
 10
7.73813
 20
1.30621
 30
0.0
 40
0
 41
0
  0
VERTEX
  8
0
 10
7.76981
 20
1.31798
 30
0.0
 40
0
 41
0
  0
VERTEX
  8
0
 10
7.8024
 20
1.35167
 30
0.0
 40
0
 41
0
  0
VERTEX
  8
0
 10
7.83594
 20
1.40994
 30
0.0
 40
0
 41
0
  0
VERTEX
  8
0
 10
7.87044
 20
1.49556
 30
0.0
 40
0
 41
0
  0
VERTEX
  8
0
 10
7.89789
 20
1.58203
 30
0.0
 40
0
 41
0
  0
VERTEX
  8
0
 10
7.90588
 20
1.61117
 30
0.0
 40
0
 41
0
  0
VERTEX
  8
0
 10
7.9159
 20
1.62478
 30
0.0
 40
0
 41
0
  0
VERTEX
  8
0
 10
7.94146
 20
1.669
 30
0.0
 40
0
 41
0
  0
VERTEX
  8
0
 10
7.97228
 20
1.73736
 30
0.0
 40
0
 41
0
  0
VERTEX
  8
0
 10
7.99935
 20
1.81418
 30
0.0
 40
0
 41
0
  0
VERTEX
  8
0
 10
8.02365
 20
1.8974
 30
0.0
 40
0
 41
0
  0
VERTEX
  8
0
 10
8.04611
 20
1.98497
 30
0.0
 40
0
 41
0
  0
VERTEX
  8
0
 10
8.06771
 20
2.07471
 30
0.0
 40
0
 41
0
  0
VERTEX
  8
0
 10
8.08951
 20
2.16461
 30
0.0
 40
0
 41
0
  0
VERTEX
  8
0
 10
8.11242
 20
2.2525
 30
0.0
 40
0
 41
0
  0
VERTEX
  8
0
 10
8.13743
 20
2.33632
 30
0.0
 40
0
 41
0
  0
VERTEX
  8
0
 10
8.16553
 20
2.41401
 30
0.0
 40
0
 41
0
  0
VERTEX
  8
0
 10
8.19769
 20
2.48346
 30
0.0
 40
0
 41
0
  0
VERTEX
  8
0
 10
8.23497
 20
2.54254
 30
0.0
 40
0
 41
0
  0
VERTEX
  8
0
 10
8.27821
 20
2.58919
 30
0.0
 40
0
 41
0
  0
VERTEX
  8
0
 10
8.3285
 20
2.62131
 30
0.0
 40
0
 41
0
  0
VERTEX
  8
0
 10
8.38672
 20
2.63683
 30
0.0
 40
0
 41
0
  0
VERTEX
  8
0
 10
8.43756
 20
2.63661
 30
0.0
 40
0
 41
0
  0
VERTEX
  8
0
 10
8.454
 20
2.63357
 30
0.0
 40
0
 41
0
  0
VERTEX
  8
0
 10
8.46582
 20
2.62386
 30
0.0
 40
0
 41
0
  0
VERTEX
  8
0
 10
8.49989
 20
2.59278
 30
0.0
 40
0
 41
0
  0
VERTEX
  8
0
 10
8.5561
 20
2.53819
 30
0.0
 40
0
 41
0
  0
VERTEX
  8
0
 10
8.62071
 20
2.47282
 30
0.0
 40
0
 41
0
  0
VERTEX
  8
0
 10
8.69179
 20
2.39958
 30
0.0
 40
0
 41
0
  0
VERTEX
  8
0
 10
8.76742
 20
2.32146
 30
0.0
 40
0
 41
0
  0
VERTEX
  8
0
 10
8.84571
 20
2.24132
 30
0.0
 40
0
 41
0
  0
VERTEX
  8
0
 10
8.92464
 20
2.16217
 30
0.0
 40
0
 41
0
  0
VERTEX
  8
0
 10
9.00239
 20
2.08686
 30
0.0
 40
0
 41
0
  0
VERTEX
  8
0
 10
9.07704
 20
2.01839
 30
0.0
 40
0
 41
0
  0
VERTEX
  8
0
 10
9.1466
 20
1.95964
 30
0.0
 40
0
 41
0
  0
VERTEX
  8
0
 10
9.20915
 20
1.91363
 30
0.0
 40
0
 41
0
  0
VERTEX
  8
0
 10
9.26286
 20
1.88319
 30
0.0
 40
0
 41
0
  0
VERTEX
  8
0
 10
9.30572
 20
1.87131
 30
0.0
 40
0
 41
0
  0
VERTEX
  8
0
 10
9.33583
 20
1.88086
 30
0.0
 40
0
 41
0
  0
VERTEX
  8
0
 10
9.35124
 20
1.91488
 30
0.0
 40
0
 41
0
  0
VERTEX
  8
0
 10
9.35211
 20
1.96115
 30
0.0
 40
0
 41
0
  0
VERTEX
  8
0
 10
9.35015
 20
1.97624
 30
0.0
 40
0
 41
0
  0
VERTEX
  8
0
 10
9.33871
 20
2.01525
 30
0.0
 40
0
 41
0
  0
VERTEX
  8
0
 10
9.30638
 20
2.13286
 30
0.0
 40
0
 41
0
  0
VERTEX
  8
0
 10
9.2819
 20
2.23785
 30
0.0
 40
0
 41
0
  0
VERTEX
  8
0
 10
9.27496
 20
2.29731
 30
0.0
 40
0
 41
0
  0
VERTEX
  8
0
 10
9.28381
 20
2.31743
 30
0.0
 40
0
 41
0
  0
VERTEX
  8
0
 10
9.30669
 20
2.30436
 30
0.0
 40
0
 41
0
  0
VERTEX
  8
0
 10
9.3419
 20
2.26411
 30
0.0
 40
0
 41
0
  0
VERTEX
  8
0
 10
9.38764
 20
2.20296
 30
0.0
 40
0
 41
0
  0
VERTEX
  8
0
 10
9.44217
 20
2.1269
 30
0.0
 40
0
 41
0
  0
VERTEX
  8
0
 10
9.50375
 20
2.04221
 30
0.0
 40
0
 41
0
  0
VERTEX
  8
0
 10
9.57064
 20
1.95486
 30
0.0
 40
0
 41
0
  0
VERTEX
  8
0
 10
9.64111
 20
1.8711
 30
0.0
 40
0
 41
0
  0
VERTEX
  8
0
 10
9.71337
 20
1.79704
 30
0.0
 40
0
 41
0
  0
VERTEX
  8
0
 10
9.78569
 20
1.73872
 30
0.0
 40
0
 41
0
  0
VERTEX
  8
0
 10
9.85633
 20
1.70242
 30
0.0
 40
0
 41
0
  0
VERTEX
  8
0
 10
9.9235
 20
1.69412
 30
0.0
 40
0
 41
0
  0
VERTEX
  8
0
 10
9.97265
 20
1.71018
 30
0.0
 40
0
 41
0
  0
VERTEX
  8
0
 10
9.98557
 20
1.72006
 30
0.0
 40
0
 41
0
  0
VERTEX
  8
0
 10
9.97629
 20
1.74149
 30
0.0
 40
0
 41
0
  0
VERTEX
  8
0
 10
9.95047
 20
1.80653
 30
0.0
 40
0
 41
0
  0
VERTEX
  8
0
 10
9.91726
 20
1.89903
 30
0.0
 40
0
 41
0
  0
VERTEX
  8
0
 10
9.88704
 20
1.99511
 30
0.0
 40
0
 41
0
  0
VERTEX
  8
0
 10
9.86106
 20
2.09229
 30
0.0
 40
0
 41
0
  0
VERTEX
  8
0
 10
9.84044
 20
2.1881
 30
0.0
 40
0
 41
0
  0
VERTEX
  8
0
 10
9.82633
 20
2.27994
 30
0.0
 40
0
 41
0
  0
VERTEX
  8
0
 10
9.81988
 20
2.36546
 30
0.0
 40
0
 41
0
  0
VERTEX
  8
0
 10
9.82226
 20
2.44206
 30
0.0
 40
0
 41
0
  0
VERTEX
  8
0
 10
9.83469
 20
2.50732
 30
0.0
 40
0
 41
0
  0
VERTEX
  8
0
 10
9.85829
 20
2.55871
 30
0.0
 40
0
 41
0
  0
VERTEX
  8
0
 10
9.89415
 20
2.59375
 30
0.0
 40
0
 41
0
  0
VERTEX
  8
0
 10
9.94358
 20
2.60992
 30
0.0
 40
0
 41
0
  0
VERTEX
  8
0
 10
10.0076
 20
2.60482
 30
0.0
 40
0
 41
0
  0
VERTEX
  8
0
 10
10.0875
 20
2.57585
 30
0.0
 40
0
 41
0
  0
VERTEX
  8
0
 10
10.1843
 20
2.52056
 30
0.0
 40
0
 41
0
  0
VERTEX
  8
0
 10
10.2715
 20
2.45865
 30
0.0
 40
0
 41
0
  0
VERTEX
  8
0
 10
10.2993
 20
2.43642
 30
0.0
 40
0
 41
0
  0
VERTEX
  8
0
 10
10.3108
 20
2.43012
 30
0.0
 40
0
 41
0
  0
VERTEX
  8
0
 10
10.3434
 20
2.40739
 30
0.0
 40
0
 41
0
  0
VERTEX
  8
0
 10
10.3878
 20
2.36985
 30
0.0
 40
0
 41
0
  0
VERTEX
  8
0
 10
10.4318
 20
2.32607
 30
0.0
 40
0
 41
0
  0
VERTEX
  8
0
 10
10.4753
 20
2.2781
 30
0.0
 40
0
 41
0
  0
VERTEX
  8
0
 10
10.518
 20
2.22819
 30
0.0
 40
0
 41
0
  0
VERTEX
  8
0
 10
10.5594
 20
2.1785
 30
0.0
 40
0
 41
0
  0
VERTEX
  8
0
 10
10.5993
 20
2.13124
 30
0.0
 40
0
 41
0
  0
VERTEX
  8
0
 10
10.6373
 20
2.08849
 30
0.0
 40
0
 41
0
  0
VERTEX
  8
0
 10
10.673
 20
2.05251
 30
0.0
 40
0
 41
0
  0
VERTEX
  8
0
 10
10.7062
 20
2.02544
 30
0.0
 40
0
 41
0
  0
VERTEX
  8
0
 10
10.7365
 20
2.00944
 30
0.0
 40
0
 41
0
  0
VERTEX
  8
0
 10
10.7636
 20
2.00672
 30
0.0
 40
0
 41
0
  0
VERTEX
  8
0
 10
10.787
 20
2.01938
 30
0.0
 40
0
 41
0
  0
VERTEX
  8
0
 10
10.8066
 20
2.04964
 30
0.0
 40
0
 41
0
  0
VERTEX
  8
0
 10
10.8219
 20
2.09972
 30
0.0
 40
0
 41
0
  0
VERTEX
  8
0
 10
10.8309
 20
2.1536
 30
0.0
 40
0
 41
0
  0
VERTEX
  8
0
 10
10.8327
 20
2.17165
 30
0.0
 40
0
 41
0
  0
VERTEX
  8
0
 10
10.8357
 20
2.13292
 30
0.0
 40
0
 41
0
  0
VERTEX
  8
0
 10
10.8679
 20
2.01828
 30
0.0
 40
0
 41
0
  0
VERTEX
  8
0
 10
10.9438
 20
1.88167
 30
0.0
 40
0
 41
0
  0
VERTEX
  8
0
 10
11.0526
 20
1.76079
 30
0.0
 40
0
 41
0
  0
VERTEX
  8
0
 10
11.1865
 20
1.65451
 30
0.0
 40
0
 41
0
  0
VERTEX
  8
0
 10
11.3376
 20
1.56185
 30
0.0
 40
0
 41
0
  0
VERTEX
  8
0
 10
11.4982
 20
1.48172
 30
0.0
 40
0
 41
0
  0
VERTEX
  8
0
 10
11.6603
 20
1.41303
 30
0.0
 40
0
 41
0
  0
VERTEX
  8
0
 10
11.777
 20
1.36865
 30
0.0
 40
0
 41
0
  0
VERTEX
  8
0
 10
11.8163
 20
1.35471
 30
0.0
 40
0
 41
0
  0
VERTEX
  8
0
 10
11.8433
 20
1.34635
 30
0.0
 40
0
 41
0
  0
VERTEX
  8
0
 10
11.9267
 20
1.32785
 30
0.0
 40
0
 41
0
  0
VERTEX
  8
0
 10
11.9964
 20
1.32677
 30
0.0
 40
0
 41
0
  0
VERTEX
  8
0
 10
12.0314
 20
1.3476
 30
0.0
 40
0
 41
0
  0
VERTEX
  8
0
 10
12.0376
 20
1.38656
 30
0.0
 40
0
 41
0
  0
VERTEX
  8
0
 10
12.0209
 20
1.43967
 30
0.0
 40
0
 41
0
  0
VERTEX
  8
0
 10
11.9873
 20
1.5031
 30
0.0
 40
0
 41
0
  0
VERTEX
  8
0
 10
11.9428
 20
1.57297
 30
0.0
 40
0
 41
0
  0
VERTEX
  8
0
 10
11.8932
 20
1.64535
 30
0.0
 40
0
 41
0
  0
VERTEX
  8
0
 10
11.8446
 20
1.71642
 30
0.0
 40
0
 41
0
  0
VERTEX
  8
0
 10
11.8029
 20
1.78228
 30
0.0
 40
0
 41
0
  0
VERTEX
  8
0
 10
11.774
 20
1.83903
 30
0.0
 40
0
 41
0
  0
VERTEX
  8
0
 10
11.764
 20
1.88282
 30
0.0
 40
0
 41
0
  0
VERTEX
  8
0
 10
11.7787
 20
1.90978
 30
0.0
 40
0
 41
0
  0
VERTEX
  8
0
 10
11.824
 20
1.91601
 30
0.0
 40
0
 41
0
  0
VERTEX
  8
0
 10
11.906
 20
1.89762
 30
0.0
 40
0
 41
0
  0
VERTEX
  8
0
 10
12.0001
 20
1.86367
 30
0.0
 40
0
 41
0
  0
VERTEX
  8
0
 10
12.0307
 20
1.85069
 30
0.0
 40
0
 41
0
  0
VERTEX
  8
0
 10
12.0509
 20
1.84987
 30
0.0
 40
0
 41
0
  0
VERTEX
  8
0
 10
12.1114
 20
1.84115
 30
0.0
 40
0
 41
0
  0
VERTEX
  8
0
 10
12.2068
 20
1.82047
 30
0.0
 40
0
 41
0
  0
VERTEX
  8
0
 10
12.3133
 20
1.79178
 30
0.0
 40
0
 41
0
  0
VERTEX
  8
0
 10
12.427
 20
1.75808
 30
0.0
 40
0
 41
0
  0
VERTEX
  8
0
 10
12.5444
 20
1.7226
 30
0.0
 40
0
 41
0
  0
VERTEX
  8
0
 10
12.6616
 20
1.68826
 30
0.0
 40
0
 41
0
  0
VERTEX
  8
0
 10
12.7751
 20
1.65826
 30
0.0
 40
0
 41
0
  0
VERTEX
  8
0
 10
12.8809
 20
1.63564
 30
0.0
 40
0
 41
0
  0
VERTEX
  8
0
 10
12.9755
 20
1.62349
 30
0.0
 40
0
 41
0
  0
VERTEX
  8
0
 10
13.0551
 20
1.62483
 30
0.0
 40
0
 41
0
  0
VERTEX
  8
0
 10
13.116
 20
1.64285
 30
0.0
 40
0
 41
0
  0
VERTEX
  8
0
 10
13.1545
 20
1.68056
 30
0.0
 40
0
 41
0
  0
VERTEX
  8
0
 10
13.1668
 20
1.74104
 30
0.0
 40
0
 41
0
  0
VERTEX
  8
0
 10
13.1493
 20
1.82742
 30
0.0
 40
0
 41
0
  0
VERTEX
  8
0
 10
13.0982
 20
1.94276
 30
0.0
 40
0
 41
0
  0
VERTEX
  8
0
 10
13.0335
 20
2.05431
 30
0.0
 40
0
 41
0
  0
VERTEX
  8
0
 10
13.0099
 20
2.09011
 30
0.0
 40
0
 41
0
  0
VERTEX
  8
0
 10
13.0128
 20
2.10178
 30
0.0
 40
0
 41
0
  0
VERTEX
  8
0
 10
13.0306
 20
2.1345
 30
0.0
 40
0
 41
0
  0
VERTEX
  8
0
 10
13.0673
 20
2.1729
 30
0.0
 40
0
 41
0
  0
VERTEX
  8
0
 10
13.1177
 20
2.2066
 30
0.0
 40
0
 41
0
  0
VERTEX
  8
0
 10
13.1796
 20
2.23699
 30
0.0
 40
0
 41
0
  0
VERTEX
  8
0
 10
13.2507
 20
2.26531
 30
0.0
 40
0
 41
0
  0
VERTEX
  8
0
 10
13.3288
 20
2.29281
 30
0.0
 40
0
 41
0
  0
VERTEX
  8
0
 10
13.4116
 20
2.3209
 30
0.0
 40
0
 41
0
  0
VERTEX
  8
0
 10
13.497
 20
2.35086
 30
0.0
 40
0
 41
0
  0
VERTEX
  8
0
 10
13.5826
 20
2.38396
 30
0.0
 40
0
 41
0
  0
VERTEX
  8
0
 10
13.6662
 20
2.4215
 30
0.0
 40
0
 41
0
  0
VERTEX
  8
0
 10
13.7456
 20
2.46479
 30
0.0
 40
0
 41
0
  0
VERTEX
  8
0
 10
13.8185
 20
2.51514
 30
0.0
 40
0
 41
0
  0
VERTEX
  8
0
 10
13.8827
 20
2.57389
 30
0.0
 40
0
 41
0
  0
VERTEX
  8
0
 10
13.936
 20
2.64225
 30
0.0
 40
0
 41
0
  0
VERTEX
  8
0
 10
13.976
 20
2.72163
 30
0.0
 40
0
 41
0
  0
VERTEX
  8
0
 10
13.9968
 20
2.78993
 30
0.0
 40
0
 41
0
  0
VERTEX
  8
0
 10
14.0006
 20
2.81321
 30
0.0
 40
0
 41
0
  0
VERTEX
  8
0
 10
13.9683
 20
2.82411
 30
0.0
 40
0
 41
0
  0
VERTEX
  8
0
 10
13.8694
 20
2.85032
 30
0.0
 40
0
 41
0
  0
VERTEX
  8
0
 10
13.7277
 20
2.87983
 30
0.0
 40
0
 41
0
  0
VERTEX
  8
0
 10
13.5786
 20
2.90543
 30
0.0
 40
0
 41
0
  0
VERTEX
  8
0
 10
13.4256
 20
2.93072
 30
0.0
 40
0
 41
0
  0
VERTEX
  8
0
 10
13.2717
 20
2.95931
 30
0.0
 40
0
 41
0
  0
VERTEX
  8
0
 10
13.1206
 20
2.99479
 30
0.0
 40
0
 41
0
  0
VERTEX
  8
0
 10
12.9753
 20
3.04075
 30
0.0
 40
0
 41
0
  0
VERTEX
  8
0
 10
12.8721
 20
3.08365
 30
0.0
 40
0
 41
0
  0
VERTEX
  8
0
 10
12.8393
 20
3.10086
 30
0.0
 40
0
 41
0
  0
VERTEX
  8
0
 10
12.8579
 20
3.09304
 30
0.0
 40
0
 41
0
  0
VERTEX
  8
0
 10
12.9188
 20
3.0816
 30
0.0
 40
0
 41
0
  0
VERTEX
  8
0
 10
13.0137
 20
3.08137
 30
0.0
 40
0
 41
0
  0
VERTEX
  8
0
 10
13.1198
 20
3.09804
 30
0.0
 40
0
 41
0
  0
VERTEX
  8
0
 10
13.2332
 20
3.12929
 30
0.0
 40
0
 41
0
  0
VERTEX
  8
0
 10
13.3499
 20
3.1729
 30
0.0
 40
0
 41
0
  0
VERTEX
  8
0
 10
13.4657
 20
3.22667
 30
0.0
 40
0
 41
0
  0
VERTEX
  8
0
 10
13.5765
 20
3.28836
 30
0.0
 40
0
 41
0
  0
VERTEX
  8
0
 10
13.6783
 20
3.35562
 30
0.0
 40
0
 41
0
  0
VERTEX
  8
0
 10
13.7672
 20
3.42626
 30
0.0
 40
0
 41
0
  0
VERTEX
  8
0
 10
13.839
 20
3.4981
 30
0.0
 40
0
 41
0
  0
VERTEX
  8
0
 10
13.8896
 20
3.56879
 30
0.0
 40
0
 41
0
  0
VERTEX
  8
0
 10
13.9151
 20
3.63618
 30
0.0
 40
0
 41
0
  0
VERTEX
  8
0
 10
13.9114
 20
3.69797
 30
0.0
 40
0
 41
0
  0
VERTEX
  8
0
 10
13.8743
 20
3.7519
 30
0.0
 40
0
 41
0
  0
VERTEX
  8
0
 10
13.7999
 20
3.79579
 30
0.0
 40
0
 41
0
  0
VERTEX
  8
0
 10
13.7135
 20
3.8221
 30
0.0
 40
0
 41
0
  0
VERTEX
  8
0
 10
13.6841
 20
3.82731
 30
0.0
 40
0
 41
0
  0
VERTEX
  8
0
 10
13.6598
 20
3.84636
 30
0.0
 40
0
 41
0
  0
VERTEX
  8
0
 10
13.5856
 20
3.90147
 30
0.0
 40
0
 41
0
  0
VERTEX
  8
0
 10
13.4985
 20
3.9636
 30
0.0
 40
0
 41
0
  0
VERTEX
  8
0
 10
13.4293
 20
4.01378
 30
0.0
 40
0
 41
0
  0
VERTEX
  8
0
 10
13.3844
 20
4.05197
 30
0.0
 40
0
 41
0
  0
VERTEX
  8
0
 10
13.3707
 20
4.07824
 30
0.0
 40
0
 41
0
  0
VERTEX
  8
0
 10
13.3946
 20
4.09261
 30
0.0
 40
0
 41
0
  0
VERTEX
  8
0
 10
13.4628
 20
4.09506
 30
0.0
 40
0
 41
0
  0
VERTEX
  8
0
 10
13.5522
 20
4.08871
 30
0.0
 40
0
 41
0
  0
VERTEX
  8
0
 10
13.5819
 20
4.08556
 30
0.0
 40
0
 41
0
  0
VERTEX
  8
0
 10
13.6074
 20
4.09651
 30
0.0
 40
0
 41
0
  0
VERTEX
  8
0
 10
13.6816
 20
4.13465
 30
0.0
 40
0
 41
0
  0
VERTEX
  8
0
 10
13.7648
 20
4.1881
 30
0.0
 40
0
 41
0
  0
VERTEX
  8
0
 10
13.8318
 20
4.24474
 30
0.0
 40
0
 41
0
  0
VERTEX
  8
0
 10
13.8828
 20
4.30328
 30
0.0
 40
0
 41
0
  0
VERTEX
  8
0
 10
13.9183
 20
4.36263
 30
0.0
 40
0
 41
0
  0
VERTEX
  8
0
 10
13.9388
 20
4.42144
 30
0.0
 40
0
 41
0
  0
VERTEX
  8
0
 10
13.9444
 20
4.47857
 30
0.0
 40
0
 41
0
  0
VERTEX
  8
0
 10
13.9356
 20
4.53276
 30
0.0
 40
0
 41
0
  0
VERTEX
  8
0
 10
13.9126
 20
4.58285
 30
0.0
 40
0
 41
0
  0
VERTEX
  8
0
 10
13.8761
 20
4.62761
 30
0.0
 40
0
 41
0
  0
VERTEX
  8
0
 10
13.8263
 20
4.66575
 30
0.0
 40
0
 41
0
  0
VERTEX
  8
0
 10
13.7634
 20
4.69613
 30
0.0
 40
0
 41
0
  0
VERTEX
  8
0
 10
13.6879
 20
4.7175
 30
0.0
 40
0
 41
0
  0
VERTEX
  8
0
 10
13.6003
 20
4.72868
 30
0.0
 40
0
 41
0
  0
VERTEX
  8
0
 10
13.5007
 20
4.72846
 30
0.0
 40
0
 41
0
  0
VERTEX
  8
0
 10
13.4171
 20
4.72017
 30
0.0
 40
0
 41
0
  0
VERTEX
  8
0
 10
13.3896
 20
4.7155
 30
0.0
 40
0
 41
0
  0
VERTEX
  8
0
 10
13.3539
 20
4.72194
 30
0.0
 40
0
 41
0
  0
VERTEX
  8
0
 10
13.248
 20
4.74778
 30
0.0
 40
0
 41
0
  0
VERTEX
  8
0
 10
13.1002
 20
4.79139
 30
0.0
 40
0
 41
0
  0
VERTEX
  8
0
 10
12.9498
 20
4.84131
 30
0.0
 40
0
 41
0
  0
VERTEX
  8
0
 10
12.8003
 20
4.89264
 30
0.0
 40
0
 41
0
  0
VERTEX
  8
0
 10
12.6553
 20
4.94021
 30
0.0
 40
0
 41
0
  0
VERTEX
  8
0
 10
12.5182
 20
4.97917
 30
0.0
 40
0
 41
0
  0
VERTEX
  8
0
 10
12.3928
 20
5.00435
 30
0.0
 40
0
 41
0
  0
VERTEX
  8
0
 10
12.3099
 20
5.01199
 30
0.0
 40
0
 41
0
  0
VERTEX
  8
0
 10
12.2826
 20
5.01074
 30
0.0
 40
0
 41
0
  0
VERTEX
  8
0
 10
12.3221
 20
5.01535
 30
0.0
 40
0
 41
0
  0
VERTEX
  8
0
 10
12.4402
 20
5.03424
 30
0.0
 40
0
 41
0
  0
VERTEX
  8
0
 10
12.5487
 20
5.06168
 30
0.0
 40
0
 41
0
  0
VERTEX
  8
0
 10
12.6131
 20
5.09304
 30
0.0
 40
0
 41
0
  0
VERTEX
  8
0
 10
12.6387
 20
5.12815
 30
0.0
 40
0
 41
0
  0
VERTEX
  8
0
 10
12.6304
 20
5.16683
 30
0.0
 40
0
 41
0
  0
VERTEX
  8
0
 10
12.5934
 20
5.20904
 30
0.0
 40
0
 41
0
  0
VERTEX
  8
0
 10
12.5327
 20
5.25467
 30
0.0
 40
0
 41
0
  0
VERTEX
  8
0
 10
12.4536
 20
5.3035
 30
0.0
 40
0
 41
0
  0
VERTEX
  8
0
 10
12.3609
 20
5.35542
 30
0.0
 40
0
 41
0
  0
VERTEX
  8
0
 10
12.26
 20
5.41037
 30
0.0
 40
0
 41
0
  0
VERTEX
  8
0
 10
12.1559
 20
5.46821
 30
0.0
 40
0
 41
0
  0
VERTEX
  8
0
 10
12.0535
 20
5.52875
 30
0.0
 40
0
 41
0
  0
VERTEX
  8
0
 10
11.9583
 20
5.5919
 30
0.0
 40
0
 41
0
  0
VERTEX
  8
0
 10
11.875
 20
5.65761
 30
0.0
 40
0
 41
0
  0
VERTEX
  8
0
 10
11.809
 20
5.72564
 30
0.0
 40
0
 41
0
  0
VERTEX
  8
0
 10
11.7733
 20
5.77713
 30
0.0
 40
0
 41
0
  0
VERTEX
  8
0
 10
11.7652
 20
5.7959
 30
0.0
 40
0
 41
0
  0
VERTEX
  8
0
 10
11.79
 20
5.76297
 30
0.0
 40
0
 41
0
  0
VERTEX
  8
0
 10
11.8765
 20
5.67301
 30
0.0
 40
0
 41
0
  0
VERTEX
  8
0
 10
12
 20
5.57969
 30
0.0
 40
0
 41
0
  0
VERTEX
  8
0
 10
12.1328
 20
5.51426
 30
0.0
 40
0
 41
0
  0
VERTEX
  8
0
 10
12.2723
 20
5.47515
 30
0.0
 40
0
 41
0
  0
VERTEX
  8
0
 10
12.416
 20
5.46083
 30
0.0
 40
0
 41
0
  0
VERTEX
  8
0
 10
12.5611
 20
5.46962
 30
0.0
 40
0
 41
0
  0
VERTEX
  8
0
 10
12.705
 20
5.49989
 30
0.0
 40
0
 41
0
  0
VERTEX
  8
0
 10
12.8451
 20
5.55013
 30
0.0
 40
0
 41
0
  0
VERTEX
  8
0
 10
12.9785
 20
5.61871
 30
0.0
 40
0
 41
0
  0
VERTEX
  8
0
 10
13.1029
 20
5.704
 30
0.0
 40
0
 41
0
  0
VERTEX
  8
0
 10
13.2153
 20
5.80442
 30
0.0
 40
0
 41
0
  0
VERTEX
  8
0
 10
13.3134
 20
5.91835
 30
0.0
 40
0
 41
0
  0
VERTEX
  8
0
 10
13.3943
 20
6.04422
 30
0.0
 40
0
 41
0
  0
VERTEX
  8
0
 10
13.4553
 20
6.18039
 30
0.0
 40
0
 41
0
  0
VERTEX
  8
0
 10
13.494
 20
6.32531
 30
0.0
 40
0
 41
0
  0
VERTEX
  8
0
 10
13.5076
 20
6.43929
 30
0.0
 40
0
 41
0
  0
VERTEX
  8
0
 10
13.5077
 20
6.47726
 30
0.0
 40
0
 41
0
  0
VERTEX
  8
0
 10
13.4818
 20
6.4681
 30
0.0
 40
0
 41
0
  0
VERTEX
  8
0
 10
13.4065
 20
6.43474
 30
0.0
 40
0
 41
0
  0
VERTEX
  8
0
 10
13.277
 20
6.37543
 30
0.0
 40
0
 41
0
  0
VERTEX
  8
0
 10
13.127
 20
6.31207
 30
0.0
 40
0
 41
0
  0
VERTEX
  8
0
 10
12.964
 20
6.25732
 30
0.0
 40
0
 41
0
  0
VERTEX
  8
0
 10
12.7958
 20
6.22385
 30
0.0
 40
0
 41
0
  0
VERTEX
  8
0
 10
12.6303
 20
6.22424
 30
0.0
 40
0
 41
0
  0
VERTEX
  8
0
 10
12.475
 20
6.27121
 30
0.0
 40
0
 41
0
  0
VERTEX
  8
0
 10
12.3663
 20
6.34565
 30
0.0
 40
0
 41
0
  0
VERTEX
  8
0
 10
12.3379
 20
6.37739
 30
0.0
 40
0
 41
0
  0
VERTEX
  8
0
 10
12.3251
 20
6.38743
 30
0.0
 40
0
 41
0
  0
VERTEX
  8
0
 10
12.2926
 20
6.42475
 30
0.0
 40
0
 41
0
  0
VERTEX
  8
0
 10
12.2723
 20
6.47428
 30
0.0
 40
0
 41
0
  0
VERTEX
  8
0
 10
12.2738
 20
6.52604
 30
0.0
 40
0
 41
0
  0
VERTEX
  8
0
 10
12.2937
 20
6.58014
 30
0.0
 40
0
 41
0
  0
VERTEX
  8
0
 10
12.3287
 20
6.63661
 30
0.0
 40
0
 41
0
  0
VERTEX
  8
0
 10
12.3757
 20
6.69564
 30
0.0
 40
0
 41
0
  0
VERTEX
  8
0
 10
12.4313
 20
6.75722
 30
0.0
 40
0
 41
0
  0
VERTEX
  8
0
 10
12.4922
 20
6.82156
 30
0.0
 40
0
 41
0
  0
VERTEX
  8
0
 10
12.5554
 20
6.88861
 30
0.0
 40
0
 41
0
  0
VERTEX
  8
0
 10
12.6173
 20
6.95856
 30
0.0
 40
0
 41
0
  0
VERTEX
  8
0
 10
12.6749
 20
7.03147
 30
0.0
 40
0
 41
0
  0
VERTEX
  8
0
 10
12.7248
 20
7.10742
 30
0.0
 40
0
 41
0
  0
VERTEX
  8
0
 10
12.7638
 20
7.18653
 30
0.0
 40
0
 41
0
  0
VERTEX
  8
0
 10
12.7886
 20
7.26882
 30
0.0
 40
0
 41
0
  0
VERTEX
  8
0
 10
12.7959
 20
7.35444
 30
0.0
 40
0
 41
0
  0
VERTEX
  8
0
 10
12.7884
 20
7.42188
 30
0.0
 40
0
 41
0
  0
VERTEX
  8
0
 10
12.7825
 20
7.44342
 30
0.0
 40
0
 41
0
  0
VERTEX
  8
0
 10
12.7512
 20
7.42947
 30
0.0
 40
0
 41
0
  0
VERTEX
  8
0
 10
12.6568
 20
7.38861
 30
0.0
 40
0
 41
0
  0
VERTEX
  8
0
 10
12.5251
 20
7.33453
 30
0.0
 40
0
 41
0
  0
VERTEX
  8
0
 10
12.3883
 20
7.28267
 30
0.0
 40
0
 41
0
  0
VERTEX
  8
0
 10
12.2475
 20
7.23443
 30
0.0
 40
0
 41
0
  0
VERTEX
  8
0
 10
12.1036
 20
7.19135
 30
0.0
 40
0
 41
0
  0
VERTEX
  8
0
 10
11.9575
 20
7.15489
 30
0.0
 40
0
 41
0
  0
VERTEX
  8
0
 10
11.8103
 20
7.12657
 30
0.0
 40
0
 41
0
  0
VERTEX
  8
0
 10
11.663
 20
7.10781
 30
0.0
 40
0
 41
0
  0
VERTEX
  8
0
 10
11.5165
 20
7.10015
 30
0.0
 40
0
 41
0
  0
VERTEX
  8
0
 10
11.372
 20
7.10499
 30
0.0
 40
0
 41
0
  0
VERTEX
  8
0
 10
11.2301
 20
7.12381
 30
0.0
 40
0
 41
0
  0
VERTEX
  8
0
 10
11.0921
 20
7.15815
 30
0.0
 40
0
 41
0
  0
VERTEX
  8
0
 10
10.9589
 20
7.20942
 30
0.0
 40
0
 41
0
  0
VERTEX
  8
0
 10
10.8315
 20
7.27919
 30
0.0
 40
0
 41
0
  0
VERTEX
  8
0
 10
10.7109
 20
7.36882
 30
0.0
 40
0
 41
0
  0
VERTEX
  8
0
 10
10.6242
 20
7.45036
 30
0.0
 40
0
 41
0
  0
VERTEX
  8
0
 10
10.598
 20
7.47982
 30
0.0
 40
0
 41
0
  0
VERTEX
  8
0
 10
10.6283
 20
7.47444
 30
0.0
 40
0
 41
0
  0
VERTEX
  8
0
 10
10.7199
 20
7.46208
 30
0.0
 40
0
 41
0
  0
VERTEX
  8
0
 10
10.8677
 20
7.44715
 30
0.0
 40
0
 41
0
  0
VERTEX
  8
0
 10
11.0247
 20
7.43728
 30
0.0
 40
0
 41
0
  0
VERTEX
  8
0
 10
11.1748
 20
7.43463
 30
0.0
 40
0
 41
0
  0
VERTEX
  8
0
 10
11.3014
 20
7.44135
 30
0.0
 40
0
 41
0
  0
VERTEX
  8
0
 10
11.3882
 20
7.45964
 30
0.0
 40
0
 41
0
  0
VERTEX
  8
0
 10
11.4187
 20
7.4916
 30
0.0
 40
0
 41
0
  0
VERTEX
  8
0
 10
11.3894
 20
7.53088
 30
0.0
 40
0
 41
0
  0
VERTEX
  8
0
 10
11.3767
 20
7.53944
 30
0.0
 40
0
 41
0
  0
VERTEX
  8
0
 10
11.4018
 20
7.52854
 30
0.0
 40
0
 41
0
  0
VERTEX
  8
0
 10
11.4824
 20
7.50803
 30
0.0
 40
0
 41
0
  0
VERTEX
  8
0
 10
11.5881
 20
7.50256
 30
0.0
 40
0
 41
0
  0
VERTEX
  8
0
 10
11.6913
 20
7.51932
 30
0.0
 40
0
 41
0
  0
VERTEX
  8
0
 10
11.7896
 20
7.55464
 30
0.0
 40
0
 41
0
  0
VERTEX
  8
0
 10
11.8805
 20
7.60482
 30
0.0
 40
0
 41
0
  0
VERTEX
  8
0
 10
11.9615
 20
7.66618
 30
0.0
 40
0
 41
0
  0
VERTEX
  8
0
 10
12.0304
 20
7.73503
 30
0.0
 40
0
 41
0
  0
VERTEX
  8
0
 10
12.0844
 20
7.80761
 30
0.0
 40
0
 41
0
  0
VERTEX
  8
0
 10
12.1213
 20
7.88032
 30
0.0
 40
0
 41
0
  0
VERTEX
  8
0
 10
12.1385
 20
7.94937
 30
0.0
 40
0
 41
0
  0
VERTEX
  8
0
 10
12.1337
 20
8.01118
 30
0.0
 40
0
 41
0
  0
VERTEX
  8
0
 10
12.1043
 20
8.06196
 30
0.0
 40
0
 41
0
  0
VERTEX
  8
0
 10
12.0479
 20
8.0981
 30
0.0
 40
0
 41
0
  0
VERTEX
  8
0
 10
11.9621
 20
8.11583
 30
0.0
 40
0
 41
0
  0
VERTEX
  8
0
 10
11.8443
 20
8.11149
 30
0.0
 40
0
 41
0
  0
VERTEX
  8
0
 10
11.7297
 20
8.0911
 30
0.0
 40
0
 41
0
  0
VERTEX
  8
0
 10
11.6923
 20
8.08132
 30
0.0
 40
0
 41
0
  0
VERTEX
  8
0
 10
11.666
 20
8.08008
 30
0.0
 40
0
 41
0
  0
VERTEX
  8
0
 10
11.5867
 20
8.08485
 30
0.0
 40
0
 41
0
  0
VERTEX
  8
0
 10
11.4765
 20
8.104
 30
0.0
 40
0
 41
0
  0
VERTEX
  8
0
 10
11.363
 20
8.13687
 30
0.0
 40
0
 41
0
  0
VERTEX
  8
0
 10
11.2478
 20
8.18153
 30
0.0
 40
0
 41
0
  0
VERTEX
  8
0
 10
11.1323
 20
8.23594
 30
0.0
 40
0
 41
0
  0
VERTEX
  8
0
 10
11.0181
 20
8.29829
 30
0.0
 40
0
 41
0
  0
VERTEX
  8
0
 10
10.9065
 20
8.36649
 30
0.0
 40
0
 41
0
  0
VERTEX
  8
0
 10
10.7992
 20
8.43864
 30
0.0
 40
0
 41
0
  0
VERTEX
  8
0
 10
10.6974
 20
8.51275
 30
0.0
 40
0
 41
0
  0
VERTEX
  8
0
 10
10.6029
 20
8.58697
 30
0.0
 40
0
 41
0
  0
VERTEX
  8
0
 10
10.5168
 20
8.65924
 30
0.0
 40
0
 41
0
  0
VERTEX
  8
0
 10
10.4409
 20
8.7276
 30
0.0
 40
0
 41
0
  0
VERTEX
  8
0
 10
10.3765
 20
8.79021
 30
0.0
 40
0
 41
0
  0
VERTEX
  8
0
 10
10.3251
 20
8.845
 30
0.0
 40
0
 41
0
  0
VERTEX
  8
0
 10
10.2883
 20
8.89003
 30
0.0
 40
0
 41
0
  0
VERTEX
  8
0
 10
10.2715
 20
8.91456
 30
0.0
 40
0
 41
0
  0
VERTEX
  8
0
 10
10.2674
 20
8.92339
 30
0.0
 40
0
 41
0
  0
VERTEX
  8
0
 10
10.3041
 20
8.92344
 30
0.0
 40
0
 41
0
  0
VERTEX
  8
0
 10
10.4142
 20
8.92876
 30
0.0
 40
0
 41
0
  0
VERTEX
  8
0
 10
10.5054
 20
8.94358
 30
0.0
 40
0
 41
0
  0
VERTEX
  8
0
 10
10.5486
 20
8.96674
 30
0.0
 40
0
 41
0
  0
VERTEX
  8
0
 10
10.5513
 20
8.99701
 30
0.0
 40
0
 41
0
  0
VERTEX
  8
0
 10
10.5211
 20
9.03321
 30
0.0
 40
0
 41
0
  0
VERTEX
  8
0
 10
10.4656
 20
9.07406
 30
0.0
 40
0
 41
0
  0
VERTEX
  8
0
 10
10.3923
 20
9.11843
 30
0.0
 40
0
 41
0
  0
VERTEX
  8
0
 10
10.3087
 20
9.16515
 30
0.0
 40
0
 41
0
  0
VERTEX
  8
0
 10
10.2224
 20
9.213
 30
0.0
 40
0
 41
0
  0
VERTEX
  8
0
 10
10.1409
 20
9.26074
 30
0.0
 40
0
 41
0
  0
VERTEX
  8
0
 10
10.0719
 20
9.30718
 30
0.0
 40
0
 41
0
  0
VERTEX
  8
0
 10
10.0228
 20
9.35113
 30
0.0
 40
0
 41
0
  0
VERTEX
  8
0
 10
10.0012
 20
9.39144
 30
0.0
 40
0
 41
0
  0
VERTEX
  8
0
 10
10.0147
 20
9.42681
 30
0.0
 40
0
 41
0
  0
VERTEX
  8
0
 10
10.0707
 20
9.45611
 30
0.0
 40
0
 41
0
  0
VERTEX
  8
0
 10
10.1501
 20
9.47456
 30
0.0
 40
0
 41
0
  0
VERTEX
  8
0
 10
10.1769
 20
9.47814
 30
0.0
 40
0
 41
0
  0
VERTEX
  8
0
 10
10.1661
 20
9.49403
 30
0.0
 40
0
 41
0
  0
VERTEX
  8
0
 10
10.1331
 20
9.54135
 30
0.0
 40
0
 41
0
  0
VERTEX
  8
0
 10
10.0851
 20
9.60851
 30
0.0
 40
0
 41
0
  0
VERTEX
  8
0
 10
10.0349
 20
9.67763
 30
0.0
 40
0
 41
0
  0
VERTEX
  8
0
 10
9.98449
 20
9.74664
 30
0.0
 40
0
 41
0
  0
VERTEX
  8
0
 10
9.9356
 20
9.81342
 30
0.0
 40
0
 41
0
  0
VERTEX
  8
0
 10
9.89019
 20
9.87592
 30
0.0
 40
0
 41
0
  0
VERTEX
  8
0
 10
9.85015
 20
9.93201
 30
0.0
 40
0
 41
0
  0
VERTEX
  8
0
 10
9.81739
 20
9.97971
 30
0.0
 40
0
 41
0
  0
VERTEX
  8
0
 10
9.79378
 20
10.0169
 30
0.0
 40
0
 41
0
  0
VERTEX
  8
0
 10
9.78125
 20
10.0414
 30
0.0
 40
0
 41
0
  0
VERTEX
  8
0
 10
9.78168
 20
10.0513
 30
0.0
 40
0
 41
0
  0
VERTEX
  8
0
 10
9.79699
 20
10.0444
 30
0.0
 40
0
 41
0
  0
VERTEX
  8
0
 10
9.829
 20
10.0187
 30
0.0
 40
0
 41
0
  0
VERTEX
  8
0
 10
9.87972
 20
9.972
 30
0.0
 40
0
 41
0
  0
VERTEX
  8
0
 10
9.95096
 20
9.9024
 30
0.0
 40
0
 41
0
  0
VERTEX
  8
0
 10
10.0214
 20
9.83143
 30
0.0
 40
0
 41
0
  0
VERTEX
  8
0
 10
10.0447
 20
9.80761
 30
0.0
 40
0
 41
0
  0
VERTEX
  8
0
 10
10.906
 20
9.80761
 30
0.0
 40
0
 41
0
  0
VERTEX
  8
0
 10
10.8937
 20
9.82476
 30
0.0
 40
0
 41
0
  0
VERTEX
  8
0
 10
10.8539
 20
9.87403
 30
0.0
 40
0
 41
0
  0
VERTEX
  8
0
 10
10.7969
 20
9.93713
 30
0.0
 40
0
 41
0
  0
VERTEX
  8
0
 10
10.7372
 20
9.99675
 30
0.0
 40
0
 41
0
  0
VERTEX
  8
0
 10
10.6771
 20
10.0527
 30
0.0
 40
0
 41
0
  0
VERTEX
  8
0
 10
10.6189
 20
10.1047
 30
0.0
 40
0
 41
0
  0
VERTEX
  8
0
 10
10.5649
 20
10.1526
 30
0.0
 40
0
 41
0
  0
VERTEX
  8
0
 10
10.5174
 20
10.1962
 30
0.0
 40
0
 41
0
  0
VERTEX
  8
0
 10
10.4785
 20
10.2353
 30
0.0
 40
0
 41
0
  0
VERTEX
  8
0
 10
10.4507
 20
10.2696
 30
0.0
 40
0
 41
0
  0
VERTEX
  8
0
 10
10.4362
 20
10.299
 30
0.0
 40
0
 41
0
  0
VERTEX
  8
0
 10
10.4372
 20
10.3233
 30
0.0
 40
0
 41
0
  0
VERTEX
  8
0
 10
10.4562
 20
10.3422
 30
0.0
 40
0
 41
0
  0
VERTEX
  8
0
 10
10.4952
 20
10.3556
 30
0.0
 40
0
 41
0
  0
VERTEX
  8
0
 10
10.5566
 20
10.3632
 30
0.0
 40
0
 41
0
  0
VERTEX
  8
0
 10
10.6427
 20
10.3648
 30
0.0
 40
0
 41
0
  0
VERTEX
  8
0
 10
10.7276
 20
10.3619
 30
0.0
 40
0
 41
0
  0
VERTEX
  8
0
 10
10.7559
 20
10.3602
 30
0.0
 40
0
 41
0
  0
VERTEX
  8
0
 10
10.772
 20
10.362
 30
0.0
 40
0
 41
0
  0
VERTEX
  8
0
 10
10.8206
 20
10.3682
 30
0.0
 40
0
 41
0
  0
VERTEX
  8
0
 10
10.8892
 20
10.3785
 30
0.0
 40
0
 41
0
  0
VERTEX
  8
0
 10
10.9594
 20
10.3911
 30
0.0
 40
0
 41
0
  0
VERTEX
  8
0
 10
11.0291
 20
10.4059
 30
0.0
 40
0
 41
0
  0
VERTEX
  8
0
 10
11.0962
 20
10.4233
 30
0.0
 40
0
 41
0
  0
VERTEX
  8
0
 10
11.1587
 20
10.443
 30
0.0
 40
0
 41
0
  0
VERTEX
  8
0
 10
11.2143
 20
10.4654
 30
0.0
 40
0
 41
0
  0
VERTEX
  8
0
 10
11.2608
 20
10.4902
 30
0.0
 40
0
 41
0
  0
VERTEX
  8
0
 10
11.2964
 20
10.5177
 30
0.0
 40
0
 41
0
  0
VERTEX
  8
0
 10
11.3187
 20
10.548
 30
0.0
 40
0
 41
0
  0
VERTEX
  8
0
 10
11.3256
 20
10.5809
 30
0.0
 40
0
 41
0
  0
VERTEX
  8
0
 10
11.3151
 20
10.6166
 30
0.0
 40
0
 41
0
  0
VERTEX
  8
0
 10
11.2849
 20
10.6552
 30
0.0
 40
0
 41
0
  0
VERTEX
  8
0
 10
11.233
 20
10.6967
 30
0.0
 40
0
 41
0
  0
VERTEX
  8
0
 10
11.1572
 20
10.7412
 30
0.0
 40
0
 41
0
  0
VERTEX
  8
0
 10
11.0812
 20
10.7777
 30
0.0
 40
0
 41
0
  0
VERTEX
  8
0
 10
11.0554
 20
10.7886
 30
0.0
 40
0
 41
0
  0
VERTEX
  8
0
 10
11.0343
 20
10.8164
 30
0.0
 40
0
 41
0
  0
VERTEX
  8
0
 10
10.9617
 20
10.8928
 30
0.0
 40
0
 41
0
  0
VERTEX
  8
0
 10
10.841
 20
10.9987
 30
0.0
 40
0
 41
0
  0
VERTEX
  8
0
 10
10.7026
 20
11.1024
 30
0.0
 40
0
 41
0
  0
VERTEX
  8
0
 10
10.5555
 20
11.1998
 30
0.0
 40
0
 41
0
  0
VERTEX
  8
0
 10
10.409
 20
11.2869
 30
0.0
 40
0
 41
0
  0
VERTEX
  8
0
 10
10.272
 20
11.3597
 30
0.0
 40
0
 41
0
  0
VERTEX
  8
0
 10
10.154
 20
11.4144
 30
0.0
 40
0
 41
0
  0
VERTEX
  8
0
 10
10.0869
 20
11.4405
 30
0.0
 40
0
 41
0
  0
VERTEX
  8
0
 10
10.0639
 20
11.4467
 30
0.0
 40
0
 41
0
  0
VERTEX
  8
0
 10
10.0921
 20
11.4471
 30
0.0
 40
0
 41
0
  0
VERTEX
  8
0
 10
10.1767
 20
11.4534
 30
0.0
 40
0
 41
0
  0
VERTEX
  8
0
 10
10.2452
 20
11.4691
 30
0.0
 40
0
 41
0
  0
VERTEX
  8
0
 10
10.2758
 20
11.4922
 30
0.0
 40
0
 41
0
  0
VERTEX
  8
0
 10
10.2751
 20
11.5215
 30
0.0
 40
0
 41
0
  0
VERTEX
  8
0
 10
10.2493
 20
11.5554
 30
0.0
 40
0
 41
0
  0
VERTEX
  8
0
 10
10.205
 20
11.5924
 30
0.0
 40
0
 41
0
  0
VERTEX
  8
0
 10
10.1486
 20
11.6311
 30
0.0
 40
0
 41
0
  0
VERTEX
  8
0
 10
10.0865
 20
11.67
 30
0.0
 40
0
 41
0
  0
VERTEX
  8
0
 10
10.0252
 20
11.7077
 30
0.0
 40
0
 41
0
  0
VERTEX
  8
0
 10
9.97097
 20
11.7427
 30
0.0
 40
0
 41
0
  0
VERTEX
  8
0
 10
9.93044
 20
11.7735
 30
0.0
 40
0
 41
0
  0
VERTEX
  8
0
 10
9.90994
 20
11.7988
 30
0.0
 40
0
 41
0
  0
VERTEX
  8
0
 10
9.91596
 20
11.8169
 30
0.0
 40
0
 41
0
  0
VERTEX
  8
0
 10
9.95492
 20
11.8265
 30
0.0
 40
0
 41
0
  0
VERTEX
  8
0
 10
10.0332
 20
11.8261
 30
0.0
 40
0
 41
0
  0
VERTEX
  8
0
 10
10.1263
 20
11.8179
 30
0.0
 40
0
 41
0
  0
VERTEX
  8
0
 10
10.1573
 20
11.8141
 30
0.0
 40
0
 41
0
  0
VERTEX
  8
0
 10
10.1788
 20
11.8146
 30
0.0
 40
0
 41
0
  0
VERTEX
  8
0
 10
10.2434
 20
11.8209
 30
0.0
 40
0
 41
0
  0
VERTEX
  8
0
 10
10.3265
 20
11.8367
 30
0.0
 40
0
 41
0
  0
VERTEX
  8
0
 10
10.4049
 20
11.8601
 30
0.0
 40
0
 41
0
  0
VERTEX
  8
0
 10
10.4773
 20
11.8897
 30
0.0
 40
0
 41
0
  0
VERTEX
  8
0
 10
10.542
 20
11.924
 30
0.0
 40
0
 41
0
  0
VERTEX
  8
0
 10
10.5976
 20
11.9616
 30
0.0
 40
0
 41
0
  0
VERTEX
  8
0
 10
10.6427
 20
12.0012
 30
0.0
 40
0
 41
0
  0
VERTEX
  8
0
 10
10.6757
 20
12.0412
 30
0.0
 40
0
 41
0
  0
VERTEX
  8
0
 10
10.6953
 20
12.0803
 30
0.0
 40
0
 41
0
  0
VERTEX
  8
0
 10
10.6998
 20
12.117
 30
0.0
 40
0
 41
0
  0
VERTEX
  8
0
 10
10.6878
 20
12.15
 30
0.0
 40
0
 41
0
  0
VERTEX
  8
0
 10
10.6578
 20
12.1776
 30
0.0
 40
0
 41
0
  0
VERTEX
  8
0
 10
10.6083
 20
12.1987
 30
0.0
 40
0
 41
0
  0
VERTEX
  8
0
 10
10.5379
 20
12.2116
 30
0.0
 40
0
 41
0
  0
VERTEX
  8
0
 10
10.4451
 20
12.2151
 30
0.0
 40
0
 41
0
  0
VERTEX
  8
0
 10
10.3574
 20
12.2107
 30
0.0
 40
0
 41
0
  0
VERTEX
  8
0
 10
10.3283
 20
12.2076
 30
0.0
 40
0
 41
0
  0
VERTEX
  8
0
 10
10.3121
 20
12.2109
 30
0.0
 40
0
 41
0
  0
VERTEX
  8
0
 10
10.2636
 20
12.2212
 30
0.0
 40
0
 41
0
  0
VERTEX
  8
0
 10
10.1902
 20
12.2378
 30
0.0
 40
0
 41
0
  0
VERTEX
  8
0
 10
10.1113
 20
12.257
 30
0.0
 40
0
 41
0
  0
VERTEX
  8
0
 10
10.0299
 20
12.2783
 30
0.0
 40
0
 41
0
  0
VERTEX
  8
0
 10
9.94911
 20
12.3011
 30
0.0
 40
0
 41
0
  0
VERTEX
  8
0
 10
9.8719
 20
12.3249
 30
0.0
 40
0
 41
0
  0
VERTEX
  8
0
 10
9.80137
 20
12.3491
 30
0.0
 40
0
 41
0
  0
VERTEX
  8
0
 10
9.74056
 20
12.3733
 30
0.0
 40
0
 41
0
  0
VERTEX
  8
0
 10
9.69254
 20
12.3969
 30
0.0
 40
0
 41
0
  0
VERTEX
  8
0
 10
9.66032
 20
12.4194
 30
0.0
 40
0
 41
0
  0
VERTEX
  8
0
 10
9.64697
 20
12.4403
 30
0.0
 40
0
 41
0
  0
VERTEX
  8
0
 10
9.65554
 20
12.459
 30
0.0
 40
0
 41
0
  0
VERTEX
  8
0
 10
9.68907
 20
12.4749
 30
0.0
 40
0
 41
0
  0
VERTEX
  8
0
 10
9.7506
 20
12.4877
 30
0.0
 40
0
 41
0
  0
VERTEX
  8
0
 10
9.84321
 20
12.4967
 30
0.0
 40
0
 41
0
  0
VERTEX
  8
0
 10
9.93826
 20
12.5009
 30
0.0
 40
0
 41
0
  0
VERTEX
  8
0
 10
9.97
 20
12.5014
 30
0.0
 40
0
 41
0
  0
VERTEX
  8
0
 10
9.99881
 20
12.5096
 30
0.0
 40
0
 41
0
  0
VERTEX
  8
0
 10
10.0834
 20
12.5408
 30
0.0
 40
0
 41
0
  0
VERTEX
  8
0
 10
10.1827
 20
12.5892
 30
0.0
 40
0
 41
0
  0
VERTEX
  8
0
 10
10.2596
 20
12.641
 30
0.0
 40
0
 41
0
  0
VERTEX
  8
0
 10
10.3058
 20
12.6909
 30
0.0
 40
0
 41
0
  0
VERTEX
  8
0
 10
10.3132
 20
12.7333
 30
0.0
 40
0
 41
0
  0
VERTEX
  8
0
 10
10.2734
 20
12.763
 30
0.0
 40
0
 41
0
  0
VERTEX
  8
0
 10
10.1784
 20
12.7743
 30
0.0
 40
0
 41
0
  0
VERTEX
  8
0
 10
10.0592
 20
12.7671
 30
0.0
 40
0
 41
0
  0
VERTEX
  8
0
 10
10.02
 20
12.7618
 30
0.0
 40
0
 41
0
  0
VERTEX
  8
0
 10
10.0057
 20
12.7586
 30
0.0
 40
0
 41
0
  0
VERTEX
  8
0
 10
9.96143
 20
12.7554
 30
0.0
 40
0
 41
0
  0
VERTEX
  8
0
 10
9.89128
 20
12.7589
 30
0.0
 40
0
 41
0
  0
VERTEX
  8
0
 10
9.81168
 20
12.7711
 30
0.0
 40
0
 41
0
  0
VERTEX
  8
0
 10
9.72499
 20
12.7907
 30
0.0
 40
0
 41
0
  0
VERTEX
  8
0
 10
9.63346
 20
12.8164
 30
0.0
 40
0
 41
0
  0
VERTEX
  8
0
 10
9.53933
 20
12.847
 30
0.0
 40
0
 41
0
  0
VERTEX
  8
0
 10
9.44488
 20
12.8812
 30
0.0
 40
0
 41
0
  0
VERTEX
  8
0
 10
9.35237
 20
12.9177
 30
0.0
 40
0
 41
0
  0
VERTEX
  8
0
 10
9.26406
 20
12.9552
 30
0.0
 40
0
 41
0
  0
VERTEX
  8
0
 10
9.18224
 20
12.9926
 30
0.0
 40
0
 41
0
  0
VERTEX
  8
0
 10
9.10915
 20
13.0284
 30
0.0
 40
0
 41
0
  0
VERTEX
  8
0
 10
9.0471
 20
13.0614
 30
0.0
 40
0
 41
0
  0
VERTEX
  8
0
 10
8.99832
 20
13.0904
 30
0.0
 40
0
 41
0
  0
VERTEX
  8
0
 10
8.96506
 20
13.1141
 30
0.0
 40
0
 41
0
  0
VERTEX
  8
0
 10
8.94965
 20
13.1311
 30
0.0
 40
0
 41
0
  0
VERTEX
  8
0
 10
8.95258
 20
13.1398
 30
0.0
 40
0
 41
0
  0
VERTEX
  8
0
 10
8.95432
 20
13.1403
 30
0.0
 40
0
 41
0
  0
VERTEX
  8
0
 10
8.98014
 20
13.1315
 30
0.0
 40
0
 41
0
  0
VERTEX
  8
0
 10
9.05871
 20
13.1081
 30
0.0
 40
0
 41
0
  0
VERTEX
  8
0
 10
9.14746
 20
13.0874
 30
0.0
 40
0
 41
0
  0
VERTEX
  8
0
 10
9.22265
 20
13.0771
 30
0.0
 40
0
 41
0
  0
VERTEX
  8
0
 10
9.28657
 20
13.076
 30
0.0
 40
0
 41
0
  0
VERTEX
  8
0
 10
9.34131
 20
13.0827
 30
0.0
 40
0
 41
0
  0
VERTEX
  8
0
 10
9.38911
 20
13.0962
 30
0.0
 40
0
 41
0
  0
VERTEX
  8
0
 10
9.43218
 20
13.1152
 30
0.0
 40
0
 41
0
  0
VERTEX
  8
0
 10
9.4726
 20
13.1385
 30
0.0
 40
0
 41
0
  0
VERTEX
  8
0
 10
9.51269
 20
13.1647
 30
0.0
 40
0
 41
0
  0
VERTEX
  8
0
 10
9.55458
 20
13.1929
 30
0.0
 40
0
 41
0
  0
VERTEX
  8
0
 10
9.60042
 20
13.2216
 30
0.0
 40
0
 41
0
  0
VERTEX
  8
0
 10
9.6524
 20
13.2497
 30
0.0
 40
0
 41
0
  0
VERTEX
  8
0
 10
9.71278
 20
13.276
 30
0.0
 40
0
 41
0
  0
VERTEX
  8
0
 10
9.78369
 20
13.2993
 30
0.0
 40
0
 41
0
  0
VERTEX
  8
0
 10
9.86729
 20
13.3183
 30
0.0
 40
0
 41
0
  0
VERTEX
  8
0
 10
9.94114
 20
13.3294
 30
0.0
 40
0
 41
0
  0
VERTEX
  8
0
 10
9.96588
 20
13.3318
 30
0.0
 40
0
 41
0
  0
VERTEX
  8
0
 10
9.912
 20
13.3469
 30
0.0
 40
0
 41
0
  0
VERTEX
  8
0
 10
9.75369
 20
13.4037
 30
0.0
 40
0
 41
0
  0
VERTEX
  8
0
 10
9.54606
 20
13.4994
 30
0.0
 40
0
 41
0
  0
VERTEX
  8
0
 10
9.35026
 20
13.6187
 30
0.0
 40
0
 41
0
  0
VERTEX
  8
0
 10
9.17356
 20
13.7611
 30
0.0
 40
0
 41
0
  0
VERTEX
  8
0
 10
9.02317
 20
13.9263
 30
0.0
 40
0
 41
0
  0
VERTEX
  8
0
 10
8.90631
 20
14.1138
 30
0.0
 40
0
 41
0
  0
VERTEX
  8
0
 10
8.83035
 20
14.3231
 30
0.0
 40
0
 41
0
  0
VERTEX
  8
0
 10
8.80279
 20
14.4962
 30
0.0
 40
0
 41
0
  0
VERTEX
  8
0
 10
8.80246
 20
14.554
 30
0.0
 40
0
 41
0
  0
VERTEX
  8
0
 10
8.81907
 20
14.5412
 30
0.0
 40
0
 41
0
  0
VERTEX
  8
0
 10
8.87771
 20
14.5147
 30
0.0
 40
0
 41
0
  0
VERTEX
  8
0
 10
8.96832
 20
14.4964
 30
0.0
 40
0
 41
0
  0
VERTEX
  8
0
 10
9.06999
 20
14.4964
 30
0.0
 40
0
 41
0
  0
VERTEX
  8
0
 10
9.17839
 20
14.5122
 30
0.0
 40
0
 41
0
  0
VERTEX
  8
0
 10
9.28933
 20
14.541
 30
0.0
 40
0
 41
0
  0
VERTEX
  8
0
 10
9.39854
 20
14.5803
 30
0.0
 40
0
 41
0
  0
VERTEX
  8
0
 10
9.50174
 20
14.6275
 30
0.0
 40
0
 41
0
  0
VERTEX
  8
0
 10
9.59462
 20
14.6799
 30
0.0
 40
0
 41
0
  0
VERTEX
  8
0
 10
9.67301
 20
14.7347
 30
0.0
 40
0
 41
0
  0
VERTEX
  8
0
 10
9.73258
 20
14.7897
 30
0.0
 40
0
 41
0
  0
VERTEX
  8
0
 10
9.7691
 20
14.8421
 30
0.0
 40
0
 41
0
  0
VERTEX
  8
0
 10
9.77832
 20
14.8892
 30
0.0
 40
0
 41
0
  0
VERTEX
  8
0
 10
9.75597
 20
14.9282
 30
0.0
 40
0
 41
0
  0
VERTEX
  8
0
 10
9.69769
 20
14.9568
 30
0.0
 40
0
 41
0
  0
VERTEX
  8
0
 10
9.59939
 20
14.9724
 30
0.0
 40
0
 41
0
  0
VERTEX
  8
0
 10
9.49224
 20
14.974
 30
0.0
 40
0
 41
0
  0
VERTEX
  8
0
 10
9.45671
 20
14.9721
 30
0.0
 40
0
 41
0
  0
VERTEX
  8
0
 10
9.40944
 20
14.9686
 30
0.0
 40
0
 41
0
  0
VERTEX
  8
0
 10
9.26719
 20
14.9643
 30
0.0
 40
0
 41
0
  0
VERTEX
  8
0
 10
9.14985
 20
14.9737
 30
0.0
 40
0
 41
0
  0
VERTEX
  8
0
 10
9.08968
 20
14.9985
 30
0.0
 40
0
 41
0
  0
VERTEX
  8
0
 10
9.07189
 20
15.0367
 30
0.0
 40
0
 41
0
  0
VERTEX
  8
0
 10
9.08149
 20
15.0865
 30
0.0
 40
0
 41
0
  0
VERTEX
  8
0
 10
9.10368
 20
15.1464
 30
0.0
 40
0
 41
0
  0
VERTEX
  8
0
 10
9.12354
 20
15.214
 30
0.0
 40
0
 41
0
  0
VERTEX
  8
0
 10
9.12879
 20
15.2697
 30
0.0
 40
0
 41
0
  0
VERTEX
  8
0
 10
9.12625
 20
15.2876
 30
0.0
 40
0
 41
0
  0
VERTEX
  8
0
 10
9.10742
 20
15.2872
 30
0.0
 40
0
 41
0
  0
VERTEX
  8
0
 10
9.05083
 20
15.2949
 30
0.0
 40
0
 41
0
  0
VERTEX
  8
0
 10
8.95785
 20
15.3186
 30
0.0
 40
0
 41
0
  0
VERTEX
  8
0
 10
8.85157
 20
15.3563
 30
0.0
 40
0
 41
0
  0
VERTEX
  8
0
 10
8.73639
 20
15.4058
 30
0.0
 40
0
 41
0
  0
VERTEX
  8
0
 10
8.61649
 20
15.4649
 30
0.0
 40
0
 41
0
  0
VERTEX
  8
0
 10
8.49621
 20
15.5313
 30
0.0
 40
0
 41
0
  0
VERTEX
  8
0
 10
8.37983
 20
15.6026
 30
0.0
 40
0
 41
0
  0
VERTEX
  8
0
 10
8.27171
 20
15.6768
 30
0.0
 40
0
 41
0
  0
VERTEX
  8
0
 10
8.17611
 20
15.7515
 30
0.0
 40
0
 41
0
  0
VERTEX
  8
0
 10
8.09728
 20
15.8243
 30
0.0
 40
0
 41
0
  0
VERTEX
  8
0
 10
8.03961
 20
15.8931
 30
0.0
 40
0
 41
0
  0
VERTEX
  8
0
 10
8.00738
 20
15.9556
 30
0.0
 40
0
 41
0
  0
VERTEX
  8
0
 10
8.00483
 20
16.0094
 30
0.0
 40
0
 41
0
  0
VERTEX
  8
0
 10
8.03635
 20
16.0525
 30
0.0
 40
0
 41
0
  0
VERTEX
  8
0
 10
8.10612
 20
16.0824
 30
0.0
 40
0
 41
0
  0
VERTEX
  8
0
 10
8.19037
 20
16.0956
 30
0.0
 40
0
 41
0
  0
VERTEX
  8
0
 10
8.21858
 20
16.0968
 30
0.0
 40
0
 41
0
  0
VERTEX
  8
0
 10
8.25564
 20
16.0915
 30
0.0
 40
0
 41
0
  0
VERTEX
  8
0
 10
8.36751
 20
16.0792
 30
0.0
 40
0
 41
0
  0
VERTEX
  8
0
 10
8.46881
 20
16.075
 30
0.0
 40
0
 41
0
  0
VERTEX
  8
0
 10
8.52783
 20
16.0831
 30
0.0
 40
0
 41
0
  0
VERTEX
  8
0
 10
8.54997
 20
16.1019
 30
0.0
 40
0
 41
0
  0
VERTEX
  8
0
 10
8.54064
 20
16.13
 30
0.0
 40
0
 41
0
  0
VERTEX
  8
0
 10
8.50515
 20
16.1661
 30
0.0
 40
0
 41
0
  0
VERTEX
  8
0
 10
8.44894
 20
16.2085
 30
0.0
 40
0
 41
0
  0
VERTEX
  8
0
 10
8.37739
 20
16.2558
 30
0.0
 40
0
 41
0
  0
VERTEX
  8
0
 10
8.29585
 20
16.3068
 30
0.0
 40
0
 41
0
  0
VERTEX
  8
0
 10
8.20969
 20
16.3599
 30
0.0
 40
0
 41
0
  0
VERTEX
  8
0
 10
8.12435
 20
16.4136
 30
0.0
 40
0
 41
0
  0
VERTEX
  8
0
 10
8.04519
 20
16.4667
 30
0.0
 40
0
 41
0
  0
VERTEX
  8
0
 10
7.97754
 20
16.5174
 30
0.0
 40
0
 41
0
  0
VERTEX
  8
0
 10
7.92686
 20
16.5644
 30
0.0
 40
0
 41
0
  0
VERTEX
  8
0
 10
7.89844
 20
16.6065
 30
0.0
 40
0
 41
0
  0
VERTEX
  8
0
 10
7.89438
 20
16.6349
 30
0.0
 40
0
 41
0
  0
VERTEX
  8
0
 10
7.89779
 20
16.6421
 30
0.0
 40
0
 41
0
  0
VERTEX
  8
0
 10
7.91331
 20
16.6406
 30
0.0
 40
0
 41
0
  0
VERTEX
  8
0
 10
7.96024
 20
16.6392
 30
0.0
 40
0
 41
0
  0
VERTEX
  8
0
 10
8.02458
 20
16.6428
 30
0.0
 40
0
 41
0
  0
VERTEX
  8
0
 10
8.08892
 20
16.6521
 30
0.0
 40
0
 41
0
  0
VERTEX
  8
0
 10
8.15153
 20
16.6664
 30
0.0
 40
0
 41
0
  0
VERTEX
  8
0
 10
8.21056
 20
16.6849
 30
0.0
 40
0
 41
0
  0
VERTEX
  8
0
 10
8.26411
 20
16.7069
 30
0.0
 40
0
 41
0
  0
VERTEX
  8
0
 10
8.31044
 20
16.7319
 30
0.0
 40
0
 41
0
  0
VERTEX
  8
0
 10
8.34771
 20
16.759
 30
0.0
 40
0
 41
0
  0
VERTEX
  8
0
 10
8.37408
 20
16.7875
 30
0.0
 40
0
 41
0
  0
VERTEX
  8
0
 10
8.38775
 20
16.8165
 30
0.0
 40
0
 41
0
  0
VERTEX
  8
0
 10
8.38687
 20
16.8457
 30
0.0
 40
0
 41
0
  0
VERTEX
  8
0
 10
8.36962
 20
16.874
 30
0.0
 40
0
 41
0
  0
VERTEX
  8
0
 10
8.33425
 20
16.9008
 30
0.0
 40
0
 41
0
  0
VERTEX
  8
0
 10
8.27881
 20
16.9254
 30
0.0
 40
0
 41
0
  0
VERTEX
  8
0
 10
8.20156
 20
16.9472
 30
0.0
 40
0
 41
0
  0
VERTEX
  8
0
 10
8.12603
 20
16.9617
 30
0.0
 40
0
 41
0
  0
VERTEX
  8
0
 10
8.10069
 20
16.9653
 30
0.0
 40
0
 41
0
  0
VERTEX
  8
0
 10
8.08735
 20
16.9747
 30
0.0
 40
0
 41
0
  0
VERTEX
  8
0
 10
8.04889
 20
17.005
 30
0.0
 40
0
 41
0
  0
VERTEX
  8
0
 10
7.9866
 20
17.0586
 30
0.0
 40
0
 41
0
  0
VERTEX
  8
0
 10
7.91635
 20
17.1238
 30
0.0
 40
0
 41
0
  0
VERTEX
  8
0
 10
7.84093
 20
17.1986
 30
0.0
 40
0
 41
0
  0
VERTEX
  8
0
 10
7.76292
 20
17.281
 30
0.0
 40
0
 41
0
  0
VERTEX
  8
0
 10
7.68494
 20
17.3686
 30
0.0
 40
0
 41
0
  0
VERTEX
  8
0
 10
7.60975
 20
17.4596
 30
0.0
 40
0
 41
0
  0
VERTEX
  8
0
 10
7.53999
 20
17.5518
 30
0.0
 40
0
 41
0
  0
VERTEX
  8
0
 10
7.47819
 20
17.6432
 30
0.0
 40
0
 41
0
  0
VERTEX
  8
0
 10
7.42719
 20
17.7317
 30
0.0
 40
0
 41
0
  0
VERTEX
  8
0
 10
7.38949
 20
17.815
 30
0.0
 40
0
 41
0
  0
VERTEX
  8
0
 10
7.36783
 20
17.8911
 30
0.0
 40
0
 41
0
  0
VERTEX
  8
0
 10
7.3649
 20
17.9581
 30
0.0
 40
0
 41
0
  0
VERTEX
  8
0
 10
7.38331
 20
18.0136
 30
0.0
 40
0
 41
0
  0
VERTEX
  8
0
 10
7.42567
 20
18.0557
 30
0.0
 40
0
 41
0
  0
VERTEX
  8
0
 10
7.47683
 20
18.0783
 30
0.0
 40
0
 41
0
  0
VERTEX
  8
0
 10
7.49474
 20
18.0822
 30
0.0
 40
0
 41
0
  0
VERTEX
  8
0
 10
7.52806
 20
18.0761
 30
0.0
 40
0
 41
0
  0
VERTEX
  8
0
 10
7.62944
 20
18.0646
 30
0.0
 40
0
 41
0
  0
VERTEX
  8
0
 10
7.71442
 20
18.0699
 30
0.0
 40
0
 41
0
  0
VERTEX
  8
0
 10
7.75662
 20
18.0947
 30
0.0
 40
0
 41
0
  0
VERTEX
  8
0
 10
7.76292
 20
18.1363
 30
0.0
 40
0
 41
0
  0
VERTEX
  8
0
 10
7.74018
 20
18.191
 30
0.0
 40
0
 41
0
  0
VERTEX
  8
0
 10
7.69536
 20
18.2556
 30
0.0
 40
0
 41
0
  0
VERTEX
  8
0
 10
7.63536
 20
18.3271
 30
0.0
 40
0
 41
0
  0
VERTEX
  8
0
 10
7.56706
 20
18.4021
 30
0.0
 40
0
 41
0
  0
VERTEX
  8
0
 10
7.49735
 20
18.4774
 30
0.0
 40
0
 41
0
  0
VERTEX
  8
0
 10
7.43317
 20
18.5497
 30
0.0
 40
0
 41
0
  0
VERTEX
  8
0
 10
7.38135
 20
18.6161
 30
0.0
 40
0
 41
0
  0
VERTEX
  8
0
 10
7.3489
 20
18.6729
 30
0.0
 40
0
 41
0
  0
VERTEX
  8
0
 10
7.34267
 20
18.7171
 30
0.0
 40
0
 41
0
  0
VERTEX
  8
0
 10
7.36957
 20
18.7456
 30
0.0
 40
0
 41
0
  0
VERTEX
  8
0
 10
7.43653
 20
18.7549
 30
0.0
 40
0
 41
0
  0
VERTEX
  8
0
 10
7.52225
 20
18.7469
 30
0.0
 40
0
 41
0
  0
VERTEX
  8
0
 10
7.5504
 20
18.7418
 30
0.0
 40
0
 41
0
  0
VERTEX
  8
0
 10
7.52713
 20
18.7696
 30
0.0
 40
0
 41
0
  0
VERTEX
  8
0
 10
7.40565
 20
18.9257
 30
0.0
 40
0
 41
0
  0
VERTEX
  8
0
 10
7.2864
 20
19.1001
 30
0.0
 40
0
 41
0
  0
VERTEX
  8
0
 10
7.26426
 20
19.1371
 30
0.0
 40
0
 41
0
  0
VERTEX
  8
0
 10
7.25325
 20
19.1568
 30
0.0
 40
0
 41
0
  0
VERTEX
  8
0
 10
7.21556
 20
19.2131
 30
0.0
 40
0
 41
0
  0
VERTEX
  8
0
 10
7.16932
 20
19.2624
 30
0.0
 40
0
 41
0
  0
VERTEX
  8
0
 10
7.12483
 20
19.2872
 30
0.0
 40
0
 41
0
  0
VERTEX
  8
0
 10
7.08122
 20
19.2899
 30
0.0
 40
0
 41
0
  0
VERTEX
  8
0
 10
7.03776
 20
19.2721
 30
0.0
 40
0
 41
0
  0
VERTEX
  8
0
 10
6.99365
 20
19.2363
 30
0.0
 40
0
 41
0
  0
VERTEX
  8
0
 10
6.94808
 20
19.1843
 30
0.0
 40
0
 41
0
  0
VERTEX
  8
0
 10
6.91174
 20
19.1353
 30
0.0
 40
0
 41
0
  0
VERTEX
  8
0
 10
6.90028
 20
19.1185
 30
0.0
 40
0
 41
0
  0
SEQEND
 8
0
  0
ENDSEC
  0
EOF
