<svg version="1.1" id="Layer_1" xmlns="http://www.w3.org/2000/svg" xmlns:xlink="http://www.w3.org/1999/xlink" x="0px" y="0px"
	 width="100%" viewBox="0 0 500 500" enable-background="new 0 0 500 500" xml:space="preserve">
<path fill="#000000" opacity="1.000000" stroke="none" 
	d="
M296.000000,501.000000 
	C197.333359,501.000000 99.166710,501.000000 1.000053,501.000000 
	C1.000035,334.333405 1.000035,167.666794 1.000018,1.000142 
	C167.666565,1.000095 334.333130,1.000095 500.999756,1.000047 
	C500.999847,167.666519 500.999847,334.333038 500.999939,500.999786 
	C432.833344,501.000000 364.666656,501.000000 296.000000,501.000000 
M161.873138,70.967400 
	C166.459091,71.124016 171.499390,69.777359 173.068512,76.604324 
	C176.448608,91.310532 180.285568,105.911156 183.802414,120.586891 
	C184.748291,124.533997 184.325134,127.969780 179.398804,129.330994 
	C177.589508,129.830917 176.099289,131.485519 174.463531,132.613419 
	C174.675690,133.057983 174.887863,133.502548 175.100021,133.947128 
	C176.335770,133.840698 177.612900,133.898285 178.799911,133.598724 
	C183.307434,132.461197 187.796478,131.246185 192.272949,129.990677 
	C202.895462,127.011383 213.883636,124.920357 224.043594,120.794670 
	C244.663971,112.421288 245.640350,83.114540 232.953964,69.469566 
	C224.769119,60.666260 214.529877,57.008568 202.869888,59.127739 
	C189.611023,61.537502 176.522079,64.894249 163.394638,67.989319 
	C162.478241,68.205383 161.854599,69.663124 161.873138,70.967400 
M250.000000,184.500000 
	C250.000000,238.598633 250.000000,292.697266 250.000000,346.714661 
	C253.309860,346.714661 256.047882,346.714661 258.719482,346.714661 
	C258.719482,282.354340 258.719482,218.279724 258.719482,154.285309 
	C255.692444,154.285309 252.953232,154.285309 250.000000,154.285309 
	C250.000000,164.212570 250.000000,173.856277 250.000000,184.500000 
M393.000031,336.907043 
	C393.000031,340.393646 393.000031,343.880249 393.000031,347.366852 
	C392.603668,347.093964 392.207306,346.821106 391.810944,346.548218 
	C386.961395,352.992157 382.111847,359.436066 377.262329,365.879974 
	C377.717285,366.351318 378.172241,366.822662 378.627167,367.294006 
	C379.786469,366.666595 381.288513,366.311951 382.043762,365.362976 
	C384.816864,361.878387 387.513458,362.717346 390.483551,364.985535 
	C394.343079,367.932922 398.216949,370.871246 402.210938,373.630676 
	C409.203552,378.461823 409.932281,385.260345 404.078766,391.443024 
	C400.931122,394.767670 397.862244,396.356140 393.489471,393.126556 
	C387.541779,388.733734 381.189362,384.888245 375.252838,380.481598 
	C374.388214,379.839844 374.642548,377.369324 374.782959,375.780701 
	C374.939911,374.004364 375.557037,372.268707 375.973907,370.515350 
	C375.374451,370.292999 374.774994,370.070648 374.175537,369.848328 
	C369.920990,375.929657 365.666473,382.011017 361.411957,388.092377 
	C361.853088,388.458374 362.294220,388.824371 362.735352,389.190338 
	C363.751129,388.801239 365.036377,388.680298 365.736359,387.976929 
	C368.879852,384.818085 371.490540,386.688293 374.130646,388.637604 
	C379.337952,392.482452 384.424561,396.500366 389.747864,400.176270 
	C398.065002,405.919617 406.738159,403.002319 409.782349,393.449860 
	C410.970306,389.722260 411.598236,385.816193 412.519958,381.823639 
	C414.464447,382.982025 416.059418,383.932190 418.366943,385.306824 
	C417.986877,379.184052 417.646301,373.697510 417.271088,367.653015 
	C416.229401,368.227570 415.218170,369.176880 414.110687,369.307068 
	C412.319336,369.517670 410.052948,369.833618 408.710144,368.974731 
	C403.682007,365.758789 398.927704,362.110840 394.108154,358.573883 
	C389.876495,355.468292 389.962311,353.349213 394.159058,350.219757 
	C395.405609,351.585205 396.649841,352.948151 397.894073,354.311066 
	C398.273773,354.147186 398.653503,353.983307 399.033203,353.819427 
	C398.822510,352.503235 398.656830,351.177826 398.390717,349.872894 
	C397.973816,347.828430 396.774109,345.654785 397.148254,343.784363 
	C399.679138,331.131683 408.417145,326.821381 419.128693,329.991577 
	C423.334595,331.236420 424.573303,332.865509 422.417023,337.372925 
	C419.047699,344.415985 416.606293,351.902954 413.771942,359.201324 
	C421.375275,362.037018 428.258636,360.140625 432.157776,354.438110 
	C437.243866,346.999695 437.578918,339.178131 432.820221,331.772766 
	C427.965485,324.217896 420.261047,319.952667 411.431854,320.234222 
	C401.745575,320.543121 395.489471,326.485382 393.000031,336.907043 
M177.997528,197.651367 
	C180.281174,211.697113 182.564804,225.742859 185.032257,240.919159 
	C192.594971,233.430161 195.384689,223.475571 200.808594,215.296295 
	C206.265732,207.066895 210.668655,198.138412 215.533524,189.516251 
	C216.041351,189.774918 216.549164,190.033569 217.056992,190.292221 
	C216.704865,191.974258 216.303894,193.647766 216.008530,195.339706 
	C214.006943,206.805649 211.752289,218.237900 210.179077,229.762894 
	C209.564621,234.264145 207.519302,235.231018 203.651535,235.085953 
	C202.696503,235.050156 201.701614,236.077454 200.725037,236.616043 
	C200.933548,236.974869 201.142059,237.333694 201.350571,237.692520 
	C209.523453,238.050690 217.696335,238.408875 225.869217,238.767044 
	C226.049911,238.284042 226.230621,237.801025 226.411316,237.318024 
	C224.394760,236.546036 222.415466,235.272751 220.352936,235.119507 
	C217.256470,234.889435 216.644760,233.284531 217.060593,230.835266 
	C219.334030,217.444473 221.783356,204.082718 223.953934,190.675644 
	C224.872742,185.000458 225.941193,179.827026 233.142899,179.341415 
	C233.821869,179.295624 234.444214,178.409821 236.288620,177.000015 
	C230.744583,177.000015 226.629974,176.727936 222.582031,177.128906 
	C220.872742,177.298218 218.622849,178.478485 217.778946,179.891968 
	C211.025681,191.203094 204.572433,202.692932 197.977386,214.099182 
	C195.808792,217.849823 193.493393,221.515579 190.591309,226.297440 
	C187.498840,208.789520 184.701721,192.953766 181.839798,176.751099 
	C175.422211,176.751099 169.409317,176.751099 163.396408,176.751099 
	C163.328201,177.198532 163.259995,177.645966 163.191803,178.093399 
	C167.122833,178.990433 171.053879,179.887466 175.114334,180.814041 
	C172.263199,188.285248 169.526321,195.113373 167.052643,202.035568 
	C164.572769,208.975037 162.414001,216.028610 160.004562,222.994141 
	C158.088425,228.533569 156.854477,234.661499 149.514465,235.925110 
	C148.808670,236.046600 148.325546,237.461441 147.576477,238.501648 
	C155.571365,238.501648 162.751053,238.501648 169.930756,238.501648 
	C170.050766,238.085968 170.170776,237.670303 170.290787,237.254623 
	C169.136597,236.835938 167.871780,236.595245 166.851440,235.961166 
	C164.786865,234.678162 159.867889,236.157867 161.413727,231.235214 
	C165.448242,218.387405 169.753281,205.624130 174.031876,192.854431 
	C174.320190,191.993912 175.287216,191.360809 176.278152,190.236740 
	C177.000885,193.036331 177.482834,194.903214 177.997528,197.651367 
M434.141724,287.000000 
	C437.338470,286.274261 438.520782,288.539429 440.277435,290.589050 
	C443.443878,294.283600 443.814606,298.101440 442.145081,302.350525 
	C440.293274,307.063446 436.334534,308.176788 431.815369,307.977631 
	C426.399109,307.738953 420.984741,307.013763 415.579865,307.105774 
	C411.589630,307.173737 409.360168,306.098297 408.922180,301.908081 
	C408.807281,300.808777 407.746796,299.808258 407.120544,298.762390 
	C405.985138,302.671539 406.159882,306.136169 405.935577,309.574738 
	C405.715149,312.954254 405.089478,316.307373 404.641632,319.672058 
	C405.143127,319.924805 405.644653,320.177521 406.146149,320.430267 
	C407.088623,319.320648 407.933716,318.104675 408.998962,317.129211 
	C410.242920,315.990204 411.682007,314.180786 413.031189,314.185455 
	C421.088257,314.213165 429.142700,314.715393 437.201111,314.957275 
	C438.259521,314.989044 439.328217,314.411224 440.404114,314.168793 
	C447.513306,312.566772 451.229431,302.683685 447.057190,294.506805 
	C445.628754,291.707336 443.840485,289.091492 442.138123,286.261261 
	C448.304535,284.145844 450.317657,278.837799 449.701538,273.662720 
	C449.097534,268.589203 446.071838,263.803986 444.040436,258.720642 
	C446.413391,258.720642 449.155792,258.720642 452.540649,258.720642 
	C451.798096,257.231964 451.470337,256.162292 450.819397,255.352478 
	C449.281097,253.438736 447.117889,251.881943 446.064941,249.756073 
	C444.295349,246.183334 443.191498,243.187653 440.849396,249.373306 
	C440.556213,250.147644 439.070587,250.904633 438.120941,250.925766 
	C431.964233,251.062836 425.776947,251.334229 419.652863,250.865692 
	C415.927155,250.580643 411.319763,250.439651 411.142548,244.622589 
	C411.121826,243.941940 409.622131,243.306351 407.778687,241.819748 
	C407.778687,250.407120 407.778687,257.576050 407.778687,264.919250 
	C413.404510,265.711853 409.932861,259.541992 413.339539,258.000000 
	C419.155884,258.000000 425.645416,258.162720 432.122498,257.949036 
	C437.401062,257.774841 440.517334,260.296814 442.452759,264.913483 
	C445.775970,272.840515 443.391937,277.753937 434.969757,278.915344 
	C430.419739,279.542816 425.705902,279.120667 421.073090,278.962738 
	C417.727509,278.848694 414.393707,278.389801 411.379761,278.114380 
	C410.474976,274.683563 411.729645,270.978668 407.361908,269.768585 
	C406.902496,278.142548 406.471802,285.993195 406.041107,293.843872 
	C406.463074,294.090393 406.885040,294.336914 407.307037,294.583435 
	C408.204071,293.419922 409.838745,292.273468 409.866089,291.089844 
	C409.965973,286.768372 412.313873,285.755646 415.997986,285.991119 
	C421.740631,286.358063 427.487000,286.666656 434.141724,287.000000 
M91.015778,171.935364 
	C92.086166,171.716934 93.175392,171.564377 94.222649,171.265015 
	C95.901596,170.785126 98.200600,169.226227 99.112617,169.828079 
	C106.077347,174.424088 112.769371,179.433334 119.638153,184.380249 
	C118.228920,186.496307 117.356583,187.806183 116.514473,189.070679 
	C115.039490,188.235138 113.798027,187.531860 112.449921,186.768188 
	C112.299103,189.521225 112.192398,191.468964 112.085693,193.416718 
	C109.854248,192.957062 107.479378,192.839493 105.417633,191.975067 
	C98.620361,189.125198 91.919792,186.041367 85.214508,182.976440 
	C80.480186,180.812439 76.923775,182.752106 74.270958,186.430801 
	C68.084343,195.009827 70.337051,206.682297 79.164742,213.950531 
	C83.082726,210.435074 83.185837,208.761810 79.698410,205.188782 
	C78.541092,204.003082 76.611847,202.961655 76.370697,201.615143 
	C75.835701,198.627808 75.251122,195.117523 76.336098,192.505585 
	C77.712936,189.191010 81.194221,189.306763 84.420006,190.798523 
	C86.555206,191.785980 88.823212,192.486237 91.000076,193.303162 
	C91.000076,198.514740 90.175575,203.518829 91.234032,208.086609 
	C92.273941,212.574417 94.677628,217.073608 97.620377,220.625336 
	C98.733185,221.968430 104.623032,221.767166 105.574257,220.378525 
	C108.441483,216.192795 110.405991,211.183456 108.375908,205.701813 
	C107.973495,204.615250 108.200394,203.295593 108.137093,202.083435 
	C108.526451,202.424377 108.915802,202.765335 109.305161,203.106293 
	C111.786972,201.616501 115.847458,200.608109 116.474274,198.552628 
	C119.035194,190.154724 124.987320,184.195419 129.884399,177.453827 
	C131.471146,175.269424 132.926315,172.989456 134.441666,170.753204 
	C133.914246,170.290100 133.386826,169.826996 132.859406,169.363892 
	C130.661179,171.319061 128.601501,173.472855 126.205376,175.144348 
	C125.033928,175.961563 122.727165,176.669937 121.806923,176.075851 
	C116.794357,172.839783 111.943962,169.322128 107.250336,165.631058 
	C102.673187,162.031570 102.821579,156.375732 106.765121,152.546341 
	C108.313347,151.042938 109.791283,148.223221 109.418167,146.385208 
	C109.128250,144.956970 105.844978,143.117386 104.019806,143.247757 
	C100.930084,143.468475 98.967918,145.978439 99.025116,149.365555 
	C99.078880,152.549438 99.336807,155.729889 99.531624,159.417404 
	C96.435341,157.724472 93.552017,156.147980 91.001030,154.753189 
	C91.001030,160.748810 91.001030,165.924042 91.015778,171.935364 
M439.980377,217.947876 
	C437.060760,213.406723 434.141144,208.865585 431.321625,204.480118 
	C433.877075,203.526917 436.501221,202.548080 439.571747,201.402756 
	C435.092834,197.750687 431.138489,194.526337 426.649261,190.865845 
	C426.279449,193.440277 425.965668,195.624619 425.592834,198.220169 
	C410.149841,203.451340 394.414917,208.401306 379.002808,214.208008 
	C373.599182,216.243912 370.653809,215.758896 368.718811,210.382553 
	C368.651276,210.194916 368.162842,210.158798 367.870026,210.053635 
	C366.005646,212.262177 370.004181,227.937546 374.718048,233.978287 
	C375.326843,231.920502 375.157288,229.812607 375.381561,227.747482 
	C375.554810,226.152313 375.817078,223.567062 376.733643,223.211685 
	C383.609863,220.545670 390.658508,218.324265 397.940399,215.866776 
	C396.449738,226.220779 399.915497,235.827621 408.414093,240.951416 
	C415.198334,245.041580 426.097076,244.537689 433.018616,239.490387 
	C439.406982,234.831894 442.070953,226.928619 439.980377,217.947876 
M142.536285,390.023560 
	C150.309174,397.997894 146.252136,406.491760 143.461594,415.366211 
	C148.167389,412.169556 151.931488,408.596771 155.530273,404.864563 
	C156.074234,404.300446 156.107727,402.945770 155.939041,402.038208 
	C153.810928,390.589264 137.722702,378.750366 126.006363,380.013123 
	C117.515907,380.928162 107.181915,391.995514 110.761497,402.533905 
	C113.490753,410.568878 115.337189,418.904297 117.559921,427.110535 
	C118.704903,431.337708 116.569893,435.247437 112.678726,437.035553 
	C106.826332,439.724976 102.363892,436.597473 98.845596,433.050903 
	C94.735794,428.908112 93.729034,423.456635 96.003197,418.774536 
	C96.855759,417.019287 97.507034,415.166260 98.250084,413.357819 
	C97.764565,413.001831 97.279037,412.645844 96.793510,412.289886 
	C95.046112,413.839020 93.288925,415.377289 91.553352,416.939575 
	C88.143135,420.009399 86.423904,423.319824 89.932167,427.490692 
	C92.967041,431.098816 95.442848,435.366394 99.030869,438.275513 
	C104.358215,442.594818 110.939499,443.486603 117.459091,441.087402 
	C127.869148,437.256470 127.999832,427.817505 126.564926,419.308136 
	C125.562859,413.365509 123.047546,407.691010 121.418205,401.838257 
	C118.888794,392.752228 121.955086,387.440887 127.815514,385.635040 
	C133.459152,383.896027 138.013657,385.469971 142.536285,390.023560 
M52.365788,282.993225 
	C52.964424,282.775269 54.014561,282.663116 54.094112,282.323547 
	C55.326099,277.064514 60.074932,276.451141 63.970234,275.095398 
	C74.100594,271.569611 84.364670,268.429352 94.545273,265.044708 
	C95.784058,264.632874 96.838516,263.666595 97.978401,262.957275 
	C97.159706,261.921539 96.510216,260.664398 95.493690,259.887543 
	C90.499733,256.070892 85.408272,252.381882 79.596085,248.090195 
	C86.031357,246.629349 91.868286,245.388870 97.648323,243.923935 
	C98.868675,243.614639 99.880653,242.483170 100.988647,241.730530 
	C100.246269,240.812637 99.677513,239.623886 98.734329,239.019211 
	C90.332512,233.632843 81.866478,228.346588 73.415237,223.037415 
	C69.636612,220.663651 65.135674,219.030014 64.698578,213.469299 
	C64.644196,212.777542 62.761269,212.229523 61.493496,211.477127 
	C60.532303,218.359421 59.663239,224.582031 58.794178,230.804642 
	C59.392677,231.033112 59.991177,231.261566 60.589676,231.490036 
	C61.394390,229.977676 62.428787,228.540573 62.954399,226.936752 
	C63.946064,223.910843 66.257118,223.002106 68.576195,224.313873 
	C75.813599,228.407684 82.812340,232.923416 91.246651,238.099854 
	C80.378342,240.434433 70.867889,242.477325 61.154041,244.563919 
	C60.889431,236.602020 60.889431,236.602020 58.087753,235.013397 
	C56.969639,243.020844 55.871410,250.885925 54.773178,258.751007 
	C55.290455,259.145233 55.807728,259.539429 56.325005,259.933655 
	C58.436172,251.481506 65.241371,250.926651 71.401550,250.145966 
	C78.817314,249.206177 82.656227,255.798691 88.991226,259.256226 
	C79.616089,262.253601 71.285561,264.990601 62.903229,267.558502 
	C59.817337,268.503845 56.817108,268.860352 56.898029,263.978638 
	C56.909943,263.259888 55.583725,262.518951 54.238102,261.128479 
	C53.225533,269.302002 52.381084,276.118469 52.365788,282.993225 
M326.952972,314.984802 
	C322.801575,314.991089 318.590240,315.454315 314.509918,314.918884 
	C301.752869,313.244873 295.567596,301.804688 298.310608,290.694244 
	C302.845642,272.325287 318.917023,257.677582 339.438385,258.894775 
	C343.292206,259.123383 344.595123,260.786957 345.023529,264.125793 
	C345.241852,265.827118 345.717163,267.495514 346.076324,269.178772 
	C346.684998,269.148804 347.293671,269.118805 347.902344,269.088837 
	C348.702728,265.191559 349.503113,261.294250 350.385498,256.997711 
	C341.667542,256.997711 333.815918,256.439850 326.070984,257.111725 
	C308.980011,258.594330 297.297821,268.166168 290.995636,283.703247 
	C286.392761,295.051056 287.831726,306.882355 299.523315,314.055908 
	C309.723419,320.314301 320.288361,319.515686 331.488464,317.446777 
	C337.949158,316.253326 341.026581,313.469391 341.860046,307.403229 
	C341.949524,306.752014 341.853455,306.062683 342.017151,305.436432 
	C342.937866,301.913483 342.485626,297.259888 348.397400,297.766418 
	C348.913940,297.810669 349.547241,296.492249 350.437439,295.438477 
	C341.577942,295.438477 333.340302,295.438477 325.102692,295.438477 
	C325.036346,295.979950 324.970032,296.521454 324.903717,297.062927 
	C326.908478,297.375305 328.981049,297.470947 330.895996,298.070343 
	C332.363617,298.529694 334.908112,300.022186 334.797424,300.377686 
	C333.199188,305.511322 334.468079,312.162811 326.952972,314.984802 
M413.009033,192.483200 
	C413.737671,191.420364 414.502075,190.380127 415.189392,189.291214 
	C422.626984,177.507065 419.362854,166.086395 410.131866,157.860153 
	C400.562164,149.332092 384.445251,151.845749 377.334869,162.144211 
	C370.693085,171.764038 374.063385,187.279236 384.134827,194.032333 
	C393.878357,200.565521 403.275452,200.180557 413.009033,192.483200 
M79.015060,374.173798 
	C79.711510,375.252075 80.324554,376.396393 81.117676,377.398102 
	C87.159828,385.029297 94.600395,388.882843 105.567154,386.171204 
	C114.528786,383.955383 122.499924,374.706268 121.002449,361.680786 
	C119.491577,348.538696 104.976570,338.205963 92.178253,341.798401 
	C81.221375,344.874023 71.359055,358.822815 79.015060,374.173798 
M77.708008,333.034790 
	C83.702095,331.260254 89.771843,329.699921 95.658302,327.620667 
	C98.593063,326.584015 100.142159,326.896423 101.482277,329.806030 
	C102.143196,331.240997 103.816872,332.209442 105.032280,333.389008 
	C105.296257,333.071960 105.560234,332.754944 105.824211,332.437897 
	C103.223885,323.940277 100.623550,315.442627 98.023224,306.945007 
	C97.418587,307.039551 96.813950,307.134064 96.209312,307.228607 
	C96.391991,309.282227 96.422928,311.363586 96.792694,313.382965 
	C97.355835,316.458466 97.030899,318.923584 93.595108,320.046356 
	C85.267609,322.767578 76.953209,325.528839 68.413773,328.346497 
	C66.620049,323.850464 65.005836,319.804382 63.496773,316.021881 
	C59.273426,316.001923 59.415546,318.291748 60.036133,320.656982 
	C60.859322,323.794312 61.874722,326.881226 62.848610,330.126740 
	C58.251514,331.504242 54.181507,332.977966 49.992264,333.923218 
	C42.533516,335.606201 39.003159,332.496613 38.999756,324.620728 
	C38.998890,322.621735 39.639645,320.283020 38.814674,318.717438 
	C37.956959,317.089661 35.797821,315.876953 33.946541,315.227661 
	C33.464516,315.058624 31.195461,317.628387 31.131292,319.004730 
	C30.695595,328.350311 35.804718,335.425903 44.209480,337.758606 
	C49.205414,339.145233 54.858639,338.628448 60.165806,338.252991 
	C63.305260,338.030914 65.853218,337.860870 68.103539,340.480804 
	C69.170578,341.723114 70.849380,342.439941 72.251030,343.394836 
	C72.523361,343.072296 72.795685,342.749725 73.068008,342.427185 
	C72.513680,340.037933 71.959343,337.648682 71.428627,335.361267 
	C73.389107,334.699554 75.204704,334.086761 77.708008,333.034790 
M153.067169,146.454422 
	C150.112000,151.821594 145.326538,154.489944 139.472382,153.864151 
	C133.017670,153.174133 127.637543,150.114883 124.911957,143.832733 
	C132.236023,137.412460 139.292389,131.226852 146.294937,125.088425 
	C140.039886,116.292351 127.428886,118.019104 120.662064,126.419701 
	C114.481155,134.092896 116.852013,146.531204 121.775208,153.147888 
	C126.227264,159.131348 132.241943,163.507965 139.974457,162.820190 
	C149.140030,162.004944 156.937515,154.407150 158.750458,145.264709 
	C159.274643,142.621338 160.394089,138.957626 156.839890,136.704041 
	C155.617508,140.193146 154.615952,143.051910 153.067169,146.454422 
M362.275299,111.024612 
	C355.301575,106.786911 348.575226,107.020927 341.247498,110.828926 
	C333.606049,114.799934 326.907837,125.979057 328.746613,134.761017 
	C331.143524,146.208633 342.078461,151.682816 352.020874,150.969742 
	C356.910645,150.619049 357.682800,149.926666 358.720062,145.979568 
	C350.530212,148.324814 343.576843,146.038483 339.194366,139.151993 
	C334.313507,131.482422 338.016174,124.473038 342.903229,117.775940 
	C351.044128,123.049774 359.099121,128.267944 367.151978,133.484741 
	C372.261627,125.450066 370.478729,117.036964 362.275299,111.024612 
M264.435486,121.050491 
	C272.879547,123.984329 285.310486,117.824371 284.468567,110.714806 
	C278.051605,115.293213 271.298462,118.459938 263.998047,113.393471 
	C256.896057,108.464691 256.134949,101.117348 257.379639,92.873825 
	C266.914795,93.653481 276.313934,94.422012 285.701233,95.189575 
	C286.914825,88.107864 284.375793,83.000458 278.945160,80.124161 
	C272.287415,76.597900 265.024384,76.493462 258.658142,81.007065 
	C251.049118,86.401794 248.972992,94.314011 248.819000,103.427147 
	C248.692108,110.936890 254.799591,120.385231 264.435486,121.050491 
M376.991089,138.515137 
	C371.047211,144.846634 365.103333,151.178146 359.355438,157.300903 
	C356.215820,155.468292 353.926544,154.132050 351.637299,152.795792 
	C351.135681,153.307968 350.634094,153.820145 350.132477,154.332321 
	C355.405731,160.244217 361.273895,165.627350 367.315735,171.827499 
	C370.367432,167.198334 365.391388,165.601700 365.004303,162.545700 
	C379.664429,147.333923 394.426056,132.016830 409.912964,115.947159 
	C404.635742,113.474770 400.271454,111.430077 395.907135,109.385384 
	C395.493439,109.736046 395.079773,110.086716 394.666077,110.437386 
	C399.628326,116.074921 396.314362,119.564392 392.363525,123.228180 
	C387.241028,127.978561 382.431244,133.066162 376.991089,138.515137 
M326.053711,105.415993 
	C328.447235,100.788300 331.804199,98.567482 337.188538,100.544464 
	C337.953491,100.825340 339.217194,99.747940 340.250061,99.299194 
	C340.159210,98.890427 340.068329,98.481667 339.977448,98.072899 
	C333.129669,95.679382 326.281891,93.285866 319.434082,90.892357 
	C319.107239,91.356422 318.780365,91.820488 318.453491,92.284554 
	C319.676849,93.387085 320.731689,94.844315 322.157074,95.521683 
	C325.611847,97.163429 326.045929,99.087502 323.587708,101.977264 
	C318.846771,107.550529 314.224976,113.225388 309.455292,118.773460 
	C309.130890,119.150833 307.985870,118.822723 307.082245,118.822723 
	C306.562866,109.470802 306.057648,100.373734 305.529633,90.866470 
	C308.762787,90.866470 311.890472,90.866470 315.018127,90.866470 
	C315.040955,90.372253 315.063751,89.878036 315.086578,89.383820 
	C307.557678,86.575806 300.028778,83.767784 291.134216,80.450424 
	C292.342651,82.754074 292.660950,84.511208 293.600067,84.955215 
	C298.054993,87.061478 297.967590,90.843971 298.052399,94.873207 
	C298.194550,101.623955 298.489716,108.382866 299.060852,115.109444 
	C299.486755,120.125053 300.449615,125.095078 301.173340,130.085403 
	C301.735321,130.324005 302.297302,130.562592 302.859283,130.801193 
	C310.427399,122.520348 317.995483,114.239502 326.053711,105.415993 
M347.961914,402.557739 
	C350.000946,400.121704 351.745026,395.493317 355.673706,399.353638 
	C362.290161,405.854889 368.282257,412.991547 374.753723,420.098999 
	C372.001434,422.714020 370.081268,425.160522 367.610077,426.750671 
	C363.133392,429.631317 365.256683,431.219818 368.579224,433.445618 
	C370.630341,431.217407 372.547333,429.143921 374.454132,427.061096 
	C376.594391,424.723236 378.470032,423.516541 380.261841,427.539459 
	C381.178345,429.597229 382.791931,431.344513 384.090454,433.232147 
	C384.561096,432.797882 385.031708,432.363586 385.502319,431.929321 
	C385.502319,424.984833 385.502319,418.040344 385.502319,410.895569 
	C379.937195,414.725281 380.030731,414.649109 375.352417,408.903381 
	C371.325928,403.958160 367.273865,398.993408 362.780792,394.488434 
	C360.997803,392.700714 357.996277,391.190643 355.547943,391.188263 
	C349.367493,391.182251 342.775879,400.199921 344.535828,407.558350 
	C345.488800,406.066925 346.441803,404.575500 347.961914,402.557739 
M63.053806,311.411285 
	C63.053806,309.464111 63.053806,307.516937 63.053806,304.974457 
	C70.661003,303.988770 78.311264,302.702484 86.015175,302.074890 
	C95.381233,301.311920 98.868874,297.113953 96.966698,287.977509 
	C95.796638,282.357544 93.147141,279.480042 88.442596,279.507904 
	C89.412201,281.131958 90.224358,282.419617 90.965820,283.746796 
	C94.142815,289.433472 92.740410,292.651855 86.441689,293.990143 
	C82.986893,294.724213 79.525238,295.522675 76.024437,295.920197 
	C71.073318,296.482361 66.083160,296.700714 61.380810,297.046112 
	C60.767891,292.289459 60.250839,288.276794 59.727772,284.217468 
	C58.123985,284.217468 56.715569,284.217468 54.631924,284.217468 
	C55.122284,286.712372 55.629375,288.867401 55.951290,291.049713 
	C56.273510,293.234131 56.410713,295.445862 56.629620,297.651672 
	C53.209824,298.189117 49.698925,298.740845 44.804802,299.509949 
	C46.526291,300.784912 47.344002,301.492432 48.254822,302.047058 
	C51.791290,304.200531 55.417179,306.213654 58.882782,308.473755 
	C60.257607,309.370331 61.301228,310.774750 63.053806,311.411285 
z"/>
<path fill="#FFFFFF" opacity="1.000000" stroke="none" 
	d="
M161.483978,70.755432 
	C161.854599,69.663124 162.478241,68.205383 163.394638,67.989319 
	C176.522079,64.894249 189.611023,61.537502 202.869888,59.127739 
	C214.529877,57.008568 224.769119,60.666260 232.953964,69.469566 
	C245.640350,83.114540 244.663971,112.421288 224.043594,120.794670 
	C213.883636,124.920357 202.895462,127.011383 192.272949,129.990677 
	C187.796478,131.246185 183.307434,132.461197 178.799911,133.598724 
	C177.612900,133.898285 176.335770,133.840698 175.100021,133.947128 
	C174.887863,133.502548 174.675690,133.057983 174.463531,132.613419 
	C176.099289,131.485519 177.589508,129.830917 179.398804,129.330994 
	C184.325134,127.969780 184.748291,124.533997 183.802414,120.586891 
	C180.285568,105.911156 176.448608,91.310532 173.068512,76.604324 
	C171.499390,69.777359 166.459091,71.124016 161.483978,70.755432 
M188.479019,99.985199 
	C189.651443,104.155334 191.097580,108.270950 191.941193,112.506577 
	C193.896301,122.323059 196.762833,124.788002 209.359879,122.125786 
	C221.844299,119.487350 232.656570,105.264679 230.104645,91.283165 
	C228.386520,81.869820 224.545883,74.248436 216.430740,68.838570 
	C205.682037,61.673046 194.586639,63.625549 183.465561,67.327286 
	C181.558792,67.961967 180.774277,69.641121 181.617920,72.516411 
	C184.195374,81.300888 185.956406,90.324928 188.479019,99.985199 
z"/>
<path fill="#FFFFFF" opacity="1.000000" stroke="none" 
	d="
M250.000000,184.000000 
	C250.000000,173.856277 250.000000,164.212570 250.000000,154.285309 
	C252.953232,154.285309 255.692444,154.285309 258.719482,154.285309 
	C258.719482,218.279724 258.719482,282.354340 258.719482,346.714661 
	C256.047882,346.714661 253.309860,346.714661 250.000000,346.714661 
	C250.000000,292.697266 250.000000,238.598633 250.000000,184.000000 
z"/>
<path fill="#FFFFFF" opacity="1.000000" stroke="none" 
	d="
M393.000397,336.466431 
	C395.489471,326.485382 401.745575,320.543121 411.431854,320.234222 
	C420.261047,319.952667 427.965485,324.217896 432.820221,331.772766 
	C437.578918,339.178131 437.243866,346.999695 432.157776,354.438110 
	C428.258636,360.140625 421.375275,362.037018 413.771942,359.201324 
	C416.606293,351.902954 419.047699,344.415985 422.417023,337.372925 
	C424.573303,332.865509 423.334595,331.236420 419.128693,329.991577 
	C408.417145,326.821381 399.679138,331.131683 397.148254,343.784363 
	C396.774109,345.654785 397.973816,347.828430 398.390717,349.872894 
	C398.656830,351.177826 398.822510,352.503235 399.033203,353.819427 
	C398.653503,353.983307 398.273773,354.147186 397.894073,354.311066 
	C396.649841,352.948151 395.405609,351.585205 394.159058,350.219757 
	C389.962311,353.349213 389.876495,355.468292 394.108154,358.573883 
	C398.927704,362.110840 403.682007,365.758789 408.710144,368.974731 
	C410.052948,369.833618 412.319336,369.517670 414.110687,369.307068 
	C415.218170,369.176880 416.229401,368.227570 417.271088,367.653015 
	C417.646301,373.697510 417.986877,379.184052 418.366943,385.306824 
	C416.059418,383.932190 414.464447,382.982025 412.519958,381.823639 
	C411.598236,385.816193 410.970306,389.722260 409.782349,393.449860 
	C406.738159,403.002319 398.065002,405.919617 389.747864,400.176270 
	C384.424561,396.500366 379.337952,392.482452 374.130646,388.637604 
	C371.490540,386.688293 368.879852,384.818085 365.736359,387.976929 
	C365.036377,388.680298 363.751129,388.801239 362.735352,389.190338 
	C362.294220,388.824371 361.853088,388.458374 361.411957,388.092377 
	C365.666473,382.011017 369.920990,375.929657 374.175537,369.848328 
	C374.774994,370.070648 375.374451,370.292999 375.973907,370.515350 
	C375.557037,372.268707 374.939911,374.004364 374.782959,375.780701 
	C374.642548,377.369324 374.388214,379.839844 375.252838,380.481598 
	C381.189362,384.888245 387.541779,388.733734 393.489471,393.126556 
	C397.862244,396.356140 400.931122,394.767670 404.078766,391.443024 
	C409.932281,385.260345 409.203552,378.461823 402.210938,373.630676 
	C398.216949,370.871246 394.343079,367.932922 390.483551,364.985535 
	C387.513458,362.717346 384.816864,361.878387 382.043762,365.362976 
	C381.288513,366.311951 379.786469,366.666595 378.627167,367.294006 
	C378.172241,366.822662 377.717285,366.351318 377.262329,365.879974 
	C382.111847,359.436066 386.961395,352.992157 391.810944,346.548218 
	C392.207306,346.821106 392.603668,347.093964 393.000031,347.366852 
	C393.000031,343.880249 393.000031,340.393646 393.000397,336.466431 
M431.999939,345.276062 
	C432.465942,340.641907 430.972717,337.071075 426.557404,334.860626 
	C424.805725,340.090546 423.217133,345.092163 421.445160,350.027924 
	C420.370148,353.022278 421.637238,353.986786 424.384979,353.999237 
	C429.663177,354.023102 430.774872,350.018005 431.999939,345.276062 
z"/>
<path fill="#FFFFFF" opacity="1.000000" stroke="none" 
	d="
M177.981140,197.210724 
	C177.482834,194.903214 177.000885,193.036331 176.278152,190.236740 
	C175.287216,191.360809 174.320190,191.993912 174.031876,192.854431 
	C169.753281,205.624130 165.448242,218.387405 161.413727,231.235214 
	C159.867889,236.157867 164.786865,234.678162 166.851440,235.961166 
	C167.871780,236.595245 169.136597,236.835938 170.290787,237.254623 
	C170.170776,237.670303 170.050766,238.085968 169.930756,238.501648 
	C162.751053,238.501648 155.571365,238.501648 147.576477,238.501648 
	C148.325546,237.461441 148.808670,236.046600 149.514465,235.925110 
	C156.854477,234.661499 158.088425,228.533569 160.004562,222.994141 
	C162.414001,216.028610 164.572769,208.975037 167.052643,202.035568 
	C169.526321,195.113373 172.263199,188.285248 175.114334,180.814041 
	C171.053879,179.887466 167.122833,178.990433 163.191803,178.093399 
	C163.259995,177.645966 163.328201,177.198532 163.396408,176.751099 
	C169.409317,176.751099 175.422211,176.751099 181.839798,176.751099 
	C184.701721,192.953766 187.498840,208.789520 190.591309,226.297440 
	C193.493393,221.515579 195.808792,217.849823 197.977386,214.099182 
	C204.572433,202.692932 211.025681,191.203094 217.778946,179.891968 
	C218.622849,178.478485 220.872742,177.298218 222.582031,177.128906 
	C226.629974,176.727936 230.744583,177.000015 236.288620,177.000015 
	C234.444214,178.409821 233.821869,179.295624 233.142899,179.341415 
	C225.941193,179.827026 224.872742,185.000458 223.953934,190.675644 
	C221.783356,204.082718 219.334030,217.444473 217.060593,230.835266 
	C216.644760,233.284531 217.256470,234.889435 220.352936,235.119507 
	C222.415466,235.272751 224.394760,236.546036 226.411316,237.318024 
	C226.230621,237.801025 226.049911,238.284042 225.869217,238.767044 
	C217.696335,238.408875 209.523453,238.050690 201.350571,237.692520 
	C201.142059,237.333694 200.933548,236.974869 200.725037,236.616043 
	C201.701614,236.077454 202.696503,235.050156 203.651535,235.085953 
	C207.519302,235.231018 209.564621,234.264145 210.179077,229.762894 
	C211.752289,218.237900 214.006943,206.805649 216.008530,195.339706 
	C216.303894,193.647766 216.704865,191.974258 217.056992,190.292221 
	C216.549164,190.033569 216.041351,189.774918 215.533524,189.516251 
	C210.668655,198.138412 206.265732,207.066895 200.808594,215.296295 
	C195.384689,223.475571 192.594971,233.430161 185.032257,240.919159 
	C182.564804,225.742859 180.281174,211.697113 177.981140,197.210724 
z"/>
<path fill="#FFFFFF" opacity="1.000000" stroke="none" 
	d="
M433.686768,287.000000 
	C427.487000,286.666656 421.740631,286.358063 415.997986,285.991119 
	C412.313873,285.755646 409.965973,286.768372 409.866089,291.089844 
	C409.838745,292.273468 408.204071,293.419922 407.307037,294.583435 
	C406.885040,294.336914 406.463074,294.090393 406.041107,293.843872 
	C406.471802,285.993195 406.902496,278.142548 407.361908,269.768585 
	C411.729645,270.978668 410.474976,274.683563 411.379761,278.114380 
	C414.393707,278.389801 417.727509,278.848694 421.073090,278.962738 
	C425.705902,279.120667 430.419739,279.542816 434.969757,278.915344 
	C443.391937,277.753937 445.775970,272.840515 442.452759,264.913483 
	C440.517334,260.296814 437.401062,257.774841 432.122498,257.949036 
	C425.645416,258.162720 419.155884,258.000000 413.339539,258.000000 
	C409.932861,259.541992 413.404510,265.711853 407.778687,264.919250 
	C407.778687,257.576050 407.778687,250.407120 407.778687,241.819748 
	C409.622131,243.306351 411.121826,243.941940 411.142548,244.622589 
	C411.319763,250.439651 415.927155,250.580643 419.652863,250.865692 
	C425.776947,251.334229 431.964233,251.062836 438.120941,250.925766 
	C439.070587,250.904633 440.556213,250.147644 440.849396,249.373306 
	C443.191498,243.187653 444.295349,246.183334 446.064941,249.756073 
	C447.117889,251.881943 449.281097,253.438736 450.819397,255.352478 
	C451.470337,256.162292 451.798096,257.231964 452.540649,258.720642 
	C449.155792,258.720642 446.413391,258.720642 444.040436,258.720642 
	C446.071838,263.803986 449.097534,268.589203 449.701538,273.662720 
	C450.317657,278.837799 448.304535,284.145844 442.138123,286.261261 
	C443.840485,289.091492 445.628754,291.707336 447.057190,294.506805 
	C451.229431,302.683685 447.513306,312.566772 440.404114,314.168793 
	C439.328217,314.411224 438.259521,314.989044 437.201111,314.957275 
	C429.142700,314.715393 421.088257,314.213165 413.031189,314.185455 
	C411.682007,314.180786 410.242920,315.990204 408.998962,317.129211 
	C407.933716,318.104675 407.088623,319.320648 406.146149,320.430267 
	C405.644653,320.177521 405.143127,319.924805 404.641632,319.672058 
	C405.089478,316.307373 405.715149,312.954254 405.935577,309.574738 
	C406.159882,306.136169 405.985138,302.671539 407.120544,298.762390 
	C407.746796,299.808258 408.807281,300.808777 408.922180,301.908081 
	C409.360168,306.098297 411.589630,307.173737 415.579865,307.105774 
	C420.984741,307.013763 426.399109,307.738953 431.815369,307.977631 
	C436.334534,308.176788 440.293274,307.063446 442.145081,302.350525 
	C443.814606,298.101440 443.443878,294.283600 440.277435,290.589050 
	C438.520782,288.539429 437.338470,286.274261 433.686768,287.000000 
z"/>
<path fill="#FFFFFF" opacity="1.000000" stroke="none" 
	d="
M91.008408,171.517334 
	C91.001030,165.924042 91.001030,160.748810 91.001030,154.753189 
	C93.552017,156.147980 96.435341,157.724472 99.531624,159.417404 
	C99.336807,155.729889 99.078880,152.549438 99.025116,149.365555 
	C98.967918,145.978439 100.930084,143.468475 104.019806,143.247757 
	C105.844978,143.117386 109.128250,144.956970 109.418167,146.385208 
	C109.791283,148.223221 108.313347,151.042938 106.765121,152.546341 
	C102.821579,156.375732 102.673187,162.031570 107.250336,165.631058 
	C111.943962,169.322128 116.794357,172.839783 121.806923,176.075851 
	C122.727165,176.669937 125.033928,175.961563 126.205376,175.144348 
	C128.601501,173.472855 130.661179,171.319061 132.859406,169.363892 
	C133.386826,169.826996 133.914246,170.290100 134.441666,170.753204 
	C132.926315,172.989456 131.471146,175.269424 129.884399,177.453827 
	C124.987320,184.195419 119.035194,190.154724 116.474274,198.552628 
	C115.847458,200.608109 111.786972,201.616501 109.305161,203.106293 
	C108.915802,202.765335 108.526451,202.424377 108.137093,202.083435 
	C108.200394,203.295593 107.973495,204.615250 108.375908,205.701813 
	C110.405991,211.183456 108.441483,216.192795 105.574257,220.378525 
	C104.623032,221.767166 98.733185,221.968430 97.620377,220.625336 
	C94.677628,217.073608 92.273941,212.574417 91.234032,208.086609 
	C90.175575,203.518829 91.000076,198.514740 91.000076,193.303162 
	C88.823212,192.486237 86.555206,191.785980 84.420006,190.798523 
	C81.194221,189.306763 77.712936,189.191010 76.336098,192.505585 
	C75.251122,195.117523 75.835701,198.627808 76.370697,201.615143 
	C76.611847,202.961655 78.541092,204.003082 79.698410,205.188782 
	C83.185837,208.761810 83.082726,210.435074 79.164742,213.950531 
	C70.337051,206.682297 68.084343,195.009827 74.270958,186.430801 
	C76.923775,182.752106 80.480186,180.812439 85.214508,182.976440 
	C91.919792,186.041367 98.620361,189.125198 105.417633,191.975067 
	C107.479378,192.839493 109.854248,192.957062 112.085693,193.416718 
	C112.192398,191.468964 112.299103,189.521225 112.449921,186.768188 
	C113.798027,187.531860 115.039490,188.235138 116.514473,189.070679 
	C117.356583,187.806183 118.228920,186.496307 119.638153,184.380249 
	C112.769371,179.433334 106.077347,174.424088 99.112617,169.828079 
	C98.200600,169.226227 95.901596,170.785126 94.222649,171.265015 
	C93.175392,171.564377 92.086166,171.716934 91.008408,171.517334 
M97.531151,211.018631 
	C99.572472,211.590561 101.944633,213.051529 103.550705,212.453857 
	C104.841919,211.973373 105.997177,208.931030 105.840179,207.146149 
	C105.247826,200.411560 101.740974,197.299164 92.831833,195.914474 
	C94.331001,201.180420 95.650650,205.815750 97.531151,211.018631 
z"/>
<path fill="#FFFFFF" opacity="1.000000" stroke="none" 
	d="
M439.989716,218.364594 
	C442.070953,226.928619 439.406982,234.831894 433.018616,239.490387 
	C426.097076,244.537689 415.198334,245.041580 408.414093,240.951416 
	C399.915497,235.827621 396.449738,226.220779 397.940399,215.866776 
	C390.658508,218.324265 383.609863,220.545670 376.733643,223.211685 
	C375.817078,223.567062 375.554810,226.152313 375.381561,227.747482 
	C375.157288,229.812607 375.326843,231.920502 374.718048,233.978287 
	C370.004181,227.937546 366.005646,212.262177 367.870300,210.052841 
	C368.162842,210.158798 368.651276,210.194916 368.718811,210.382553 
	C370.653809,215.758896 373.599182,216.243912 379.002808,214.208008 
	C394.414917,208.401306 410.149841,203.451340 425.592834,198.220169 
	C425.965668,195.624619 426.279449,193.440277 426.649261,190.865845 
	C431.138489,194.526337 435.092834,197.750687 439.571747,201.402756 
	C436.501221,202.548080 433.877075,203.526917 431.321625,204.480118 
	C434.141144,208.865585 437.060760,213.406723 439.989716,218.364594 
M406.069611,233.587006 
	C406.931183,234.029266 407.823792,234.420471 408.649414,234.921906 
	C414.750427,238.627396 420.713226,236.635345 425.854004,233.405884 
	C431.597595,229.797760 434.527893,224.271500 433.070099,216.912018 
	C431.610931,209.545563 426.173798,205.956955 419.226440,208.339417 
	C415.597382,209.583954 411.901276,210.651306 408.330231,212.042007 
	C403.825134,213.796448 399.819702,216.424149 401.120972,222.050552 
	C401.998657,225.845444 404.025360,229.374573 406.069611,233.587006 
z"/>
<path fill="#FFFFFF" opacity="1.000000" stroke="none" 
	d="
M142.265717,389.757935 
	C138.013657,385.469971 133.459152,383.896027 127.815514,385.635040 
	C121.955086,387.440887 118.888794,392.752228 121.418205,401.838257 
	C123.047546,407.691010 125.562859,413.365509 126.564926,419.308136 
	C127.999832,427.817505 127.869148,437.256470 117.459091,441.087402 
	C110.939499,443.486603 104.358215,442.594818 99.030869,438.275513 
	C95.442848,435.366394 92.967041,431.098816 89.932167,427.490692 
	C86.423904,423.319824 88.143135,420.009399 91.553352,416.939575 
	C93.288925,415.377289 95.046112,413.839020 96.793510,412.289886 
	C97.279037,412.645844 97.764565,413.001831 98.250084,413.357819 
	C97.507034,415.166260 96.855759,417.019287 96.003197,418.774536 
	C93.729034,423.456635 94.735794,428.908112 98.845596,433.050903 
	C102.363892,436.597473 106.826332,439.724976 112.678726,437.035553 
	C116.569893,435.247437 118.704903,431.337708 117.559921,427.110535 
	C115.337189,418.904297 113.490753,410.568878 110.761497,402.533905 
	C107.181915,391.995514 117.515907,380.928162 126.006363,380.013123 
	C137.722702,378.750366 153.810928,390.589264 155.939041,402.038208 
	C156.107727,402.945770 156.074234,404.300446 155.530273,404.864563 
	C151.931488,408.596771 148.167389,412.169556 143.461594,415.366211 
	C146.252136,406.491760 150.309174,397.997894 142.265717,389.757935 
z"/>
<path fill="#FFFFFF" opacity="1.000000" stroke="none" 
	d="
M51.951210,282.964050 
	C52.381084,276.118469 53.225533,269.302002 54.238102,261.128479 
	C55.583725,262.518951 56.909943,263.259888 56.898029,263.978638 
	C56.817108,268.860352 59.817337,268.503845 62.903229,267.558502 
	C71.285561,264.990601 79.616089,262.253601 88.991226,259.256226 
	C82.656227,255.798691 78.817314,249.206177 71.401550,250.145966 
	C65.241371,250.926651 58.436172,251.481506 56.325005,259.933655 
	C55.807728,259.539429 55.290455,259.145233 54.773178,258.751007 
	C55.871410,250.885925 56.969639,243.020844 58.087753,235.013397 
	C60.889431,236.602020 60.889431,236.602020 61.154041,244.563919 
	C70.867889,242.477325 80.378342,240.434433 91.246651,238.099854 
	C82.812340,232.923416 75.813599,228.407684 68.576195,224.313873 
	C66.257118,223.002106 63.946064,223.910843 62.954399,226.936752 
	C62.428787,228.540573 61.394390,229.977676 60.589676,231.490036 
	C59.991177,231.261566 59.392677,231.033112 58.794178,230.804642 
	C59.663239,224.582031 60.532303,218.359421 61.493496,211.477127 
	C62.761269,212.229523 64.644196,212.777542 64.698578,213.469299 
	C65.135674,219.030014 69.636612,220.663651 73.415237,223.037415 
	C81.866478,228.346588 90.332512,233.632843 98.734329,239.019211 
	C99.677513,239.623886 100.246269,240.812637 100.988647,241.730530 
	C99.880653,242.483170 98.868675,243.614639 97.648323,243.923935 
	C91.868286,245.388870 86.031357,246.629349 79.596085,248.090195 
	C85.408272,252.381882 90.499733,256.070892 95.493690,259.887543 
	C96.510216,260.664398 97.159706,261.921539 97.978401,262.957275 
	C96.838516,263.666595 95.784058,264.632874 94.545273,265.044708 
	C84.364670,268.429352 74.100594,271.569611 63.970234,275.095398 
	C60.074932,276.451141 55.326099,277.064514 54.094112,282.323547 
	C54.014561,282.663116 52.964424,282.775269 51.951210,282.964050 
z"/>
<path fill="#FFFFFF" opacity="1.000000" stroke="none" 
	d="
M327.355072,314.877869 
	C334.468079,312.162811 333.199188,305.511322 334.797424,300.377686 
	C334.908112,300.022186 332.363617,298.529694 330.895996,298.070343 
	C328.981049,297.470947 326.908478,297.375305 324.903717,297.062927 
	C324.970032,296.521454 325.036346,295.979950 325.102692,295.438477 
	C333.340302,295.438477 341.577942,295.438477 350.437439,295.438477 
	C349.547241,296.492249 348.913940,297.810669 348.397400,297.766418 
	C342.485626,297.259888 342.937866,301.913483 342.017151,305.436432 
	C341.853455,306.062683 341.949524,306.752014 341.860046,307.403229 
	C341.026581,313.469391 337.949158,316.253326 331.488464,317.446777 
	C320.288361,319.515686 309.723419,320.314301 299.523315,314.055908 
	C287.831726,306.882355 286.392761,295.051056 290.995636,283.703247 
	C297.297821,268.166168 308.980011,258.594330 326.070984,257.111725 
	C333.815918,256.439850 341.667542,256.997711 350.385498,256.997711 
	C349.503113,261.294250 348.702728,265.191559 347.902344,269.088837 
	C347.293671,269.118805 346.684998,269.148804 346.076324,269.178772 
	C345.717163,267.495514 345.241852,265.827118 345.023529,264.125793 
	C344.595123,260.786957 343.292206,259.123383 339.438385,258.894775 
	C318.917023,257.677582 302.845642,272.325287 298.310608,290.694244 
	C295.567596,301.804688 301.752869,313.244873 314.509918,314.918884 
	C318.590240,315.454315 322.801575,314.991089 327.355072,314.877869 
z"/>
<path fill="#FFFFFF" opacity="1.000000" stroke="none" 
	d="
M412.743225,192.748138 
	C403.275452,200.180557 393.878357,200.565521 384.134827,194.032333 
	C374.063385,187.279236 370.693085,171.764038 377.334869,162.144211 
	C384.445251,151.845749 400.562164,149.332092 410.131866,157.860153 
	C419.362854,166.086395 422.626984,177.507065 415.189392,189.291214 
	C414.502075,190.380127 413.737671,191.420364 412.743225,192.748138 
M413.976898,176.134506 
	C415.374695,165.758926 407.539978,156.344009 399.050354,159.295471 
	C392.887726,161.437958 387.058655,165.468475 382.071869,169.798492 
	C377.256958,173.979324 377.196625,181.381195 380.425323,185.942276 
	C384.118347,191.159180 390.337067,192.884460 396.798859,191.111725 
	C404.720978,188.938385 409.783203,183.662842 413.976898,176.134506 
z"/>
<path fill="#FFFFFF" opacity="1.000000" stroke="none" 
	d="
M78.957001,373.787109 
	C71.359055,358.822815 81.221375,344.874023 92.178253,341.798401 
	C104.976570,338.205963 119.491577,348.538696 121.002449,361.680786 
	C122.499924,374.706268 114.528786,383.955383 105.567154,386.171204 
	C94.600395,388.882843 87.159828,385.029297 81.117676,377.398102 
	C80.324554,376.396393 79.711510,375.252075 78.957001,373.787109 
M97.768379,349.001007 
	C91.975876,350.490967 87.627228,354.149872 83.988152,358.627808 
	C80.705925,362.666565 79.564545,367.487274 81.895309,372.259155 
	C84.200035,376.977783 87.709320,380.256287 93.761009,380.098785 
	C100.497757,379.923462 105.722115,376.889191 110.860321,373.054657 
	C117.136887,368.370514 118.418358,361.366974 115.775482,355.530609 
	C113.086967,349.593445 104.942673,346.711121 97.768379,349.001007 
z"/>
<path fill="#FFFFFF" opacity="1.000000" stroke="none" 
	d="
M77.364151,333.254395 
	C75.204704,334.086761 73.389107,334.699554 71.428627,335.361267 
	C71.959343,337.648682 72.513680,340.037933 73.068008,342.427185 
	C72.795685,342.749725 72.523361,343.072296 72.251030,343.394836 
	C70.849380,342.439941 69.170578,341.723114 68.103539,340.480804 
	C65.853218,337.860870 63.305260,338.030914 60.165806,338.252991 
	C54.858639,338.628448 49.205414,339.145233 44.209480,337.758606 
	C35.804718,335.425903 30.695595,328.350311 31.131292,319.004730 
	C31.195461,317.628387 33.464516,315.058624 33.946541,315.227661 
	C35.797821,315.876953 37.956959,317.089661 38.814674,318.717438 
	C39.639645,320.283020 38.998890,322.621735 38.999756,324.620728 
	C39.003159,332.496613 42.533516,335.606201 49.992264,333.923218 
	C54.181507,332.977966 58.251514,331.504242 62.848610,330.126740 
	C61.874722,326.881226 60.859322,323.794312 60.036133,320.656982 
	C59.415546,318.291748 59.273426,316.001923 63.496773,316.021881 
	C65.005836,319.804382 66.620049,323.850464 68.413773,328.346497 
	C76.953209,325.528839 85.267609,322.767578 93.595108,320.046356 
	C97.030899,318.923584 97.355835,316.458466 96.792694,313.382965 
	C96.422928,311.363586 96.391991,309.282227 96.209312,307.228607 
	C96.813950,307.134064 97.418587,307.039551 98.023224,306.945007 
	C100.623550,315.442627 103.223885,323.940277 105.824211,332.437897 
	C105.560234,332.754944 105.296257,333.071960 105.032280,333.389008 
	C103.816872,332.209442 102.143196,331.240997 101.482277,329.806030 
	C100.142159,326.896423 98.593063,326.584015 95.658302,327.620667 
	C89.771843,329.699921 83.702095,331.260254 77.364151,333.254395 
z"/>
<path fill="#FFFFFF" opacity="1.000000" stroke="none" 
	d="
M153.340790,146.182556 
	C154.615952,143.051910 155.617508,140.193146 156.839890,136.704041 
	C160.394089,138.957626 159.274643,142.621338 158.750458,145.264709 
	C156.937515,154.407150 149.140030,162.004944 139.974457,162.820190 
	C132.241943,163.507965 126.227264,159.131348 121.775208,153.147888 
	C116.852013,146.531204 114.481155,134.092896 120.662064,126.419701 
	C127.428886,118.019104 140.039886,116.292351 146.294937,125.088425 
	C139.292389,131.226852 132.236023,137.412460 124.911957,143.832733 
	C127.637543,150.114883 133.017670,153.174133 139.472382,153.864151 
	C145.326538,154.489944 150.112000,151.821594 153.340790,146.182556 
M122.000755,132.985687 
	C122.000755,135.258484 122.000755,137.531296 122.000755,139.804092 
	C122.418205,140.119293 122.835648,140.434509 123.253098,140.749725 
	C128.408371,136.631592 132.676376,131.548447 137.630219,126.939789 
	C130.657959,122.006485 126.213203,123.709846 122.000755,132.985687 
z"/>
<path fill="#FFFFFF" opacity="1.000000" stroke="none" 
	d="
M362.608002,111.225967 
	C370.478729,117.036964 372.261627,125.450066 367.151978,133.484741 
	C359.099121,128.267944 351.044128,123.049774 342.903229,117.775940 
	C338.016174,124.473038 334.313507,131.482422 339.194366,139.151993 
	C343.576843,146.038483 350.530212,148.324814 358.720062,145.979568 
	C357.682800,149.926666 356.910645,150.619049 352.020874,150.969742 
	C342.078461,151.682816 331.143524,146.208633 328.746613,134.761017 
	C326.907837,125.979057 333.606049,114.799934 341.247498,110.828926 
	C348.575226,107.020927 355.301575,106.786911 362.608002,111.225967 
M349.546967,118.029144 
	C352.724609,119.874290 355.857605,121.803978 359.104034,123.518913 
	C360.246521,124.122444 361.666901,124.199837 362.960419,124.517456 
	C363.352570,122.833549 364.164093,121.122688 364.057922,119.470818 
	C363.745544,114.610336 359.437744,112.981224 355.969452,112.303360 
	C352.868805,111.697357 349.297058,113.501907 345.933167,114.242828 
	C346.010834,114.758331 346.088470,115.273834 346.166138,115.789337 
	C347.112823,116.365501 348.059479,116.941666 349.546967,118.029144 
z"/>
<path fill="#FFFFFF" opacity="1.000000" stroke="none" 
	d="
M264.009460,121.027199 
	C254.799591,120.385231 248.692108,110.936890 248.819000,103.427147 
	C248.972992,94.314011 251.049118,86.401794 258.658142,81.007065 
	C265.024384,76.493462 272.287415,76.597900 278.945160,80.124161 
	C284.375793,83.000458 286.914825,88.107864 285.701233,95.189575 
	C276.313934,94.422012 266.914795,93.653481 257.379639,92.873825 
	C256.134949,101.117348 256.896057,108.464691 263.998047,113.393471 
	C271.298462,118.459938 278.051605,115.293213 284.468567,110.714806 
	C285.310486,117.824371 272.879547,123.984329 264.009460,121.027199 
M277.641724,85.114952 
	C275.046448,82.045280 271.610046,80.023743 267.796753,81.241898 
	C263.808716,82.515877 259.798279,84.634384 259.162994,89.517532 
	C264.125916,90.029312 268.824249,90.602318 273.538330,90.976135 
	C278.699036,91.385361 279.221954,90.703590 277.641724,85.114952 
z"/>
<path fill="#FFFFFF" opacity="1.000000" stroke="none" 
	d="
M377.238953,138.261856 
	C382.431244,133.066162 387.241028,127.978561 392.363525,123.228180 
	C396.314362,119.564392 399.628326,116.074921 394.666077,110.437386 
	C395.079773,110.086716 395.493439,109.736046 395.907135,109.385384 
	C400.271454,111.430077 404.635742,113.474770 409.912964,115.947159 
	C394.426056,132.016830 379.664429,147.333923 365.004303,162.545700 
	C365.391388,165.601700 370.367432,167.198334 367.315735,171.827499 
	C361.273895,165.627350 355.405731,160.244217 350.132477,154.332321 
	C350.634094,153.820145 351.135681,153.307968 351.637299,152.795792 
	C353.926544,154.132050 356.215820,155.468292 359.355438,157.300903 
	C365.103333,151.178146 371.047211,144.846634 377.238953,138.261856 
z"/>
<path fill="#FFFFFF" opacity="1.000000" stroke="none" 
	d="
M325.808655,105.687325 
	C317.995483,114.239502 310.427399,122.520348 302.859283,130.801193 
	C302.297302,130.562592 301.735321,130.324005 301.173340,130.085403 
	C300.449615,125.095078 299.486755,120.125053 299.060852,115.109444 
	C298.489716,108.382866 298.194550,101.623955 298.052399,94.873207 
	C297.967590,90.843971 298.054993,87.061478 293.600067,84.955215 
	C292.660950,84.511208 292.342651,82.754074 291.134216,80.450424 
	C300.028778,83.767784 307.557678,86.575806 315.086578,89.383820 
	C315.063751,89.878036 315.040955,90.372253 315.018127,90.866470 
	C311.890472,90.866470 308.762787,90.866470 305.529633,90.866470 
	C306.057648,100.373734 306.562866,109.470802 307.082245,118.822723 
	C307.985870,118.822723 309.130890,119.150833 309.455292,118.773460 
	C314.224976,113.225388 318.846771,107.550529 323.587708,101.977264 
	C326.045929,99.087502 325.611847,97.163429 322.157074,95.521683 
	C320.731689,94.844315 319.676849,93.387085 318.453491,92.284554 
	C318.780365,91.820488 319.107239,91.356422 319.434082,90.892357 
	C326.281891,93.285866 333.129669,95.679382 339.977448,98.072899 
	C340.068329,98.481667 340.159210,98.890427 340.250061,99.299194 
	C339.217194,99.747940 337.953491,100.825340 337.188538,100.544464 
	C331.804199,98.567482 328.447235,100.788300 325.808655,105.687325 
z"/>
<path fill="#FFFFFF" opacity="1.000000" stroke="none" 
	d="
M347.678345,402.820923 
	C346.441803,404.575500 345.488800,406.066925 344.535828,407.558350 
	C342.775879,400.199921 349.367493,391.182251 355.547943,391.188263 
	C357.996277,391.190643 360.997803,392.700714 362.780792,394.488434 
	C367.273865,398.993408 371.325928,403.958160 375.352417,408.903381 
	C380.030731,414.649109 379.937195,414.725281 385.502319,410.895569 
	C385.502319,418.040344 385.502319,424.984833 385.502319,431.929321 
	C385.031708,432.363586 384.561096,432.797882 384.090454,433.232147 
	C382.791931,431.344513 381.178345,429.597229 380.261841,427.539459 
	C378.470032,423.516541 376.594391,424.723236 374.454132,427.061096 
	C372.547333,429.143921 370.630341,431.217407 368.579224,433.445618 
	C365.256683,431.219818 363.133392,429.631317 367.610077,426.750671 
	C370.081268,425.160522 372.001434,422.714020 374.753723,420.098999 
	C368.282257,412.991547 362.290161,405.854889 355.673706,399.353638 
	C351.745026,395.493317 350.000946,400.121704 347.678345,402.820923 
z"/>
<path fill="#FFFFFF" opacity="1.000000" stroke="none" 
	d="
M62.774727,311.679626 
	C61.301228,310.774750 60.257607,309.370331 58.882782,308.473755 
	C55.417179,306.213654 51.791290,304.200531 48.254822,302.047058 
	C47.344002,301.492432 46.526291,300.784912 44.804802,299.509949 
	C49.698925,298.740845 53.209824,298.189117 56.629620,297.651672 
	C56.410713,295.445862 56.273510,293.234131 55.951290,291.049713 
	C55.629375,288.867401 55.122284,286.712372 54.631924,284.217468 
	C56.715569,284.217468 58.123985,284.217468 59.727772,284.217468 
	C60.250839,288.276794 60.767891,292.289459 61.380810,297.046112 
	C66.083160,296.700714 71.073318,296.482361 76.024437,295.920197 
	C79.525238,295.522675 82.986893,294.724213 86.441689,293.990143 
	C92.740410,292.651855 94.142815,289.433472 90.965820,283.746796 
	C90.224358,282.419617 89.412201,281.131958 88.442596,279.507904 
	C93.147141,279.480042 95.796638,282.357544 96.966698,287.977509 
	C98.868874,297.113953 95.381233,301.311920 86.015175,302.074890 
	C78.311264,302.702484 70.661003,303.988770 63.053806,304.974457 
	C63.053806,307.516937 63.053806,309.464111 62.774727,311.679626 
z"/>
<path fill="#000000" opacity="1.000000" stroke="none" 
	d="
M188.257050,99.620483 
	C185.956406,90.324928 184.195374,81.300888 181.617920,72.516411 
	C180.774277,69.641121 181.558792,67.961967 183.465561,67.327286 
	C194.586639,63.625549 205.682037,61.673046 216.430740,68.838570 
	C224.545883,74.248436 228.386520,81.869820 230.104645,91.283165 
	C232.656570,105.264679 221.844299,119.487350 209.359879,122.125786 
	C196.762833,124.788002 193.896301,122.323059 191.941193,112.506577 
	C191.097580,108.270950 189.651443,104.155334 188.257050,99.620483 
z"/>
<path fill="#000000" opacity="1.000000" stroke="none" 
	d="
M431.999390,345.699097 
	C430.774872,350.018005 429.663177,354.023102 424.384979,353.999237 
	C421.637238,353.986786 420.370148,353.022278 421.445160,350.027924 
	C423.217133,345.092163 424.805725,340.090546 426.557404,334.860626 
	C430.972717,337.071075 432.465942,340.641907 431.999390,345.699097 
z"/>
<path fill="#000000" opacity="1.000000" stroke="none" 
	d="
M97.250717,210.734863 
	C95.650650,205.815750 94.331001,201.180420 92.831833,195.914474 
	C101.740974,197.299164 105.247826,200.411560 105.840179,207.146149 
	C105.997177,208.931030 104.841919,211.973373 103.550705,212.453857 
	C101.944633,213.051529 99.572472,211.590561 97.250717,210.734863 
z"/>
<path fill="#000000" opacity="1.000000" stroke="none" 
	d="
M405.803833,233.304810 
	C404.025360,229.374573 401.998657,225.845444 401.120972,222.050552 
	C399.819702,216.424149 403.825134,213.796448 408.330231,212.042007 
	C411.901276,210.651306 415.597382,209.583954 419.226440,208.339417 
	C426.173798,205.956955 431.610931,209.545563 433.070099,216.912018 
	C434.527893,224.271500 431.597595,229.797760 425.854004,233.405884 
	C420.713226,236.635345 414.750427,238.627396 408.649414,234.921906 
	C407.823792,234.420471 406.931183,234.029266 405.803833,233.304810 
z"/>
<path fill="#000000" opacity="1.000000" stroke="none" 
	d="
M413.824432,176.497406 
	C409.783203,183.662842 404.720978,188.938385 396.798859,191.111725 
	C390.337067,192.884460 384.118347,191.159180 380.425323,185.942276 
	C377.196625,181.381195 377.256958,173.979324 382.071869,169.798492 
	C387.058655,165.468475 392.887726,161.437958 399.050354,159.295471 
	C407.539978,156.344009 415.374695,165.758926 413.824432,176.497406 
z"/>
<path fill="#000000" opacity="1.000000" stroke="none" 
	d="
M98.189636,348.998505 
	C104.942673,346.711121 113.086967,349.593445 115.775482,355.530609 
	C118.418358,361.366974 117.136887,368.370514 110.860321,373.054657 
	C105.722115,376.889191 100.497757,379.923462 93.761009,380.098785 
	C87.709320,380.256287 84.200035,376.977783 81.895309,372.259155 
	C79.564545,367.487274 80.705925,362.666565 83.988152,358.627808 
	C87.627228,354.149872 91.975876,350.490967 98.189636,348.998505 
z"/>
<path fill="#000000" opacity="1.000000" stroke="none" 
	d="
M122.005783,132.566147 
	C126.213203,123.709846 130.657959,122.006485 137.630219,126.939789 
	C132.676376,131.548447 128.408371,136.631592 123.253098,140.749725 
	C122.835648,140.434509 122.418205,140.119293 122.000755,139.804092 
	C122.000755,137.531296 122.000755,135.258484 122.005783,132.566147 
z"/>
<path fill="#000000" opacity="1.000000" stroke="none" 
	d="
M349.276550,117.773483 
	C348.059479,116.941666 347.112823,116.365501 346.166138,115.789337 
	C346.088470,115.273834 346.010834,114.758331 345.933167,114.242828 
	C349.297058,113.501907 352.868805,111.697357 355.969452,112.303360 
	C359.437744,112.981224 363.745544,114.610336 364.057922,119.470818 
	C364.164093,121.122688 363.352570,122.833549 362.960419,124.517456 
	C361.666901,124.199837 360.246521,124.122444 359.104034,123.518913 
	C355.857605,121.803978 352.724609,119.874290 349.276550,117.773483 
z"/>
<path fill="#000000" opacity="1.000000" stroke="none" 
	d="
M277.808167,85.473106 
	C279.221954,90.703590 278.699036,91.385361 273.538330,90.976135 
	C268.824249,90.602318 264.125916,90.029312 259.162994,89.517532 
	C259.798279,84.634384 263.808716,82.515877 267.796753,81.241898 
	C271.610046,80.023743 275.046448,82.045280 277.808167,85.473106 
z"/>
</svg>