<svg xmlns="http://www.w3.org/2000/svg" xmlns:xlink="http://www.w3.org/1999/xlink" width="40" zoomAndPan="magnify" viewBox="0 0 30 30.000001" height="40" preserveAspectRatio="xMidYMid meet" version="1.0"><defs><clipPath id="7fc6944434"><path d="M 5.597656 3.742188 L 24.46875 3.742188 L 24.46875 25.515625 L 5.597656 25.515625 Z M 5.597656 3.742188 " clip-rule="nonzero"/></clipPath></defs><g clip-path="url(#7fc6944434)"><path fill="#000000" d="M 7.945312 20.792969 L 15.476562 20.792969 C 16.074219 20.792969 16.640625 20.679688 17.152344 20.480469 C 17.683594 20.269531 18.164062 19.964844 18.566406 19.582031 C 18.945312 19.222656 19.253906 18.792969 19.464844 18.316406 C 19.664062 17.859375 19.773438 17.363281 19.773438 16.839844 C 19.773438 16.320312 19.664062 15.824219 19.464844 15.367188 C 19.253906 14.890625 18.945312 14.460938 18.566406 14.097656 C 18.164062 13.71875 17.683594 13.410156 17.152344 13.203125 C 16.640625 13 16.070312 12.890625 15.476562 12.890625 L 13.609375 12.890625 L 14.003906 13.289062 L 14.023438 13.308594 C 14.46875 13.769531 14.6875 14.363281 14.6875 14.957031 C 14.6875 15.5625 14.460938 16.164062 14.003906 16.625 L 13.980469 16.644531 C 13.527344 17.09375 12.933594 17.316406 12.34375 17.316406 C 11.746094 17.316406 11.144531 17.085938 10.6875 16.625 C 10.6875 16.625 6.640625 12.574219 6.296875 12.203125 C 6.082031 11.988281 5.910156 11.734375 5.789062 11.449219 C 5.667969 11.164062 5.601562 10.851562 5.601562 10.527344 C 5.601562 10.207031 5.667969 9.894531 5.789062 9.609375 C 5.910156 9.316406 6.089844 9.054688 6.3125 8.839844 L 10.6875 4.433594 C 11.144531 3.96875 11.746094 3.742188 12.34375 3.742188 C 12.945312 3.742188 13.546875 3.96875 14.003906 4.433594 C 14.460938 4.890625 14.6875 5.496094 14.6875 6.101562 C 14.6875 6.703125 14.460938 7.308594 14.003906 7.769531 L 13.609375 8.167969 L 15.476562 8.167969 C 16.671875 8.167969 17.820312 8.398438 18.867188 8.8125 C 19.957031 9.246094 20.945312 9.882812 21.773438 10.667969 C 22.617188 11.472656 23.300781 12.433594 23.765625 13.5 L 23.773438 13.519531 C 24.21875 14.546875 24.464844 15.667969 24.464844 16.839844 C 24.464844 18.023438 24.214844 19.148438 23.765625 20.179688 C 23.300781 21.25 22.617188 22.210938 21.773438 23.015625 C 20.945312 23.800781 19.957031 24.433594 18.867188 24.867188 C 17.820312 25.285156 16.671875 25.515625 15.476562 25.515625 L 6.488281 25.515625 C 6.246094 25.515625 6.023438 25.414062 5.863281 25.253906 L 5.839844 25.226562 C 5.691406 25.066406 5.601562 24.855469 5.601562 24.621094 L 5.601562 21.683594 C 5.601562 21.441406 5.703125 21.21875 5.863281 21.054688 C 6.023438 20.890625 6.246094 20.792969 6.488281 20.792969 Z M 9.222656 21.496094 L 6.488281 21.496094 C 6.4375 21.496094 6.390625 21.515625 6.355469 21.550781 C 6.320312 21.585938 6.300781 21.632812 6.300781 21.683594 L 6.300781 24.621094 C 6.300781 24.667969 6.316406 24.710938 6.34375 24.746094 L 6.355469 24.757812 C 6.390625 24.792969 6.4375 24.8125 6.488281 24.8125 L 15.476562 24.8125 C 16.585938 24.8125 17.644531 24.597656 18.613281 24.214844 C 19.621094 23.816406 20.53125 23.230469 21.292969 22.503906 C 22.070312 21.765625 22.699219 20.882812 23.128906 19.898438 C 23.539062 18.957031 23.765625 17.925781 23.765625 16.839844 C 23.765625 15.765625 23.542969 14.738281 23.136719 13.800781 L 23.128906 13.785156 C 22.699219 12.800781 22.070312 11.917969 21.292969 11.179688 C 20.53125 10.453125 19.621094 9.867188 18.613281 9.46875 C 17.644531 9.082031 16.585938 8.871094 15.476562 8.871094 L 12.765625 8.871094 C 12.675781 8.871094 12.585938 8.835938 12.519531 8.765625 C 12.382812 8.628906 12.382812 8.410156 12.519531 8.269531 L 13.507812 7.273438 C 13.832031 6.949219 13.992188 6.527344 13.992188 6.101562 C 13.992188 5.675781 13.832031 5.253906 13.507812 4.929688 C 13.1875 4.605469 12.765625 4.441406 12.34375 4.441406 C 11.921875 4.441406 11.5 4.605469 11.179688 4.929688 L 6.800781 9.335938 C 6.640625 9.492188 6.515625 9.675781 6.429688 9.882812 C 6.34375 10.078125 6.300781 10.296875 6.300781 10.527344 C 6.300781 10.761719 6.34375 10.980469 6.429688 11.175781 C 6.511719 11.375 6.632812 11.554688 6.785156 11.703125 L 11.179688 16.128906 C 11.5 16.453125 11.921875 16.617188 12.34375 16.617188 C 12.761719 16.617188 13.175781 16.460938 13.492188 16.148438 L 13.507812 16.128906 C 13.832031 15.808594 13.992188 15.382812 13.992188 14.957031 C 13.992188 14.539062 13.835938 14.121094 13.527344 13.800781 L 12.523438 12.792969 C 12.457031 12.730469 12.417969 12.640625 12.417969 12.539062 C 12.417969 12.347656 12.574219 12.1875 12.765625 12.1875 L 15.476562 12.1875 C 16.15625 12.1875 16.808594 12.316406 17.402344 12.550781 C 18.023438 12.792969 18.578125 13.148438 19.042969 13.589844 C 19.492188 14.015625 19.851562 14.523438 20.101562 15.085938 C 20.339844 15.628906 20.472656 16.222656 20.472656 16.84375 C 20.472656 17.460938 20.339844 18.054688 20.101562 18.597656 C 19.851562 19.160156 19.492188 19.667969 19.042969 20.09375 C 18.578125 20.535156 18.023438 20.890625 17.402344 21.132812 C 16.808594 21.367188 16.15625 21.496094 15.476562 21.496094 Z M 9.222656 21.496094 " fill-opacity="1" fill-rule="nonzero"/></g></svg>